<svg xmlns="http://www.w3.org/2000/svg" style="position:absolute; width: 0; height: 0;"><defs><filter id="finuniver-icon-filter-a" width="200%" height="200%" x="-50%" y="-50%" filterUnits="objectBoundingBox"> <feOffset dy="15" in="SourceAlpha" result="shadowOffsetOuter1"></feOffset><feGaussianBlur stdDeviation="15" in="shadowOffsetOuter1" result="shadowBlurOuter1"></feGaussianBlur><feColorMatrix values="0 0 0 0 1 0 0 0 0 0.960784314 0 0 0 0 0 0 0 0 0.248612998 0" in="shadowBlurOuter1" result="shadowMatrixOuter1"></feColorMatrix><feMerge><feMergeNode in="shadowMatrixOuter1"></feMergeNode><feMergeNode in="SourceGraphic"></feMergeNode></feMerge></filter><feMerge> <feMergeNode in="shadowMatrixOuter1"></feMergeNode><feMergeNode in="SourceGraphic"></feMergeNode></feMerge><filter id="finuniver-icon-filter-a" width="200%" height="200%" x="-50%" y="-50%" filterUnits="objectBoundingBox"> <feOffset dy="15" in="SourceAlpha" result="shadowOffsetOuter1"></feOffset><feGaussianBlur stdDeviation="15" in="shadowOffsetOuter1" result="shadowBlurOuter1"></feGaussianBlur><feColorMatrix values="0 0 0 0 1 0 0 0 0 0.960784314 0 0 0 0 0 0 0 0 0.248612998 0" in="shadowBlurOuter1" result="shadowMatrixOuter1"></feColorMatrix><feMerge><feMergeNode in="shadowMatrixOuter1"></feMergeNode><feMergeNode in="SourceGraphic"></feMergeNode></feMerge></filter></defs><symbol viewBox="0 0 384 330" id="iconfinuniver-21"><path d="M123.492 174H4.43v-25.781l54.843-57.656c13.516-15.391 20.274-27.618 20.274-36.68 0-7.344-1.602-12.93-4.805-16.758-3.203-3.828-7.851-5.742-13.945-5.742-6.016 0-10.899 2.558-14.649 7.676-3.75 5.117-5.625 11.503-5.625 19.16H.914c0-10.47 2.617-20.137 7.852-29.004 5.234-8.867 12.5-15.8 21.797-20.8 9.296-5.001 19.687-7.5 31.171-7.5 18.438 0 32.637 4.257 42.598 12.773 9.961 8.515 14.941 20.742 14.941 36.68 0 6.718-1.25 13.26-3.75 19.628-2.5 6.367-6.386 13.047-11.66 20.04-5.273 6.991-13.77 16.347-25.488 28.066l-22.031 25.43h67.148V174zm107.461 0h-39.61V47.906l-38.905 11.367v-30L227.32 3.375h3.633V174zM279 82.125c0-7.031 2.292-12.708 6.875-17.031 4.583-4.323 10.73-6.485 18.438-6.485 7.812 0 13.984 2.149 18.515 6.446 4.531 4.297 6.797 10.117 6.797 17.46v5.626c0 7.03-2.266 12.682-6.797 16.953-4.531 4.27-10.65 6.406-18.36 6.406-7.656 0-13.814-2.122-18.476-6.367-4.661-4.245-6.992-10.065-6.992-17.461v-5.547zm16.953 6.016c0 2.708.755 4.908 2.266 6.601 1.51 1.693 3.593 2.54 6.25 2.54 5.469 0 8.203-3.49 8.203-10.47v-4.687c0-2.708-.73-4.935-2.188-6.68-1.458-1.744-3.515-2.617-6.171-2.617-2.553 0-4.584.846-6.094 2.54-1.51 1.692-2.266 3.997-2.266 6.913v5.86zm37.11 57.968c0-7.083 2.304-12.76 6.914-17.03 4.609-4.272 10.742-6.407 18.398-6.407 7.76 0 13.932 2.11 18.516 6.328 4.583 4.219 6.875 10.104 6.875 17.656v5.469c0 7.083-2.266 12.76-6.797 17.031-4.532 4.271-10.677 6.406-18.438 6.406-7.656 0-13.815-2.122-18.476-6.367-4.662-4.244-6.993-10.065-6.993-17.46v-5.626zm16.875 6.016c0 2.448.833 4.596 2.5 6.445 1.666 1.85 3.697 2.774 6.093 2.774 5.052 0 7.787-2.396 8.203-7.188l.079-8.047c0-2.76-.756-4.987-2.266-6.68-1.51-1.692-3.568-2.538-6.172-2.538-2.5 0-4.505.794-6.016 2.382-1.51 1.589-2.317 3.737-2.421 6.446v6.406zm-40.47 13.36l-12.265-6.173 55.547-88.906 12.266 6.172-55.547 88.906zM17.7 244.686H13V261h-9.94v-41.234h9.94v15.944h3.823l7.93-15.944h12.036l-11.328 19.03L38.204 261H26.451l-8.75-16.313zm58.98-3.455c0 4.022-.745 7.58-2.237 10.677-1.491 3.097-3.61 5.48-6.358 7.151-2.747 1.671-5.876 2.506-9.388 2.506-3.511 0-6.627-.807-9.345-2.421-2.72-1.614-4.838-3.922-6.358-6.924-1.52-3.002-2.318-6.448-2.393-10.337v-2.322c0-4.04.74-7.604 2.223-10.691 1.482-3.087 3.606-5.47 6.372-7.151 2.766-1.68 5.914-2.52 9.445-2.52 3.492 0 6.608.83 9.345 2.491 2.738 1.662 4.867 4.027 6.387 7.095 1.52 3.068 2.289 6.584 2.308 10.549v1.897zm-10.11-1.727c0-4.097-.684-7.208-2.053-9.332-1.369-2.124-3.328-3.186-5.876-3.186-4.985 0-7.619 3.739-7.902 11.215l-.028 3.03c0 4.04.67 7.147 2.01 9.318 1.341 2.171 3.333 3.257 5.976 3.257 2.511 0 4.447-1.067 5.806-3.2 1.36-2.134 2.048-5.202 2.067-9.205v-1.897zM118.272 261h-9.883v-17.219H93.747V261h-9.94v-41.234h9.94v16.369h14.642v-16.37h9.883V261zm8.288 0v-41.234h14.811c5.305 0 9.341.972 12.107 2.917 2.766 1.944 4.149 4.767 4.149 8.467 0 2.134-.49 3.956-1.473 5.466-.981 1.51-2.426 2.625-4.333 3.342 2.153.566 3.805 1.624 4.956 3.172 1.152 1.548 1.728 3.436 1.728 5.664 0 4.04-1.28 7.075-3.838 9.105-2.558 2.03-6.348 3.063-11.37 3.101H126.56zm9.94-17.53v9.884h6.514c1.793 0 3.172-.411 4.134-1.232.963-.822 1.445-1.978 1.445-3.47 0-3.436-1.709-5.163-5.126-5.182H136.5zm0-6.514h5.183c2.17-.019 3.719-.415 4.644-1.19.925-.773 1.388-1.916 1.388-3.426 0-1.737-.5-2.988-1.501-3.753-1-.764-2.615-1.147-4.843-1.147H136.5v9.516zm55.044 6.57H175.91v9.828h18.465V261h-28.405v-41.234h28.462v7.674H175.91v8.695h15.633v7.391zm18.822 3.484V261h-9.94v-41.234h16.454c3.153 0 5.942.58 8.369 1.741 2.426 1.161 4.304 2.813 5.635 4.956 1.331 2.143 1.997 4.574 1.997 7.293 0 4.021-1.44 7.236-4.319 9.643-2.88 2.407-6.83 3.61-11.852 3.61h-6.344zm0-7.675h6.514c1.926 0 3.394-.481 4.404-1.444 1.01-.963 1.515-2.323 1.515-4.078 0-1.926-.52-3.465-1.558-4.617-1.038-1.151-2.454-1.737-4.248-1.756h-6.627v11.895zm63.172 7.703c-.132 2.87-.906 5.405-2.322 7.604-1.416 2.2-3.403 3.904-5.962 5.112-2.558 1.208-5.48 1.812-8.765 1.812-5.418 0-9.685-1.765-12.8-5.295-3.116-3.531-4.673-8.515-4.673-14.954v-2.039c0-4.04.703-7.575 2.11-10.606 1.406-3.03 3.431-5.371 6.074-7.023 2.643-1.652 5.702-2.478 9.176-2.478 5.003 0 9.025 1.317 12.064 3.95 3.04 2.634 4.768 6.264 5.183 10.89h-9.912c-.076-2.511-.708-4.314-1.898-5.41-1.189-1.094-3.001-1.642-5.437-1.642-2.473 0-4.286.925-5.438 2.775-1.151 1.85-1.755 4.805-1.812 8.865v2.917c0 4.399.552 7.542 1.657 9.43 1.104 1.888 3.006 2.832 5.706 2.832 2.285 0 4.031-.538 5.24-1.614 1.208-1.076 1.85-2.785 1.925-5.126h9.884zm30.887-27.272h9.94V261h-9.94v-25.998L289.613 261h-9.94v-41.234h9.94v26.026l14.812-26.026zm42.186 0h9.94V261h-9.94v-25.998L331.8 261h-9.94v-41.234h9.94v26.026l14.811-26.026zM3.115 329v-41.234h14.812c5.305 0 9.34.972 12.107 2.917 2.766 1.944 4.149 4.767 4.149 8.467 0 2.134-.491 3.956-1.473 5.466-.982 1.51-2.426 2.625-4.333 3.342 2.152.566 3.804 1.624 4.956 3.172 1.152 1.548 1.728 3.436 1.728 5.664 0 4.04-1.28 7.075-3.838 9.105-2.558 2.03-6.348 3.063-11.37 3.101H3.115zm9.94-17.53v9.884h6.514c1.794 0 3.172-.411 4.135-1.232.963-.822 1.444-1.978 1.444-3.47 0-3.436-1.708-5.163-5.126-5.182h-6.966zm0-6.514h5.183c2.172-.019 3.72-.415 4.645-1.19.925-.773 1.388-1.916 1.388-3.426 0-1.737-.5-2.988-1.501-3.753-1.001-.764-2.615-1.147-4.843-1.147h-4.871v9.516zm65.994-5.749c0-1.303-.505-2.35-1.515-3.144-1.01-.792-2.374-1.189-4.093-1.189-1.604 0-2.893.382-3.865 1.147-.973.765-1.459 1.77-1.459 3.016h-9.912c0-2.266.647-4.295 1.94-6.089 1.293-1.793 3.12-3.195 5.48-4.205 2.36-1.01 4.965-1.515 7.816-1.515 4.91 0 8.728 1.029 11.456 3.086 2.728 2.058 4.092 4.938 4.092 8.638 0 1.888-.552 3.611-1.656 5.169-1.105 1.557-2.63 2.79-4.574 3.695 2.228.793 3.932 1.997 5.112 3.611 1.18 1.615 1.77 3.62 1.77 6.018 0 3.7-1.473 6.641-4.418 8.822-2.946 2.18-6.873 3.271-11.782 3.271-4.55 0-8.326-1.071-11.328-3.214-3.002-2.143-4.503-5.065-4.503-8.765h9.97c0 1.227.547 2.26 1.642 3.1 1.095.84 2.501 1.26 4.22 1.26 1.85 0 3.35-.433 4.502-1.302 1.152-.868 1.728-2.001 1.728-3.398 0-2.04-.491-3.479-1.473-4.32-.982-.84-2.416-1.26-4.304-1.26h-5.296v-7.363h5.635c3.21-.094 4.815-1.784 4.815-5.069zm41.847 22.09h-13.623L104.895 329h-10.62l15.122-41.234h9.346L133.98 329h-10.676l-2.407-7.703zm-11.244-7.675h8.865l-4.447-14.302-4.418 14.302zM156.738 329v-14.472h-5.72L144.05 329h-10.79l8.468-17.842c-3.682-2.398-5.523-5.919-5.523-10.563 0-4.078 1.34-7.236 4.022-9.473 2.68-2.238 6.542-3.356 11.583-3.356h14.896V329h-9.969zm-10.62-27.527c0 2.095.425 3.615 1.275 4.56.85.943 2.275 1.415 4.276 1.415h5.07V295.44h-5.013c-1.983 0-3.413.515-4.29 1.544-.879 1.029-1.318 2.525-1.318 4.489zM174.173 329v-41.234h14.811c5.306 0 9.341.972 12.107 2.917 2.766 1.944 4.15 4.767 4.15 8.467 0 2.134-.492 3.956-1.473 5.466-.982 1.51-2.427 2.625-4.333 3.342 2.152.566 3.804 1.624 4.956 3.172 1.151 1.548 1.727 3.436 1.727 5.664 0 4.04-1.279 7.075-3.837 9.105-2.559 2.03-6.349 3.063-11.37 3.101h-16.738zm9.94-17.53v9.884h6.514c1.794 0 3.172-.411 4.135-1.232.963-.822 1.444-1.978 1.444-3.47 0-3.436-1.709-5.163-5.126-5.182h-6.967zm0-6.514h5.183c2.171-.019 3.72-.415 4.644-1.19.926-.773 1.388-1.916 1.388-3.426 0-1.737-.5-2.988-1.5-3.753-1.002-.764-2.616-1.147-4.844-1.147h-4.87v9.516zm44.056 7.731h-4.701V329h-9.94v-41.234h9.94v15.944h3.823l7.93-15.944h12.036l-11.328 19.03L248.673 329H236.92l-8.751-16.313zm40.94-7.023v.028l6.826-17.926h10.478l-13.877 32.71c-1.491 3.304-3.167 5.63-5.027 6.98-1.86 1.35-4.035 2.063-6.528 2.139h-2.01l-1.53-.057-.17-7.703c.227.075.888.113 1.983.113 1.51 0 2.648-.26 3.413-.779.764-.519 1.382-1.524 1.854-3.016l.482-1.36-14.897-29.027h10.564l8.44 17.898z" fill="currentColor" fill-rule="evenodd"></path></symbol><symbol viewBox="0 0 211 309" id="iconfinuniver-icon-1"><path d="M31.158 243.542l124.085 21.88a4 4 0 1 0 1.39-7.879l-124.086-21.88a4 4 0 1 0-1.39 7.879zm124.26-47.139a4 4 0 1 0 1.39-7.878l-100.82-17.777a4 4 0 1 0-1.39 7.878l100.82 17.777zm-5.76 51.787l8.364 1.475s-.449-3.126.94-11.004c1.39-7.879-10.402-18.793-10.402-18.793-1.494-1.556-2.716-4.62-2.639-6.836l.353-10.118-85.31-15.042-3.129 9.629c-.687 2.114-2.841 4.58-4.817 5.52 0 0-14.813 6.224-16.203 14.102-1.389 7.878-2.88 10.662-2.88 10.662l8.364 1.475c.78-2.622 1.775-7.226 2.402-10.74.453-1.067 2.329-2.881 5.122-4.711a44.75 44.75 0 0 1 4.442-2.54 34.56 34.56 0 0 1 1.852-.872c4.308-2.043 7.964-6.23 9.327-10.424l.98-3.015 71.613 12.627-.11 3.169c-.153 4.364 1.861 9.528 4.862 12.654l.337.33c.244.227.759.732 1.441 1.454a44.75 44.75 0 0 1 3.306 3.906c1.998 2.675 3.14 5.021 3.21 6.174-.62 3.52-1.261 8.187-1.424 10.918zM116.016 35.11l-.569 3.228-2.669 1.9c-.227.162-.676.485-1.315.953a279.572 279.572 0 0 0-3.59 2.671 271.975 271.975 0 0 0-11.002 8.747 175.982 175.982 0 0 0-5.068 4.422c-3.687 3.353-6.557 6.319-8.37 8.681-.816 1.065-1.184 1.746-1.184 1.746s3.882 6.31 6.635 8.734c1.38 1.216 1.544 1.145 1.544 1.145s6.158-6.712 9.505-7.974c2.24-.844 3.923-.99 6.603-.916 3.955.11 5.794-.24 11.07-2.962l8.162-4.214s11.43 24.313-3.678 41.966c-2.63 3.072-6.048 5.89-11.214 9.33-1.797 1.196-10.672 6.825-13.137 8.475-16.586 11.1-24.699 21.321-25.023 36.408 1.785.315 69.945 12.333 72.695 12.915 2.471-5.888 5.274-11.868 9.106-19.64-.46.932 4.236-8.55 5.437-11.02 1.96-4.033 3.513-7.364 4.899-10.552 8.104-18.636 10.814-33.84 8.058-53.046-2.01-14.001-7.908-25.352-16.73-34.474-4.994-5.164-10.624-9.297-15.243-12.268-.127 1.182-2.885 16.82-2.885 16.82L127.224 35.69l-9.68-9.245-1.529 8.666zm5.259 37.483c-2.747 1.418-7.545 2.659-7.545 2.659-9.706 3.171-9.75-2.955-18.5 8.996-5.266 7.195-18.693-7.358-21.182-15.92-2.488-8.563 34.09-34.606 34.09-34.606l4.168-23.636 13.55 13.135 6.937 6.725 2.084-11.818s39.682 13.147 45.952 56.843c6.27 43.696-15.685 66.283-30.387 104.308l-85.309-15.042c-4.687-41.444 39.214-52.195 50.81-66.119 7.439-8.933 6.219-23.008 5.332-25.525z" fill="currentColor"></path></symbol><symbol viewBox="0 0 249 259" id="iconfinuniver-icon-2"><g fill="currentColor"><path d="M188.448 25.372c-.462-6.61-6.218-11.6-12.82-11.139L39.982 23.718c-6.619.463-11.606 6.21-11.143 12.833l11.159 159.58c.77 11.024 10.338 19.332 21.373 18.56l139.606-9.762c11.026-.77 19.354-10.318 18.585-21.31l-9.21-131.712c-.463-6.62-6.196-11.6-12.828-11.137l-7.96.557-1.116-15.955zm-2.317 24.214l11.952-.835a4.003 4.003 0 0 1 4.289 3.714l9.21 131.712c.46 6.579-4.539 12.309-11.163 12.772L60.813 206.71c-6.63.464-12.372-4.523-12.835-11.139L36.82 35.993A4.018 4.018 0 0 1 40.54 31.7l135.646-9.486c2.199-.153 4.128 1.52 4.281 3.717l10.463 149.622c.4 5.736 3.162 11.464 7.143 13.118a4 4 0 0 0 3.07-7.388c-.03-.012-.526-.594-1.016-1.61-.653-1.353-1.103-3.053-1.217-4.678l-9.347-133.667-3.99.279a4 4 0 0 0-3.713 4.246c.17 2.239 2.075 3.888 4.271 3.734z"></path><path d="M62.991 66.217l91.776-6.418a4 4 0 1 0-.558-7.98l-91.776 6.417a4 4 0 1 0 .558 7.98zm1.396 19.951l67.834-4.743a4 4 0 1 0-.558-7.98l-67.835 4.743a4 4 0 1 0 .559 7.98zm1.395 19.951l83.795-5.86a4 4 0 1 0-.558-7.98l-83.795 5.86a4 4 0 1 0 .558 7.98zm2.79 39.903l35.912-2.511a4 4 0 1 0-.558-7.98l-35.912 2.51a4 4 0 1 0 .558 7.98z"></path></g></symbol><symbol viewBox="0 0 255 308" id="iconfinuniver-icon-3"><g fill="currentColor"><path d="M152.656 238.5l-1.551-14.672c-.077-.72-1.19-1.87-1.934-1.975l-83.154-11.686c-.769-.108-2.123.672-2.403 1.365l-5.536 13.676 94.578 13.292zm-96.458-29.97c1.654-4.087 6.52-6.906 10.932-6.286l83.154 11.687c4.383.616 8.314 4.688 8.776 9.056l2.63 24.861-114.872-16.144 9.38-23.174zm-19.529 37.905l130.716 18.371a4 4 0 1 0 1.113-7.922L37.783 238.513a4 4 0 1 0-1.114 7.922z"></path><path d="M93.407 206.947s1.324-1.262 2-1.94c2.297-2.308 4.434-5.619 6.046-7.959 2.19-3.177 3.635-6.32 5.488-19.503l3.062-21.786 11.883 1.67-3.062 21.786c-1.853 13.184-1.33 16.602-.101 20.26.904 2.694 2.046 6.465 3.619 9.317a81.08 81.08 0 0 0 1.387 2.417l10.586 1.487s-10.352-12.563-8.96-22.465l4.453-31.689-27.728-3.897-4.453 31.689c-1.392 9.902-14.805 19.125-14.806 19.125l10.586 1.488z"></path><path d="M115.944 156.594c5.47.768 10.526-3.042 11.295-8.511.768-5.47-3.042-10.526-8.511-11.295-5.47-.768-10.526 3.042-11.295 8.511-.768 5.47 3.042 10.526 8.511 11.295zm-1.113 7.922c-9.845-1.384-16.703-10.486-15.32-20.33 1.384-9.844 10.486-16.703 20.33-15.32 9.844 1.384 16.703 10.486 15.32 20.33-1.384 9.845-10.486 16.703-20.33 15.32z"></path><path d="M78.745 22.108c.235.695.465 1.427.688 2.197 1.944 6.72 2.612 14.231 1.472 22.341l-2.227 15.845c-2.944 20.947 2.1 37.441 13.011 49.695 8.28 9.298 19.782 15.504 28.152 16.68 8.37 1.177 21.137-1.619 31.659-8.274 13.867-8.771 23.261-23.237 26.205-44.183l2.227-15.846c1.14-8.11 3.852-15.145 7.573-21.07.426-.678.85-1.319 1.267-1.922L78.745 22.108zm-9.904-2.684c-1.816-4.003.278-6.748 4.664-6.131l122.734 17.249c4.391.617 5.551 3.764 2.793 7.18 0 0-8.948 8.087-11.178 23.955l-2.227 15.845c-7.237 51.494-50.065 61.632-66.9 59.266-16.834-2.366-55.208-23.916-47.971-75.41l2.227-15.845c2.23-15.868-4.142-26.109-4.142-26.109z"></path><path d="M72.392 102.001c-14.01-1.969-29.447-15.155-33.583-28.667l-1.078-3.522C34.248 58.43 40.31 50.214 52.213 50.187l25.306-.058-.019-8-25.306.058c-17.279.04-27.166 13.455-22.113 29.966l1.079 3.523c5.04 16.468 23.014 31.843 40.118 34.247l12.603 1.771-.75-8.184-10.74-1.509zm109.835-37.156l24.31 7.03c11.435 3.308 14.996 12.877 8.51 22.857l-2.007 3.089c-7.699 11.848-26.173 20.269-40.183 18.3l-10.738-1.51-2.978 7.66 12.603 1.772c17.104 2.404 38.62-7.422 48.004-21.863l2.008-3.089c9.408-14.478 3.602-30.1-12.997-34.9l-24.31-7.03-2.222 7.684z"></path></g></symbol><symbol viewBox="0 0 211 309" id="iconfinuniver-icon-filter"></symbol></svg>