<svg viewBox="0 0 150 100" xmlns="http://www.w3.org/2000/svg" xmlns:xlink="http://www.w3.org/1999/xlink"><g fill="#000" fill-rule="evenodd"><path d="m83.21 55.96c3.408 0 5.445-2.999 5.445-7.892 0-4.999-2.037-7.891-5.445-7.891-3.337 0-5.481 2.892-5.481 7.891 0 4.893 2.144 7.892 5.481 7.892m9.486 10.927c-.211.178-.455.142-.632-.073l-1.685-2.285c-1.546-2.107-3.514-3.427-7.168-3.427-6.886 0-11.207-5.04-11.207-13.03 0-8.03 4.321-13.07 11.207-13.07 6.886 0 11.173 5.03 11.173 13.07 0 4.072-1.406 8.213-3.76 9.643-.422.249-.422.356 0 .499 2.038.749 2.987 1.642 4.076 3.07l1.581 2.178c.176.216.14.465-.071.644l-3.514 2.786m57.31-6.642c0 .285-.176.463-.457.463h-4.777c-.28 0-.457-.178-.457-.463v-24.388c0-.285.177-.465.457-.465h4.777c.281 0 .457.18.457.465v24.388m-18.989-7.885l4.056-16.575c.07-.25.245-.392.527-.392h4.847c.316 0 .493.214.388.499 0 0-5.375 21.92-5.939 24.389-.063.279-.211.427-.491.427h-6.429c-.282 0-.457-.142-.493-.427-.386-2.072-.773-3.963-1.266-5.928l-1.088-4.641c-.211-.93-.492-2.428-.703-3.678-.07-.501-.491-.501-.563 0-.21 1.25-.492 2.714-.702 3.678l-1.089 4.641c-.457 1.965-.844 3.856-1.266 5.928-.036.285-.211.427-.491.427h-6.431c-.28 0-.422-.149-.491-.427-.622-2.469-5.938-24.389-5.938-24.389-.105-.285.071-.499.386-.499h4.849c.281 0 .456.142.528.392l4.01 16.575 4.418-16.575c.071-.25.247-.392.492-.392h4c.247 0 .422.142.493.392l4.376 16.575m-27.04 7.885c0 .285-.176.463-.457.463h-4.777c-.282 0-.457-.178-.457-.463v-24.388c0-.285.175-.465.457-.465h4.777c.281 0 .457.18.457.465v24.388"/><path d="m62.808 81.892c-5.795-7.279-10.76-9.277-15.345-10.518-.645-.174-1.283-.335-1.915-.493-.083-.02-.164-.041-.246-.061-3.857-.96-7.485-1.893-11.173-5.686-.051-.051-.102-.102-.152-.155-1.01-1.058-2.02-2.333-3.041-3.881-.276-.416-.55-.849-.826-1.307-.782-1.293-.72 1.913-.422 5.771.005.063.01.127.015.19-.245.008-.491.016-.739.016-5.186 0-9.522-1.84-13.257-5.625-3.735-3.785-5.55-8.285-5.55-13.758 0-5.483 1.764-10 5.398-13.813 3.613-3.794 8-5.637 13.409-5.637 5.282 0 9.676 1.84 13.436 5.628 3.755 3.785 5.581 8.343 5.581 13.931 0 .719-.031 1.418-.091 2.101-.062-.004-.124-.008-.186-.011-3.214-.207-6.01-.163-6.204.031-.467.47.824.402 1.402.56.944.258 1.822.571 2.636.935.637.285 1.235.602 1.794.951.056.035.114.07.169.107 3.415 2.196 5.353 5.598 5.979 10.08.024.179.132.423.323.102 1.79-3.045 2.752-5.418 3.269-7.092l.024.013c.086-.315.166-.634.241-.951.1-.398.172-.74.222-1.021.383-1.941.578-3.938.578-5.98 0-5.294-1.306-10.27-3.886-14.786-2.582-4.523-6.177-8.115-10.688-10.68-4.497-2.557-9.48-3.853-14.811-3.853-5.106 0-9.944 1.311-14.376 3.901-4.435 2.589-7.978 6.206-10.534 10.75-2.551 4.535-3.843 9.519-3.843 14.809 0 5.295 1.294 10.256 3.849 14.746 2.558 4.5 6.144 8.08 10.655 10.647 4.493 2.557 9.417 3.853 14.635 3.853 1.109 0 2.201-.063 3.28-.18.273-.021.547-.043.819-.065.623-.05 1.238-.104 1.85-.159 3.057-.274 5.984-.559 8.927-.435 5.545.235 11.153 1.93 17.819 7.915.668.599 1.563-.151.974-.89m-19.04-18.644c-.581 0-1.065.206-1.363.578-.764.954-.421 2.632.749 3.667.51.452 1.244.721 1.966.721.734 0 1.348-.279 1.726-.785.68-.924.288-2.233-.998-3.335-.635-.545-1.375-.846-2.08-.846m6.406-4.791c-.568-.169-.993-.044-1.203.346-.317.587-.084 1.75.557 2.763.65 1.025 1.2 1.547 1.639 1.547.151 0 .286-.065.389-.187.245-.283.325-.877.224-1.629-.104-.767-.569-2.347-1.606-2.84"/></g></svg>