<svg viewBox="0 0 212 100" xmlns="http://www.w3.org/2000/svg" xmlns:xlink="http://www.w3.org/1999/xlink"><g fill="#000" fill-rule="evenodd" transform="translate(0 30)"><path d="m31.776 29.397c-1.297 0-2.349-1.061-2.349-2.368 0-1.308 1.052-2.363 2.349-2.363 1.3 0 2.347 1.055 2.347 2.363 0 1.306-1.048 2.368-2.347 2.368m-5.511 0c-1.3 0-2.355-1.061-2.355-2.368 0-1.308 1.055-2.363 2.355-2.363 1.3 0 2.352 1.055 2.352 2.363 0 1.306-1.052 2.368-2.352 2.368m-5.514 0c-1.297 0-2.349-1.061-2.349-2.368 0-1.308 1.052-2.363 2.349-2.363 1.298 0 2.352 1.055 2.352 2.363 0 1.306-1.054 2.368-2.352 2.368m.384-29.11v18.788.731.011l-.006.001c-.005.848-.692 1.531-1.534 1.531h-.722-1.593c-.113 0-.207.095-.207.209v16.363c.572.054 1.153.083 1.737.083 10.391 0 18.815-8.476 18.815-18.929 0-9.662-7.196-17.632-16.491-18.788m-5.929 15.47c-1.301 0-2.351-1.063-2.351-2.366 0-1.306 1.049-2.368 2.351-2.368 1.297 0 2.352 1.061 2.352 2.368 0 1.303-1.055 2.366-2.352 2.366m3.604-15.612c-10.388 0-18.809 8.473-18.809 18.929 0 9.07 6.34 16.649 14.809 18.499v-16.986h.003c.018-.823.668-1.48 1.475-1.512h.003.781 1.592c.115 0 .2-.089.207-.2v-18.725h.263c-.109-.003-.217-.005-.324-.005"/><path d="m206.95 10.551v7.142h-9.53v-7.142h-4.7v18.859h4.7v-7.623h9.53v7.623h4.7v-18.859z"/><path d="m121.58 21.653l2.892-6.851c.089-.211.26-.266.384-.266h.003c.124 0 .292.055.381.266l2.894 6.851h-6.553m7.134-9c-.785-1.713-2.344-2.549-3.855-2.549h-.003c-1.508 0-3.072.837-3.857 2.549l-7.683 16.758h4.996l1.676-3.983h9.738l1.673 3.983h4.996l-7.681-16.758"/><path d="m72.821 7.136c-2.201 0-3.606 1.175-4.646 3.554l-6.129 14.188-6.124-14.188c-1.037-2.379-2.445-3.554-4.643-3.554-2.06 0-4.185 1.479-4.185 4.703v17.571h4.69v-17.09l6.161 14.08c.832 1.963 2.164 3.2 4.101 3.203 1.941-.003 3.271-1.24 4.105-3.203l6.161-14.08v17.09h4.693v-17.571c0-3.225-2.129-4.703-4.184-4.703"/><path d="m85.23 25.426c-.223 0-.404-.191-.404-.411v-3.362h11.709v-2.138-1.706h-11.709v-2.863c0-.223.18-.409.4-.409h11.586v-3.985h-13.894c-1.626 0-2.797 1.368-2.797 2.811v6.584 6.651c0 1.445 1.171 2.813 2.797 2.813h13.894v-3.984h-11.582"/><path d="m104.79 29.409v-14.463c0-.224.177-.411.402-.411h11.582v-3.985h-13.891c-1.627 0-2.796 1.368-2.796 2.811v16.05h4.702"/><path d="m179.6 25.692h-1.502c-3.923 0-5.432-1.777-5.432-5.728v-.017c0-3.831 1.328-5.713 5.432-5.713h1.502c3.987 0 5.43 1.882 5.43 5.713v.017c0 3.951-1.541 5.728-5.43 5.728m10.01-5.745c-.003-6.605-2.826-9.681-9.937-9.681h-1.645c-7.114 0-9.934 3.075-9.937 9.681v.011c0 6.499 2.882 9.635 9.976 9.635h1.563c7.097 0 9.98-3.136 9.98-9.635v-.011"/><path d="m159.86 19.946c-.7 1.871-1.847 3.065-5.02 3.065h-2.153v-11.458h2.889c2.71 0 4.559 1.702 4.559 5.727 0 1.034 0 1.948-.27 2.666m-11.864 3.065h-2.15c-3.181 0-4.328-1.194-5.03-3.065-.269-.718-.266-1.633-.266-2.666 0-4.02 1.846-5.727 4.556-5.727h2.889v11.458m6.996-15.431h-9.307c-6.943 0-9.715 3.533-9.715 9.692 0 .965.06 1.856.197 2.674.732 4.362 3.285 7.05 9.779 7.05h2.049v2.416h4.687v-2.416h2.044c6.499 0 9.05-2.685 9.789-7.05.133-.818.186-1.709.186-2.674 0-6.159-2.772-9.692-9.71-9.692"/></g></svg>