<svg viewBox="0 0 180 100" xmlns="http://www.w3.org/2000/svg" xmlns:xlink="http://www.w3.org/1999/xlink"><g fill="#000" fill-rule="evenodd" transform="translate(0 22)"><path d="m7.351 54.12c4.889-5.671 12.13-9.262 20.2-9.262 8.07 0 15.3 3.586 20.19 9.249-1.689-.234-7.07-.793-20.17-.793-13.468 0-18.675.58-20.21.805" transform="matrix(1 0 0-1 0 98.99)"/><path d="m53.54 20.823c.437 1.911.663 3.898.663 5.942 0 2.326-.296 4.584-.855 6.736-2.64.06-10.94.228-25.668.228-14.886 0-23.328-.17-25.918-.236-.563-2.145-.86-4.403-.86-6.729 0-2.069.237-4.083.683-6.01 3.164-.051 15.615-.241 26.324-.241 10.864 0 22.851.256 25.633.314" transform="matrix(1 0 0-1 0 54.24)"/><path d="m47.51.834c-4.881 5.518-12.02 8.998-19.961 8.998-7.957 0-15.1-3.487-19.981-9.01 1.799.243 7.167.773 19.932.773 12.681 0 18.1-.51 20.01-.76" transform="matrix(1 0 0-1 0 10.652)"/><path d="m54.19 27.47c0-14.714-11.927-26.642-26.639-26.642-14.72 0-26.648 11.928-26.648 26.642 0 14.717 11.928 26.645 26.648 26.645 14.713 0 26.639-11.928 26.639-26.645m-26.639 27.403c-15.14 0-27.405-12.268-27.405-27.402 0-15.13 12.267-27.401 27.405-27.401 15.13 0 27.396 12.267 27.396 27.401 0 15.13-12.264 27.402-27.396 27.402" transform="matrix(1 0 0-1 0 54.945)"/><path d="m130.88 16.939c0-1.105.867-1.974 1.976-1.974 1.105 0 1.975.868 1.975 1.974 0 1.108-.87 1.976-1.975 1.976-1.11 0-1.976-.868-1.976-1.976" transform="matrix(1 0 0-1 0 33.88)"/><path d="m141.24 38.547l-.126-.076-.256.714c-.083.236-.31.397-.563.397h-1.272c-.33 0-.6-.27-.6-.6v-16.328c0-.33.27-.595.6-.595h2.285c.333 0 .6.266.6.595v13.215l.064.031c.937.486 1.892.787 3.744.787 2.223 0 2.668-.834 2.668-2.178v-11.855c0-.33.27-.595.6-.595h2.285c.33 0 .6.266.6.595v11.755c0 3.599-2.126 5.496-6.152 5.496-1.491 0-3-.457-4.477-1.359" transform="matrix(1 0 0-1 0 61.966)"/><path d="m134.56 39.31c0 .33-.268.6-.597.6h-2.221c-.33 0-.6-.27-.6-.6v-16.328c0-.33.27-.595.6-.595h2.218c.331 0 .6.266.6.595v16.328" transform="matrix(1 0 0-1 0 62.29)"/><path d="m126.96 39.31c0 .33-.266.598-.597.598h-2.219c-.331 0-.6-.268-.6-.598v-24.493c0-.33.268-.595.598-.595h2.221c.33 0 .597.266.597.595v24.493" transform="matrix(1 0 0-1 0 54.13)"/><path d="m89.2 31.15c0-2.248 0-9.09 7.456-9.09 2.235 0 3.707.133 5.632.751.226.07.354.306.354.544v1.836c0 .204-.1.39-.27.5-.166.111-.363.094-.561.05-1.674-.351-3-.463-5.155-.463-3.103-.001-3.711 1.968-3.908 4.096l-.011.13h10.126c.33 0 .598.267.598.595v1.047c0 4.398-.526 9.09-6.804 9.09-7.456 0-7.456-6.84-7.456-9.09m3.537 1.542c.167 2.248.758 4.327 3.918 4.327 2.715 0 3.244-1.459 3.306-4.333l.003-.121h-7.237l.01.127" transform="matrix(1 0 0-1 0 62.29)"/><path d="m106.15 31.15c0-2.248 0-9.09 7.457-9.09 2.233 0 3.704.133 5.632.751.223.07.353.306.353.544v1.836c0 .204-.101.39-.27.5-.167.111-.366.094-.56.05-1.675-.351-3-.463-5.155-.463-3.106 0-3.714 1.968-3.911 4.096l-.011.13h10.126c.33 0 .597.267.597.595v1.047c0 4.398-.526 9.09-6.8 9.09-7.457 0-7.457-6.84-7.457-9.09m3.534 1.542c.17 2.248.76 4.327 3.923 4.327 2.712 0 3.242-1.459 3.302-4.333l.003-.121h-7.236l.009.127" transform="matrix(1 0 0-1 0 62.29)"/><path d="m154.87 31.15c0-2.248 0-9.09 7.457-9.09 2.232 0 3.703.133 5.631.751.221.07.354.306.354.544v1.836c0 .204-.103.39-.271.5-.166.111-.364.094-.561.05-1.672-.351-3-.463-5.152-.463-3.106 0-3.716 1.968-3.91 4.096l-.016.13h10.13c.327 0 .595.267.595.595v1.047c0 4.398-.524 9.09-6.8 9.09-7.46 0-7.457-6.84-7.457-9.09m3.534 1.542c.169 2.248.76 4.327 3.923 4.327 2.713 0 3.24-1.459 3.302-4.333l.003-.121h-7.239l.011.127" transform="matrix(1 0 0-1 0 62.29)"/><path d="m69.992 39.91c-.353 0-.641-.287-.641-.641v-24.493c0-.356.288-.644.641-.644h7.971c5.701 0 8.841 2.676 8.841 7.533 0 2.645-1.274 4.898-3.41 6.03 0 0-.053.03-.103.057.043.031.097.067.097.067 1.649 1.201 2.598 3.02 2.598 4.985 0 2.653-1.071 7.107-8.254 7.107h-7.74m7.904-3.439c3.711 0 4.223-1.765 4.223-3.669 0-2.426-1.294-3.604-3.961-3.604h-5.202v7.273h4.941m.261-10.714c3.529 0 4.778-1.071 4.778-4.093 0-2.023-.574-4.093-4.844-4.093h-5.137v8.185h5.202" transform="matrix(1 0 0-1 0 54.04)"/><path d="m172.49 26.22c-.036 0-.063-.029-.063-.061v-.536c0-.034.027-.061.063-.061h1v-3.426c0-.033.027-.06.06-.06h.563c.034 0 .061.027.061.06v3.426h1c.036 0 .061.027.061.061v.536c0 .033-.026.061-.061.061h-2.685" transform="matrix(1 0 0-1 0 48.3)"/><path d="m178.89 26.22c-.024 0-.046-.016-.056-.036 0 0-1.024-2.39-1.124-2.628-.101.237-1.124 2.628-1.124 2.628-.011.02-.033.036-.057.036h-.68c-.036 0-.063-.029-.063-.061v-4.02c0-.033.027-.06.063-.06h.551c.016 0 .031.006.044.019.01.01.017.026.017.041 0 .001-.021 2.339-.026 2.829.19-.438 1-2.315 1-2.315.009-.023.031-.036.054-.036h.428c.026 0 .047.013.057.036 0 0 .811 1.876 1 2.315-.004-.49-.023-2.827-.023-2.829 0-.016.006-.031.016-.041.011-.013.027-.019.044-.019h.553c.031 0 .06.027.06.06v4.02c0 .033-.029.061-.06.061h-.681" transform="matrix(1 0 0-1 0 48.3)"/></g></svg>