<svg viewBox="0 0 180 100" xmlns="http://www.w3.org/2000/svg" xmlns:xlink="http://www.w3.org/1999/xlink"><g fill="#000" fill-rule="evenodd" transform="translate(0 29)"><path d="m85.46 18.636c-.597.695-2.154 1.889-3.216 2.585.365 2.386.962 4.674 1.492 6.264.597 1.824 1.658 3.779.762 4.375 0 0-1.06.698-3.049.698-2.253 0-3.315-7.89-3.315-10.144h-.364c-.366 2.02-1.989 7.69-2.818 9.579 0 .099-.597.464-.961.464-.829 0-3.182-2.619-3.182-3.68 0-.696.464-1.889.928-3.512.498-1.89 5.104-14.884 5.437-15.12.365-.364.729-.828 1.293-.828.73 0 2.983 1.292 2.983 2.353 0 .465-.497 1.526-.73 2.487-.364 1.061-.927 2.718-1.292 3.547 2.485-1.062 6.364-7.923 6.862-8.288.33-.331.695-.331 1.059-.232 1.062.597 1.757 2.95 1.757 3.68 0 2.121-2.485 4.707-3.645 5.768"/><path d="m159.62 18.636c-.564.596-2.221 1.889-3.182 2.585.363 2.386.894 4.607 1.359 6.233.165.696 1.724 3.811.894 4.407 0 0-1.06.698-3.082.698-2.221 0-3.281-7.89-3.281-10.144h-.365c-.365 2.02-2.022 7.69-2.85 9.579-.134.331-.431.497-.929.464-.829 0-3.182-2.619-3.182-3.68 0-.696.464-1.988.928-3.512.365-1.89 5.205-14.785 5.437-15.12.828-1.557 4.01 0 4.144 1.525.099.465-.365 1.659-.597 2.487-.365 1.061-.962 2.718-1.294 3.547 2.487-1.062 6.365-7.923 6.829-8.288.365-.331.962-.331 1.325 0 .796.729 1.525 2.718 1.525 3.448 0 2.121-2.618 4.707-3.679 5.768"/><path d="m73.03 14.161c-1.658 6.264-9.911 20.519-14.387 25.26-.596.596-2.121 1.756-2.718 1.756-1.557 0-2.485-4.11-1.79-4.708 2.62-2.584 3.781-4.01 6.266-7.324-1.89-.598-2.818-.696-2.818-3.083 0-4.343.664-9.879 1.393-14.02.233-1.194 1.061-2.42 1.426-2.487.231-.066.563-.032.861.034 1.36.365 3.282 1.591 3.282 2.553 0 .364-.564 4.209-.73 5.8-.067.83-.796 6.828-.796 7.193 2.818-5.304 4.243-10.739 6.232-15.347.134-.233.73-.597.961-.597 1.294 0 3.183 2.619 3.05 3.546 0 .465-.099.929-.232 1.427"/><path d="m147.46 14.161c-1.657 6.264-9.911 20.519-14.518 25.26-.598.596-1.989 1.756-2.585 1.756-1.659 0-2.486-4.11-1.89-4.708 2.587-2.584 3.878-4.01 6.365-7.324-1.89-.598-2.817-.696-2.817-3.083 0-4.343.563-9.912 1.293-14.02.233-1.194.697-2.254 1.427-2.487 1.292-.231 4.241 1.658 4.241 2.586 0 .364-.73 4.243-.828 5.8 0 .83-.729 6.828-.729 7.193 2.85-5.304 4.275-10.739 6.265-15.347.131-.233.596-.597.961-.597 1.16 0 3.181 2.619 3.048 3.546 0 .465-.099.929-.232 1.427"/><path d="m126.1 16.515c-.065 1.194-1.425 4.375-2.584 6.03-.1.1-.133.198-.266.332-.497.597-1.26 1.193-2.221 1.658.132-.962.928-4.376 2.486-8.52.166-.398 1.524-.465 1.889-.465.597.067.73.366.696.963m-1.425-6.496v-1.294c0-.365-.598-.962-1.16-1.325-.399-.266-.796-.564-1.195-.795-.296-.167-.629-.232-.961-.366-.962.1-1.326 1.988-1.392 2.585-.1.63-.232 1.789-.232 1.789-.73.1-1.658.53-1.89.929-.266.398-.498.73-.564 1.359-.165 1.592.199 3.745.662 4.209-1.159 4.475-5.236 14.387-6.263 18.298-.233.894-.199 1.16.497 1.89.796.828 2.353 1.989 2.817 1.989.697 0 1.161-.598 1.293-.927.663-1.791 2.154-6.03 2.95-8.255 0 .463 1.194 1.225 1.658 1.225.597 0 1.657-.397 2.619-1.126.398-.298.795-.696 1.16-1.06 3.547-3.647 6.365-7.923 6.365-13.691 0-3.082-2.686-7.193-6.365-5.436"/><path d="m31.644 18.404c1.293.695 1.989 2.121 1.989 3.646 0 3.216-2.486 6.862-4.939 8.518-.497.366-1.89.697-2.85.697-1.426 0-3.547-1.061-4.475-2.121-.597-.598-1.061-1.99-1.061-2.587 0-.364.266-.861.762-1.49.464-.598.994-1.227 1.359-1.227.331 0 .695.101.928.332.231.265.762.795.962.961l.696.598c.332.265.596.331.596.331 1.658 0 2.951-2.121 2.951-3.514 0-.597-.232-1.194-.962-1.194-.696 0-2.353 1.062-3.414 1.062-1.062 0-1.16-3.413-.829-3.646 0 0 .265-.166.63-.399.531-.265 1.26-.662 1.857-.928 2.353-.928 3.414-2.685 2.718-3.281-1.061-1.061-3.082 2.121-4.376 2.121-.829 0-.696-1.788-.696-2.121 0-1.789 2.718-4.243 4.01-4.509 2.585-.464 3.878-.696 5.768 1.326.596.563.962 1.989.962 2.95 0 2.95-1.659 3.878-2.586 4.475"/><path d="m173.9 31.63c0 0-.596 1.194-1.293 1.194-.596-.034-2.121-.597-2.718-.963-.928-.364-1.06-2.02-.596-2.716-2.222 1.657-3.878 2.485-4.94 2.485-2.353-.133-2.948-4.243-2.85-6.03.231-3.546 4.509-16.408 6.729-16.408.828 0 3.315 1.293 3.181 2.718l-1.06 2.121c-.232 1.194-5.669 12.862-3.282 12.298.696-.133 1.293-.73 2.586-1.558.696-2.717 1.492-5.336 2.121-7.06.431-1.128 2.353-6.398 3.911-7.69.465-.366.929-.366 1.393 0 1.194.595 2.486 2.584 2.154 3.414-2.982 6.927-4.805 10.209-5.336 18.2"/><path d="m24.515 7.531c-2.485 3.448-6.861 14.651-7.69 24.1-.099.597-.828 1.194-1.657 1.194-.464-.034-2.454-1.789-2.818-2.022-1.757-1.758-.232-7.424 1.293-11.337-3.182 2.254-7.789 11.967-9.679 12.03-1.061.066-2.651-1.491-3.182-2.287-.199-.266-.266-.531-.233-.663 1.161-6.596 5.768-19.822 8.619-26.916 0 0 .597-1.061 1.061-1.061.928 0 3.481 2.851 3.414 3.415.034.529-.033 1.027-.166 1.491-.133.464-.298.961-.431 1.293-1.225 3.281-2.585 6.895-3.878 10.111 3.878-5.337 8.486-10.275 12.994-14.784.232-.1.83-.1 1.061.132.929.597 2.122 3.314 2.122 3.647 0 .498-.83 1.657-.83 1.657"/><path d="m104.07 16.846l-2.816 1.689c.629-1.358 1.226-2.187 1.757-2.816.364-.399 1.06-1.294 1.789-1.326.563-.034.696.365.696.829 0 .762-.596 1.16-1.426 1.624m-3.646 9.216c-.232.365-.596.596-.929.829-.828.265-1.789 0-1.789-1.16 0-1.194.232-2.353.829-3.315.166.232.696.728.961.828.333.134.929.134 1.393 0 .366 1.061.232 1.89-.464 2.818m10.144-11.568c-.331-3.78-3.646-5.172-6.497-5.172-.132-.597-.199-1.095-.696-1.889-.066-.167-.232-.234-.364-.499-1.294-1.06-2.52-.63-3.515.265-.131.067-.597.697-.928 1.326-.331.597-.661 1.789-.728 1.956-1.062 0-2.486.829-2.851 1.658-.697 1.658.132 3.315-.332 5.205-1.325 4.144-3.547 8.02-1.658 12.03 1.16 2.619 3.282 3.779 6 3.779 1.723 0 3.049-.365 4.375-1.525 2.585-2.353 3.547-6.728 2.718-10.143 2.584-1.659 4.741-4.045 4.475-6.994"/><path d="m49.02 22.547c-.099.132-.265.332-.399.465-.662.695-1.26 1.16-2.188 1.525 0-.697.928-4.376 2.453-8.486.134-.366 1.426-.499 1.89-.499.597 0 .73.266.73.963 0 1.061-1.392 4.375-2.485 6.03m1.061-12.529c.099-.631.099-.995 0-1.294-.1-.398-.696-.962-1.061-1.292-.233-.234-.896-.697-.896-.697-.33-.099-1.125-.498-1.358-.498-.928 0-1.293 1.923-1.392 2.585-.167.895-.266 1.789-.266 1.789-.63.233-1.392.499-1.89.929-.398.398-.563 1.193-.563 1.326 0 1.89.795 3.579.696 4.242-.662 4.641-5.237 14.487-6.265 18.429-.099.366-.166.631-.198.896 0 .066.099.398.398.663.829.861 2.585 2.188 3.116 2.188.696 0 1.093-.498 1.293-.927.762-1.726 1.923-5.371 2.95-8.255 0 .463 1.194 1.259 1.658 1.259.697 0 1.691-.399 2.718-1.16.398-.298.795-.696 1.16-1.06 3.645-3.78 6.264-7.923 6.264-13.691 0-3.082-2.719-7.193-6.364-5.436"/></g></svg>