<svg viewBox="0 0 110 100" xmlns="http://www.w3.org/2000/svg" xmlns:xlink="http://www.w3.org/1999/xlink"><g fill="none" fill-rule="evenodd"><path d="m44.19 32.57l-7.093 1.022v32.767h7.093v-33.789m31.28 10.355l-7.803.684v8.383l7.803-.435v-8.632m4.098-15.443l-11.902 1.708v8.228l11.902-1.334v-8.602m30.433 38.877v-9.555l-27.794.861.003 8.695h27.791m-10.615-31.24c.953 2.02-.029 5.05-2.355 7.852-3.593 4.323-13.13 13.184-13.13 13.184l13.701-.46c8.372-8.356 11.381-13.429 11.916-19.758.286-3.355-.903-6.578-3.265-8.857-2.582-2.495-6.363-3.514-10.503-2.906v9.127c1.673-.097 3.037.542 3.641 1.816m-64.67-1.184l-8.993 1.295v6.914l8.993-1.01v-7.198m56.46 7.39c-.39-5.592 1.286-6.919 2.979-7.652l-.006-9.294c-8.07 1.753-12.03 7.821-11.578 17.725l8.605-.779m-11.604 16.427l-11.902.369v8.242h11.902v-8.611m-23.751.737l-10.303.318v7.555h10.303v-7.873m-24.19-11.714l-5.905.518v7.04l5.905-.327v-7.235m-7.07-11.385l-6.228.897v30.07h6.228v-30.972m33.421 30.972h8.171v-36.95l-8.171 1.172v35.778m-23.264-7.225l-8.993.279v6.947h8.993v-7.225m-23.647 7.225v-21.572l-5.909.615v20.957h5.909m5.081-29.76l-16.15 2.315v6.12l16.15-1.817v-6.618" fill="#000"/></g></svg>