<svg viewBox="0 0 240 100" xmlns="http://www.w3.org/2000/svg" xmlns:xlink="http://www.w3.org/1999/xlink"><g fill="#000" fill-rule="evenodd" transform="translate(0 10)"><path d="m41.25 26.588h11.434 7.169c2.134 7.565 3.701 23.794 5.959 48.32-2.773-7.679-9.148-16.288-9.148-16.288 0 0-5.971-22.333-15.414-32.04" transform="matrix(1 0 0-1 0 101.5)"/><path d="m71.58 74.912c.006-4.486-1.929-15.988-3.559-19.934l-3.267-54.72h2.249 4.688l-.111 74.65" transform="matrix(1 0 0-1 0 75.17)"/><path d="m89.3 30.95c.464-.254 1.096-.38 1.896-.38.106 0 .202.005.286.015.085.011.144.019.178.026.831.045 1.482.441 1.952 1.19.471.749.706 1.655.706 2.72v.169c-.017.697-.086 1.262-.209 1.692-.122.432-.323.791-.603 1.08-.279.289-.671.542-1.172.757-.433.14-.869.211-1.309.211-.735 0-1.31-.168-1.726-.503v-6.978m-2.112 6.931c-.412.339-1 .508-1.772.508-.412 0-.835-.07-1.268-.21-.735-.312-1.245-.725-1.528-1.239-.284-.515-.435-1.279-.456-2.292 0-.017-.007-.046-.021-.087-.013-.04-.02-.068-.02-.082 0-.681.106-1.314.319-1.901.213-.587.525-1.062.935-1.426.41-.364.892-.558 1.445-.582.028-.007.078-.016.152-.026.074-.011.164-.015.27-.015.828 0 1.476.125 1.943.374v6.978m-2.113 3.197h6.333v-.672c-.495-.028-.861-.059-1.098-.095-.237-.036-.465-.13-.683-.285-.218-.154-.327-.391-.327-.713v-.59c.392.222.825.369 1.301.441.476.072.829.108 1.059.108.635 0 1.237-.111 1.806-.333.568-.223 1.063-.534 1.484-.937.421-.402.751-.882.992-1.439.241-.557.361-1.155.361-1.791 0-.879-.193-1.706-.579-2.481-.386-.774-.939-1.395-1.659-1.862-.72-.467-1.562-.701-2.528-.701l-.041.041c-.333 0-.736.04-1.211.121-.474.08-.802.18-.984.301v-.795c0-.513.077-.887.232-1.121.155-.235.365-.382.631-.442.266-.06.681-.1 1.245-.121v-.672h-6.333v.672c.577.021.998.061 1.262.121.265.06.472.206.624.439.151.233.227.607.227 1.124v.754c-.182-.117-.509-.216-.982-.298-.472-.083-.876-.124-1.214-.124l-.082-.04c-.962 0-1.801.233-2.519.7-.718.467-1.265 1.087-1.644 1.86-.378.773-.566 1.601-.566 2.483 0 .852.206 1.621.621 2.307.414.685.977 1.222 1.69 1.609.713.386 1.49.579 2.331.579.931 0 1.719-.182 2.365-.544 0 .017-.005.039-.016.066-.01.028-.019.049-.025.062-.017.67-.184 1.098-.5 1.282-.316.185-.839.289-1.572.313v.672" transform="matrix(1 0 0-1 0 68.12)"/><path d="m107.99 37.34l-7-7.984c0-.513.077-.887.232-1.121.154-.234.365-.381.631-.441.266-.06.681-.1 1.244-.121v-.672h-6.332v.672c.578.021.998.061 1.262.121.265.06.472.206.624.439.151.233.226.607.226 1.124v9.328c0 .513-.078.887-.234 1.121-.156.234-.368.381-.634.441-.266.06-.681.1-1.245.121v.672h6.332v-.672c-.704 0-1.252-.097-1.644-.292-.199-.107-.326-.275-.381-.506-.055-.231-.082-.526-.082-.885v-8.07l7 8.07c0 .482-.077.842-.232 1.08-.155.238-.373.394-.654.467-.282.074-.689.119-1.222.136v.672h6.333v-.672c-.739 0-1.288-.097-1.649-.292-.199-.107-.326-.275-.381-.506-.055-.231-.082-.526-.082-.885v-9.328c0-.53.082-.913.248-1.149.165-.236.376-.378.634-.428.258-.05.668-.085 1.232-.105v-.672h-6.333v.672c.546.017.959.062 1.237.134.278.072.492.226.644.462.151.235.226.598.226 1.087v7.984" transform="matrix(1 0 0-1 0 68.04)"/><path d="m124.07 33.976h-7v-4.623c0-.513.077-.886.231-1.121.155-.234.365-.381.631-.441.266-.06.681-.1 1.245-.121v-.672h-6.332v.672c.578.021.998.061 1.262.121.265.06.472.206.624.439.151.233.226.607.226 1.124v9.328c0 .513-.078.887-.234 1.121-.156.234-.368.381-.634.441-.266.06-.681.1-1.245.121v.672h6.332v-.672c-.705 0-1.252-.097-1.644-.292-.199-.106-.326-.274-.382-.506-.055-.231-.082-.525-.082-.885v-3.822h7v3.822c0 .482-.078.842-.232 1.08-.154.238-.372.394-.654.467-.281.074-.689.119-1.221.136v.672h6.333v-.672c-.739 0-1.289-.097-1.649-.292-.199-.106-.326-.274-.381-.506-.055-.231-.082-.525-.082-.885v-9.328c0-.53.082-.913.248-1.149.165-.236.375-.378.634-.428.257-.05.668-.084 1.232-.105v-.672h-6.333v.672c.546.018.959.062 1.237.134.278.072.492.226.644.462.151.235.227.598.227 1.087v4.623" transform="matrix(1 0 0-1 0 68.03)"/><path d="m138.13 32.421l-1.814 4.454c-.336.879-.534 1.44-.592 1.683-.048-.096-.105-.266-.17-.508l-2.278-5.629h4.854m-1.432 8.615l5.317-12.191c.221-.483.479-.834.779-1.054.299-.221.7-.332 1.205-.332v-.672h-5.828v.672h.469c.815 0 1.221.211 1.221.631 0 .178-.056.43-.17.755l-1.138 2.693h-5.611l-1.098-2.693c-.113-.274-.17-.469-.17-.586 0-.533.436-.8 1.309-.8h.464v-.672h-4.894v.672c.645 0 1.137.094 1.476.283.338.187.619.555.842 1.103l5.065 12.191h.762" transform="matrix(1 0 0-1 0 67.824)"/><path d="m155.6 33.976h-7v-4.623c0-.513.077-.886.231-1.121.155-.234.365-.381.631-.441.266-.06.681-.1 1.245-.121v-.672h-6.332v.672c.578.021.998.061 1.262.121.265.06.472.206.624.439.151.233.226.607.226 1.124v9.328c0 .513-.078.887-.235 1.121-.156.234-.368.381-.634.441-.266.06-.681.1-1.244.121v.672h6.332v-.672c-.705 0-1.252-.097-1.644-.292-.199-.106-.326-.274-.382-.506-.055-.231-.082-.525-.082-.885v-3.822h7v3.822c0 .482-.078.842-.232 1.08-.154.238-.372.394-.654.467-.281.074-.689.119-1.221.136v.672h6.333v-.672c-.739 0-1.289-.097-1.649-.292-.199-.106-.326-.274-.381-.506-.055-.231-.082-.525-.082-.885v-9.328c0-.53.082-.913.248-1.149.165-.236.375-.378.634-.428.257-.05.668-.084 1.232-.105v-.672h-6.333v.672c.546.018.959.062 1.237.134.278.072.492.226.644.462.151.235.227.598.227 1.087v4.623" transform="matrix(1 0 0-1 0 68.03)"/><path d="m173.96 41.04l.211-5.04h-.675c-.224.918-.547 1.725-.971 2.422-.424.697-.976 1.245-1.656 1.647-.68.401-1.492.6-2.437.6-1.096 0-2.01-.315-2.728-.947-.724-.631-1.251-1.44-1.584-2.425-.334-.986-.5-2.01-.5-3.059 0-1.139.185-2.208.556-3.203.371-.996.951-1.797 1.739-2.405.788-.608 1.768-.911 2.939-.911 1.054 0 2.069.328 3.042.984.974.655 1.662 1.477 2.064 2.466l.758-.59c-.357-.801-.87-1.497-1.538-2.089-.668-.591-1.429-1.043-2.282-1.354-.854-.311-1.718-.467-2.594-.467-1.031 0-1.985.179-2.862.538-.878.359-1.632.864-2.262 1.514-.63.65-1.116 1.419-1.456 2.306-.34.888-.51 1.845-.51 2.871 0 1.012.17 1.973.51 2.884.34.909.828 1.714 1.464 2.414.635.699 1.395 1.246 2.279 1.639.884.393 1.844.59 2.878.59 1.645 0 3.165-.475 4.559-1.426.128.204.282.553.464 1.047h.592" transform="matrix(1 0 0-1 0 68.08)"/><path d="m183.16 27.414c1.224 0 2.213.313 2.967.94.754.626 1.293 1.437 1.616 2.433.323.996.485 2.085.485 3.27 0 .883-.086 1.716-.261 2.499-.174.784-.455 1.491-.843 2.123-.388.631-.912 1.133-1.572 1.507-.659.373-1.456.559-2.392.559-.924 0-1.712-.187-2.364-.559-.651-.373-1.17-.875-1.556-1.507-.386-.631-.667-1.34-.841-2.125-.174-.786-.26-1.618-.26-2.497 0-1.191.159-2.286.479-3.283.319-.998.854-1.807 1.603-2.428.749-.621 1.729-.931 2.938-.931m0-.754c-1.386 0-2.652.319-3.793.957-1.142.638-2.04 1.522-2.694 2.652-.655 1.131-.981 2.393-.981 3.789 0 1.409.323 2.675.971 3.799.648 1.124 1.541 1.997 2.681 2.622 1.139.624 2.412.936 3.816.936 1.422 0 2.705-.312 3.851-.936 1.145-.624 2.042-1.498 2.691-2.622.649-1.124.974-2.39.974-3.799 0-1.399-.328-2.664-.984-3.795-.656-1.13-1.559-2.01-2.709-2.649-1.15-.636-2.424-.954-3.822-.954" transform="matrix(1 0 0-1 0 68.08)"/><path d="m195.99 34.19v-4.833c0-.626.175-1.049.524-1.27.348-.22.862-.33 1.543-.33.948 0 1.628.309 2.04.928.412.619.618 1.432.618 2.437 0 .951-.208 1.65-.623 2.096-.416.447-.935.72-1.559.821-.623.101-1.471.152-2.542.152m0 .672c.911 0 1.64.05 2.19.152.549.101.997.349 1.342.744.345.395.518 1.01.518 1.835 0 .909-.176 1.593-.528 2.05-.352.456-.964.685-1.837.685h-1.685v-5.465m2.612-.251c.786-.035 1.523-.194 2.21-.48.687-.285 1.244-.709 1.669-1.27.426-.561.639-1.24.639-2.037 0-.756-.187-1.426-.562-2.01-.375-.583-.882-1.032-1.522-1.344-.641-.313-1.339-.469-2.094-.469h-7.178v.672c.578.021.998.06 1.263.121.264.06.472.206.623.439.151.233.227.607.227 1.124v9.328c0 .517-.076.891-.227 1.124-.151.233-.359.378-.623.439-.265.06-.685.1-1.263.121v.672h6.838c.649 0 1.263-.116 1.842-.349.579-.233 1.044-.584 1.394-1.054.351-.47.526-1.039.526-1.706 0-1.026-.349-1.8-1.046-2.319-.698-.52-1.602-.853-2.715-1" transform="matrix(1 0 0-1 0 68.04)"/><path d="m222.96 26.999h-6.332v.677c.576.021.995.061 1.259.121.264.06.471.206.622.438.151.233.226.607.226 1.124v9.324c0 .513-.075.887-.226 1.121-.151.235-.358.382-.622.441-.264.06-.684.1-1.259.121v.672h6.332v-.672c-.708 0-1.242-.097-1.603-.292-.223-.112-.364-.284-.422-.513-.059-.228-.088-.521-.088-.877v-9.324c0-.513.078-.886.235-1.121.156-.234.367-.381.634-.441.266-.06.681-.1 1.244-.121v-.677m-14.179 7.188v-4.788c0-.626.174-1.049.522-1.269.349-.221.863-.331 1.543-.331.949 0 1.629.309 2.041.928.412.619.618 1.43.618 2.435 0 .889-.176 1.555-.528 1.997-.352.442-.81.725-1.373.846-.564.121-1.279.182-2.148.182h-.675m0 4.536v-3.823c.58 0 .992.002 1.236.008.244.005.435.012.575.021.139.009.251.013.338.013 1.014 0 1.892-.169 2.638-.506.746-.337 1.318-.812 1.718-1.429.401-.616.609-1.331.626-2.145 0-.756-.188-1.426-.562-2.01-.374-.583-.882-1.032-1.522-1.344-.641-.313-1.339-.47-2.095-.47h-7.177v.677c.577.021.998.06 1.262.121.265.059.473.206.624.438.151.233.226.607.226 1.124v9.324c0 .516-.075.89-.226 1.124-.151.232-.359.378-.624.438-.264.06-.685.1-1.262.121v.672h6.332v-.672c-.708 0-1.242-.097-1.602-.292-.22-.107-.359-.275-.418-.506-.059-.23-.087-.525-.087-.885" transform="matrix(1 0 0-1 0 68.08)"/><path d="m231.78 38.35c.422 0 .837.061 1.244.183.408.121.611.327.611.617-.082.421-.124.701-.124.842 0 .267.098.503.296.708.198.205.436.318.714.339h.088c.178 0 .362-.04.551-.121.189-.08.328-.165.417-.254.196-.228.294-.538.294-.928-.014-.585-.263-1.04-.747-1.365-.485-.325-1.038-.543-1.662-.654-.623-.111-1.198-.167-1.723-.167-.519 0-1.085.056-1.698.167-.613.111-1.156.329-1.628.654-.472.325-.715.78-.729 1.365 0 .39.1.7.299.928.251.25.559.375.927.375h.124c.282-.021.522-.133.719-.336.197-.204.296-.441.296-.711 0-.171-.043-.452-.129-.842 0-.291.204-.496.611-.617.407-.122.823-.183 1.249-.183m3.205-6.306l-7-7.984c0-.513.077-.886.231-1.121.155-.234.366-.381.632-.441.266-.06.681-.1 1.244-.121v-.672h-6.332v.672c.578.021.998.061 1.262.121.265.06.473.206.624.439.151.233.226.607.226 1.124v9.328c0 .513-.078.887-.234 1.121-.156.234-.368.381-.634.441-.266.06-.681.1-1.245.121v.672h6.332v-.672c-.704 0-1.252-.097-1.644-.292-.199-.106-.326-.274-.381-.506-.055-.231-.082-.525-.082-.885v-8.06l7 8.06c0 .483-.078.842-.232 1.08-.155.238-.373.394-.655.467-.281.074-.688.119-1.221.136v.672h6.333v-.672c-.739 0-1.289-.097-1.649-.292-.199-.106-.326-.274-.381-.506-.055-.231-.083-.525-.083-.885v-9.328c0-.53.083-.913.248-1.149.165-.237.376-.379.634-.429.258-.05.668-.084 1.232-.105v-.672h-6.333v.672c.546.018.959.062 1.237.134.278.072.493.226.644.462.151.235.227.598.227 1.087v7.984" transform="matrix(1 0 0-1 0 62.74)"/><path d="m87.94 51.04c.014 0-.145-.257-.475-.773-.179-.197-.366-.368-.56-.513-.194-.146-.338-.248-.434-.308-.299-.144-.674-.216-1.125-.216-.448 0-.823.102-1.125.305-.085.042-.207.182-.367.421-.161.239-.241.486-.241.742 0 .259.1.517.301.773.172.26.433.39.782.39.113 0 .285-.028.518-.084-.018 0 .078-.079.285-.237.208-.158.416-.237.624-.237.039 0 .101-.008.187-.023.086-.016.155-.024.204-.024.204 0 .391.088.56.263.113.134.266.358.46.674.194.316.301.507.322.573l-5.885 8.88c-.186.224-.358.43-.515.616-.157.186-.301.335-.431.448-.131.112-.283.2-.457.262-.175.064-.385.095-.631.095v.689h5.969v-.689h-.475c-.838 0-1.257-.216-1.257-.647 0-.162.058-.419.174-.774l4.591-7.07 3.46 7.07c.116.298.174.514.174.647 0 .319-.13.528-.391.626-.261.098-.592.148-.994.148h-.433v.689h4.976v-.689h-.175c-1.018-.115-1.739-.589-2.166-1.421l-5.452-10.605" transform="matrix(1 0 0-1 0 112.98)"/><path d="m107.67 56.38h-7.179v-4.74c0-.526.079-.91.238-1.15.159-.24.374-.391.647-.452.273-.062.698-.103 1.276-.124v-.689h-6.492v.689c.592.021 1.023.062 1.294.124.271.061.484.211.639.449.155.239.232.623.232 1.152v9.564c0 .526-.08.909-.241 1.149-.16.24-.377.391-.649.453-.273.061-.698.103-1.276.124v.689h6.492v-.689c-.722 0-1.284-.1-1.685-.3-.205-.109-.335-.282-.391-.518-.056-.237-.085-.539-.085-.907v-3.919h7.179v3.919c0 .494-.079.863-.238 1.107-.159.244-.382.403-.671.479-.289.076-.706.122-1.252.14v.689h6.492v-.689c-.757 0-1.321-.1-1.691-.3-.204-.109-.335-.282-.391-.518-.056-.237-.085-.539-.085-.907v-9.564c0-.544.085-.936.254-1.179.169-.242.386-.388.65-.439.264-.05.685-.087 1.262-.108v-.689h-6.492v.689c.56.018.982.063 1.268.137.285.073.505.231.66.473.155.242.233.614.233 1.115v4.74" transform="matrix(1 0 0-1 0 112.85)"/><path d="m124.16 59.828l-7.179-8.186c0-.526.079-.909.238-1.15.159-.24.375-.391.648-.452.273-.062.698-.103 1.276-.124v-.689h-6.493v.689c.592.021 1.023.063 1.295.124.271.061.484.211.639.45.155.238.232.622.232 1.152v9.565c0 .525-.08.909-.24 1.149-.161.241-.377.391-.65.453-.273.061-.698.103-1.276.124v.689h6.493v-.689c-.722 0-1.284-.1-1.685-.3-.205-.108-.335-.281-.391-.518-.056-.237-.085-.539-.085-.907v-8.271l7.179 8.271c0 .494-.079.863-.238 1.107-.159.244-.382.404-.671.479-.288.075-.706.122-1.252.139v.689h6.492v-.689c-.757 0-1.321-.1-1.691-.3-.204-.108-.334-.281-.391-.518-.056-.237-.084-.539-.084-.907v-9.565c0-.544.084-.936.253-1.178.169-.242.386-.388.65-.439.264-.051.685-.087 1.262-.108v-.689h-6.492v.689c.56.018.982.063 1.268.137.286.073.506.231.66.473.155.242.233.614.233 1.115v8.186" transform="matrix(1 0 0-1 0 112.85)"/><path d="m133.47 56.6v-4.956c0-.642.179-1.076.536-1.302.358-.226.885-.339 1.583-.339.972 0 1.669.317 2.091.952.423.635.634 1.468.634 2.499 0 .975-.213 1.692-.639 2.149-.426.457-.958.739-1.598.841-.639.104-1.508.156-2.607.156m0 .689c.933 0 1.681.052 2.245.155.564.103 1.023.358 1.376.763.354.405.531 1.032.531 1.881 0 .933-.181 1.633-.541 2.102-.362.468-.989.702-1.884.702h-1.728v-5.602m2.678-.258c.806-.035 1.562-.199 2.266-.492.705-.293 1.275-.727 1.711-1.302.437-.576.655-1.272.655-2.089 0-.775-.192-1.462-.576-2.059-.384-.599-.904-1.058-1.561-1.379-.657-.321-1.373-.481-2.148-.481h-7.359v.689c.592.021 1.023.062 1.294.124.271.061.484.211.639.449.155.238.232.623.232 1.152v9.564c0 .53-.077.914-.232 1.152-.155.238-.368.388-.639.45-.271.061-.702.102-1.294.124v.689h7.01c.666 0 1.295-.119 1.889-.358.593-.238 1.069-.599 1.429-1.081.359-.483.539-1.066.539-1.749 0-1.052-.358-1.845-1.072-2.378-.715-.533-1.643-.875-2.784-1.026" transform="matrix(1 0 0-1 0 112.85)"/><path d="m152.9 63.62l.385-3.535h-.649c-.212.88-.54 1.568-.985 2.062-.446.494-1.082.742-1.91.742h-3.159v-5.645h1.384c1.279 0 1.942.661 1.992 1.983h.692v-4.867h-.692c-.095.782-.261 1.33-.499 1.642-.238.312-.735.468-1.492.468h-1.384v-4.612c0-.713.195-1.208.586-1.485.391-.278.959-.416 1.706-.416 1.092 0 1.96.106 2.605.319.645.212 1.19.695 1.638 1.45.398.801.612 1.448.645 1.944h.649l-.301-4.443h-11.86v.688c.591.022 1.023.063 1.294.124.271.062.484.211.639.45.154.238.232.622.232 1.152v9.564c0 .529-.078.913-.232 1.152-.155.238-.368.388-.639.449-.271.062-.703.103-1.294.124v.689h10.65" transform="matrix(1 0 0-1 0 112.85)"/><path d="m159.26 56.725h1.643c.951 0 1.686.283 2.205.85.52.566.779 1.332.779 2.296 0 .761-.12 1.374-.359 1.839-.239.465-.599.798-1.08 1-.481.203-1.098.305-1.852.305-.162 0-.391-.007-.687-.021-.295-.013-.512-.021-.649-.021v-6.25m0-.647v-4.437c0-.525.079-.909.238-1.148.159-.24.374-.391.647-.452.273-.062.698-.103 1.276-.124v-.689h-6.492v.689c.592.021 1.023.062 1.294.124.271.061.484.211.639.449.155.239.232.623.232 1.152v9.564c0 .526-.079.909-.24 1.149-.16.24-.376.391-.649.453-.273.061-.699.103-1.276.124v.689h5.066c1.261 0 2.317-.069 3.167-.205.851-.137 1.574-.486 2.168-1.047.595-.562.894-1.423.894-2.583 0-.671-.16-1.29-.479-1.857-.319-.569-.765-1.012-1.339-1.331-.658-.347-1.682-.52-3.069-.52h-2.076" transform="matrix(1 0 0-1 0 112.85)"/><path d="m180.55 63.62l.216-5.171h-.692c-.229.941-.561 1.768-.995 2.483-.435.715-1 1.278-1.699 1.688-.697.411-1.53.616-2.499.616-1.124 0-2.056-.324-2.797-.971-.741-.647-1.282-1.476-1.624-2.487-.342-1.01-.512-2.055-.512-3.136 0-1.168.19-2.263.57-3.284.381-1.021.975-1.843 1.784-2.466.808-.622 1.813-.934 3.01-.934 1.081 0 2.121.336 3.119 1.01.999.672 1.704 1.515 2.116 2.529l.776-.605c-.366-.821-.892-1.535-1.576-2.142-.685-.607-1.466-1.07-2.341-1.389-.875-.319-1.762-.479-2.66-.479-1.056 0-2.035.184-2.935.552-.9.368-1.672.886-2.319 1.552-.647.665-1.144 1.454-1.493 2.364-.349.91-.523 1.891-.523 2.944 0 1.038.174 2.023.523 2.956.349.933.849 1.758 1.501 2.475.652.717 1.431 1.277 2.338 1.681.906.403 1.89.605 2.951.605 1.686 0 3.245-.488 4.675-1.463.13.209.288.567.475 1.073h.608" transform="matrix(1 0 0-1 0 112.89)"/><path d="m193.35 59.828l-7.179-8.186c0-.526.079-.909.238-1.15.159-.24.374-.391.647-.452.274-.062.698-.103 1.276-.124v-.689h-6.492v.689c.592.021 1.023.063 1.294.124.271.061.484.211.639.45.155.238.232.622.232 1.152v9.565c0 .525-.08.909-.241 1.149-.16.241-.377.391-.649.453-.273.061-.698.103-1.276.124v.689h6.492v-.689c-.722 0-1.284-.1-1.685-.3-.205-.108-.335-.281-.392-.518-.056-.237-.084-.539-.084-.907v-8.271l7.179 8.271c0 .494-.079.863-.238 1.107-.159.244-.382.404-.671.479-.289.075-.706.122-1.252.139v.689h6.492v-.689c-.757 0-1.321-.1-1.691-.3-.204-.108-.335-.281-.391-.518-.056-.237-.084-.539-.084-.907v-9.565c0-.544.084-.936.254-1.178.169-.242.386-.388.65-.439.264-.051.685-.087 1.262-.108v-.689h-6.492v.689c.559.018.982.063 1.268.137.285.073.505.231.66.473.155.242.233.614.233 1.115v8.186" transform="matrix(1 0 0-1 0 112.85)"/><path d="m208.2 49.23h-6.445v.689c.586.018 1.018.06 1.298.129.279.069.494.221.644.46.15.238.225.617.225 1.136v11.247h-2.427c-.835 0-1.457-.234-1.864-.702-.407-.469-.738-1.153-.991-2.054h-.693l.386 3.488h13.286l.391-3.488h-.65c-.186.589-.385 1.078-.597 1.467-.211.39-.501.701-.869.937-.368.235-.846.352-1.435.352h-2.419v-11.247c0-.523.082-.905.245-1.147.164-.242.382-.394.655-.455.274-.062.694-.103 1.261-.124v-.689" transform="matrix(1 0 0-1 0 112.85)"/><path d="m223 63.62l.385-3.535h-.649c-.212.88-.54 1.568-.985 2.062-.446.494-1.082.742-1.91.742h-3.159v-5.645h1.384c1.278 0 1.942.661 1.992 1.983h.692v-4.867h-.692c-.095.782-.262 1.33-.5 1.642-.237.312-.735.468-1.492.468h-1.384v-4.612c0-.713.195-1.208.586-1.485.391-.278.959-.416 1.706-.416 1.092 0 1.96.106 2.605.319.645.212 1.19.695 1.638 1.45.398.801.613 1.448.645 1.944h.649l-.301-4.443h-11.86v.688c.591.022 1.023.063 1.294.124.271.062.484.211.639.45.155.238.232.622.232 1.152v9.564c0 .529-.078.913-.232 1.152-.155.238-.368.388-.639.449-.271.062-.703.103-1.294.124v.689h10.65" transform="matrix(1 0 0-1 0 112.85)"/><path d="m234.9 49.23h-6.445v.689c.586.018 1.018.06 1.298.129.279.069.494.221.644.46.15.238.225.617.225 1.136v11.247h-2.427c-.835 0-1.457-.234-1.864-.702-.407-.469-.738-1.153-.991-2.054h-.693l.386 3.488h13.286l.391-3.488h-.65c-.186.589-.385 1.078-.597 1.467-.211.39-.501.701-.869.937-.368.235-.846.352-1.435.352h-2.419v-11.247c0-.523.082-.905.245-1.147.164-.242.382-.394.655-.455.274-.062.694-.103 1.261-.124v-.689" transform="matrix(1 0 0-1 0 112.85)"/><path transform="matrix(1 0 0-1 0 144.78)" d="m83.9 70h-.63v4.27h-2.368v-4.27h-.632v4.78h3.63z"/><path d="m85.69 72.39h1.136c.338 0 .598.08.778.238.18.159.27.388.27.688 0 .285-.09.513-.27.684-.18.171-.428.259-.741.267h-1.173v-1.877m0-.515v-1.87h-.633v4.776h1.769c.525 0 .936-.134 1.234-.401.298-.267.447-.62.447-1.059 0-.464-.146-.821-.437-1.071-.291-.25-.708-.375-1.25-.375h-1.13" transform="matrix(1 0 0-1 0 144.78)"/><path transform="matrix(1 0 0-1 0 144.78)" d="m92.33 74.78h.64v-4.78h-.64v3.68l-2.36-3.68h-.63v4.78h.63v-3.68z"/><path transform="matrix(1 0 0-1 0 144.78)" d="m99.45 70h-.63v4.27h-2.37v-4.27h-.63v4.78h3.63z"/><path d="m101.24 72.39h1.136c.338 0 .598.08.778.238.18.159.27.388.27.688 0 .285-.09.513-.27.684-.18.171-.428.259-.741.267h-1.173v-1.877m0-.515v-1.87h-.633v4.776h1.769c.525 0 .936-.134 1.234-.401.298-.267.447-.62.447-1.059 0-.464-.146-.821-.437-1.071-.291-.25-.708-.375-1.25-.375h-1.13" transform="matrix(1 0 0-1 0 144.78)"/><path d="m105.24 71.77h1.631l-.817 2.234-.814-2.234m1.818-.515h-2.01l-.451-1.25h-.652l1.832 4.777h.554l1.835-4.777h-.649l-.458 1.25" transform="matrix(1 0 0-1 0 144.78)"/><path d="m109.44 72.24v-1.719h1.044c.294 0 .526.076.697.228.17.152.255.361.255.628 0 .576-.314.863-.942.863h-1.054m0 .506h.955c.277 0 .498.069.664.207.166.138.249.325.249.562 0 .263-.077.454-.231.573-.154.119-.387.18-.702.18h-.935v-1.522m-.633-2.739v4.776h1.568c.521 0 .912-.107 1.175-.322.262-.214.394-.531.394-.951 0-.223-.064-.421-.191-.592-.128-.172-.301-.305-.521-.398.259-.072.464-.21.615-.412.151-.202.226-.443.226-.723 0-.428-.139-.766-.418-1.01-.279-.244-.674-.367-1.183-.367h-1.664" transform="matrix(1 0 0-1 0 144.78)"/><path transform="matrix(1 0 0-1 0 144.78)" d="m116.03 74.78h.63v-4.78h-.63v3.68l-2.36-3.68h-.64v4.78h.64v-3.68z"/><path transform="matrix(1 0 0-1 0 144.78)" d="m121.04 74.26h-1.55v-4.26h-.62v4.26h-1.54v.52h3.71z"/><path transform="matrix(1 0 0-1 0 144.78)" d="m124.46 72.21h-2.08v-1.69h2.41v-.52h-3.04v4.78h3.01v-.51h-2.38v-1.54h2.08z"/><path d="m129.21 74.78v-4.776h-.632v4.262h-1.72l-.086-1.894c-.032-.635-.098-1.112-.196-1.432-.098-.319-.241-.554-.429-.704-.189-.15-.442-.227-.758-.231h-.208v.515l.132.006c.204.015.361.081.471.199.109.117.193.303.251.559.056.257.098.65.122 1.182l.099 2.316h2.955" transform="matrix(1 0 0-1 0 144.78)"/><path d="m130.97 72.32v-1.798h1.156c.314 0 .558.083.733.25.175.167.262.39.262.671 0 .269-.084.482-.252.637-.169.155-.407.235-.716.24h-1.183m0 .515h1.192c.501-.006.892-.135 1.173-.384.281-.25.422-.588.422-1.017 0-.431-.142-.774-.425-1.03-.284-.256-.67-.388-1.16-.397h-1.835v4.776h.632v-1.949" transform="matrix(1 0 0-1 0 144.78)"/><path d="m138.12 71.52c-.06-.505-.247-.894-.562-1.169-.315-.275-.734-.412-1.257-.412-.566 0-1.021.202-1.362.607-.342.404-.512.946-.512 1.624v.46c0 .443.079.834.239 1.171.159.337.385.595.676.776.292.18.631.271 1.015.271.509 0 .918-.142 1.226-.425.307-.283.486-.675.537-1.176h-.636c-.055.382-.174.658-.357.829-.184.171-.441.257-.77.257-.404 0-.721-.149-.95-.446-.23-.298-.344-.721-.344-1.271v-.463c0-.519.108-.931.325-1.238.218-.307.522-.46.913-.46.352 0 .621.079.809.238.188.158.312.435.374.828h.636" transform="matrix(1 0 0-1 0 144.78)"/><path transform="matrix(1 0 0-1 0 144.78)" d="m142.2 74.26h-1.54v-4.26h-.63v4.26h-1.54v.52h3.71z"/><path d="m143.54 72.24v-1.719h1.044c.294 0 .527.076.697.228.17.152.256.361.256.628 0 .576-.315.863-.943.863h-1.054m0 .506h.955c.277 0 .498.069.664.207.166.138.249.325.249.562 0 .263-.077.454-.231.573-.154.119-.387.18-.701.18h-.936v-1.522m-.632-2.739v4.776h1.568c.521 0 .912-.107 1.174-.322.262-.214.394-.531.394-.951 0-.223-.064-.421-.191-.592-.128-.172-.301-.305-.521-.398.259-.072.464-.21.615-.412.15-.202.225-.443.225-.723 0-.428-.139-.766-.418-1.01-.279-.244-.674-.367-1.183-.367h-1.664" transform="matrix(1 0 0-1 0 144.78)"/><path transform="matrix(1 0 0-1 0 144.78)" d="m149.82 72.21h-2.08v-1.69h2.42v-.52h-3.05v4.78h3.02v-.51h-2.39v-1.54h2.08z"/><path d="m153.25 72.39h1.137c.338 0 .597.08.777.238.181.159.271.388.271.688 0 .285-.09.513-.271.684-.18.171-.427.259-.741.267h-1.173v-1.877m0-.515v-1.87h-.632v4.776h1.769c.525 0 .936-.134 1.234-.401.298-.267.446-.62.446-1.059 0-.464-.146-.821-.436-1.071-.291-.25-.708-.375-1.251-.375h-1.13" transform="matrix(1 0 0-1 0 144.78)"/><path d="m159.93 72.55c0 .567-.114 1-.342 1.305-.229.303-.548.454-.959.454-.4 0-.715-.151-.944-.454-.23-.303-.348-.723-.355-1.262v-.351c0-.549.116-.981.348-1.294.232-.314.551-.471.957-.471.408 0 .725.148.949.445.224.296.339.721.346 1.275v.354m.629-.308c0-.468-.078-.876-.236-1.225-.159-.349-.382-.615-.672-.798-.29-.184-.628-.276-1.015-.276-.378 0-.713.093-1 .277-.292.185-.519.448-.68.791-.162.342-.245.739-.249 1.189v.344c0 .459.079.865.24 1.217.16.352.387.622.681.808.293.187.629.281 1.01.281.384 0 .724-.093 1.016-.278.293-.185.518-.452.677-.804.158-.351.236-.76.236-1.225v-.302" transform="matrix(1 0 0-1 0 144.78)"/><path d="m165.04 71.52c-.059-.505-.246-.894-.561-1.169-.315-.275-.734-.412-1.257-.412-.567 0-1.021.202-1.362.607-.341.404-.512.946-.512 1.624v.46c0 .443.079.834.239 1.171.159.337.385.595.677.776.292.18.631.271 1.015.271.509 0 .918-.142 1.226-.425.307-.283.486-.675.536-1.176h-.635c-.055.382-.174.658-.358.829-.184.171-.44.257-.769.257-.404 0-.721-.149-.95-.446-.23-.298-.345-.721-.345-1.271v-.463c0-.519.109-.931.326-1.238.218-.307.522-.46.913-.46.351 0 .621.079.809.238.188.158.312.435.374.828h.635" transform="matrix(1 0 0-1 0 144.78)"/><path d="m169.43 71.52c-.059-.505-.246-.894-.561-1.169-.315-.275-.734-.412-1.257-.412-.567 0-1.021.202-1.362.607-.341.404-.512.946-.512 1.624v.46c0 .443.079.834.239 1.171.159.337.385.595.677.776.292.18.631.271 1.015.271.509 0 .918-.142 1.226-.425.307-.283.486-.675.536-1.176h-.635c-.055.382-.174.658-.358.829-.184.171-.44.257-.769.257-.404 0-.721-.149-.95-.446-.23-.298-.345-.721-.345-1.271v-.463c0-.519.109-.931.326-1.238.218-.307.522-.46.913-.46.351 0 .621.079.809.238.188.158.312.435.374.828h.635" transform="matrix(1 0 0-1 0 144.78)"/><path transform="matrix(1 0 0-1 0 144.78)" d="m173.32 74.78h.63v-4.78h-.63v3.68l-2.36-3.68h-.64v4.78h.64v-3.68z"/><path d="m177.95 74.78c0-.266-.09-.479-.272-.641-.181-.161-.419-.242-.713-.242-.295 0-.533.081-.715.244-.182.163-.273.375-.273.639h.497c0-.153.042-.273.125-.359.084-.087.205-.13.366-.13.154 0 .274.043.361.128.086.085.13.205.13.361h.494m.178-1.191h.632v-4.777h-.632v3.681l-2.362-3.681h-.636v4.777h.636v-3.681l2.362 3.681" transform="matrix(1 0 0-1 0 143.59)"/><path d="m183.44 71.52c-.059-.505-.246-.894-.561-1.169-.315-.275-.734-.412-1.257-.412-.567 0-1.021.202-1.362.607-.341.404-.512.946-.512 1.624v.46c0 .443.079.834.239 1.171.159.337.385.595.677.776.292.18.631.271 1.015.271.509 0 .918-.142 1.226-.425.307-.283.486-.675.536-1.176h-.635c-.055.382-.174.658-.358.829-.184.171-.44.257-.769.257-.404 0-.721-.149-.95-.446-.23-.298-.345-.721-.345-1.271v-.463c0-.519.109-.931.326-1.238.218-.307.522-.46.913-.46.351 0 .621.079.809.238.188.158.312.435.374.828h.635" transform="matrix(1 0 0-1 0 144.78)"/><path transform="matrix(1 0 0-1 0 144.78)" d="m185.55 72.15h-.58v-2.15h-.63v4.78h.63v-2.11h.49l1.68 2.11h.79l-1.83-2.32 1.96-2.46h-.77z"/><path d="m191.6 72.55c0 .567-.114 1-.342 1.305-.229.303-.548.454-.959.454-.4 0-.715-.151-.944-.454-.23-.303-.348-.723-.355-1.262v-.351c0-.549.116-.981.348-1.294.232-.314.551-.471.957-.471.408 0 .725.148.949.445.224.296.339.721.346 1.275v.354m.629-.308c0-.468-.078-.876-.236-1.225-.159-.349-.382-.615-.672-.798-.29-.184-.628-.276-1.015-.276-.378 0-.713.093-1 .277-.292.185-.519.448-.68.791-.162.342-.245.739-.249 1.189v.344c0 .459.079.865.24 1.217.16.352.387.622.681.808.293.187.629.281 1.01.281.384 0 .724-.093 1.016-.278.293-.185.518-.452.677-.804.158-.351.236-.76.236-1.225v-.302" transform="matrix(1 0 0-1 0 144.78)"/><path d="m196.02 74.78c0-.266-.09-.479-.272-.641-.181-.161-.419-.242-.713-.242-.295 0-.533.081-.715.244-.182.163-.273.375-.273.639h.497c0-.153.042-.273.125-.359.084-.087.205-.13.366-.13.154 0 .274.043.361.128.086.085.13.205.13.361h.494m.178-1.191h.632v-4.777h-.632v3.681l-2.362-3.681h-.636v4.777h.636v-3.681l2.362 3.681" transform="matrix(1 0 0-1 0 143.59)"/><path d="m202.03 73.806v-2.858h.092c.42 0 .748.129.984.385.236.258.355.606.355 1.049 0 .437-.119.784-.355 1.04-.236.255-.568.384-.996.384h-.079m-.705 0c-.412 0-.739-.127-.98-.379-.24-.252-.361-.603-.361-1.051 0-.45.121-.801.359-1.051.239-.251.569-.376.989-.376h.085v2.858h-.092m.705.496h.102c.362-.002.694-.087.992-.253.299-.166.531-.395.697-.687.165-.292.249-.618.249-.979 0-.363-.084-.692-.251-.988-.167-.295-.398-.525-.692-.691-.294-.165-.621-.25-.982-.254h-.115v-.643h-.613v.643h-.092c-.366 0-.7.083-.999.249-.3.166-.533.396-.699.689-.166.293-.249.623-.249.988 0 .366.083.694.249.987.166.293.399.523.699.689.299.166.633.25.999.25h.092v.675h.613v-.675" transform="matrix(1 0 0-1 0 144.78)"/><path transform="matrix(1 0 0-1 0 144.78)" d="m207.58 72.21h-2.08v-1.69h2.41v-.52h-3.05v4.78h3.02v-.51h-2.38v-1.54h2.08z"/><path d="m209.42 71.69h2.339v3.747h-1.624l-.069-1.405c-.028-.549-.102-1.018-.219-1.405-.118-.387-.26-.7-.427-.936m3.594-1.686h-.629v1.172h-3.443v-1.174h-.633l-.003 1.689h.392c.207.232.371.543.493.934.122.39.198.818.229 1.284l.106 2.044h2.869v-4.262h.626l-.007-1.686" transform="matrix(1 0 0-1 0 145.96)"/><path transform="matrix(1 0 0-1 0 144.78)" d="m216.48 72.21h-2.07v-1.69h2.41v-.52h-3.05v4.78h3.02v-.51h-2.38v-1.54h2.07z"/><path d="m218.24 72.39h1.137c.338 0 .597.08.777.238.181.159.271.388.271.688 0 .285-.09.513-.271.684-.18.171-.427.259-.741.267h-1.173v-1.877m0-.515v-1.87h-.632v4.776h1.769c.525 0 .936-.134 1.234-.401.298-.267.446-.62.446-1.059 0-.464-.146-.821-.436-1.071-.291-.25-.708-.375-1.251-.375h-1.13" transform="matrix(1 0 0-1 0 144.78)"/><path d="m222.24 71.77h1.631l-.816 2.234-.814-2.234m1.819-.515h-2.01l-.452-1.25h-.652l1.831 4.777h.554l1.835-4.777h-.649l-.458 1.25" transform="matrix(1 0 0-1 0 144.78)"/><path transform="matrix(1 0 0-1 0 145.93)" d="m225.83 75.931h.64v-4.261h2.36v4.261h.63v-4.251h.51l-.06-1.68h-.57v1.15h-3.51z"/><path transform="matrix(1 0 0-1 0 144.78)" d="m233.77 74.78h.63v-4.78h-.63v3.68l-2.37-3.68h-.63v4.78h.63v-3.68z"/><path transform="matrix(1 0 0-1 0 144.78)" d="m238.58 74.78h.63v-4.78h-.63v3.68l-2.37-3.68h-.63v4.78h.63v-3.68z"/><path d="m.221 49.02c18.642 2.604 37.414 10.49 51.09 25.547-1.458-5.365-9.4-19.03-17.08-25.547h-32.734-1.274" transform="matrix(1 0 0-1 0 123.59)"/></g></svg>