<svg viewBox="0 0 22 19" xmlns="http://www.w3.org/2000/svg" xmlns:xlink="http://www.w3.org/1999/xlink"><g fill="none" fill-rule="evenodd"><path d="m0 5c0-1.659 1.343-3 3-3h15.997c1.658 0 3 1.342 3 3v7.993c0 1.659-1.339 3-2.991 3h-1.01c-6 0-11.795 3.964-11.795 3.964-.942.572-1.45.188-1.129-.883l.349-1.162c.318-1.06-.323-1.919-1.422-1.919h-1c-1.657 0-3-1.342-3-3v-7.993m5 5.997c0-.552.446-1 .998-1h7c.551 0 .998.444.998 1 0 .552-.446 1-.998 1h-7c-.551 0-.998-.444-.998-1m0-4c0-.552.456-1 1-1h9.995c.554 0 1 .444 1 1 0 .552-.456 1-1 1h-9.995c-.554 0-1-.444-1-1" transform="translate(0-2)" fill="#fff"/></g></svg>