<svg xmlns="http://www.w3.org/2000/svg" width="5" height="16" viewBox="0 0 5 16">
  <path fill="#000000" fill-rule="evenodd" d="M78.9555664,12.8486328 C79.6326531,12.8486328 80.195473,13.0496399 80.644043,13.4516602 C81.0926129,13.8536804 81.3168945,14.3678354 81.3168945,14.9941406 C81.3168945,15.6204458 81.0926129,16.1346009 80.644043,16.5366211 C80.195473,16.9386413 79.6326531,17.1396484 78.9555664,17.1396484 C78.2700161,17.1396484 77.7050803,16.9365255 77.2607422,16.5302734 C76.816404,16.1240214 76.5942383,15.6119823 76.5942383,14.9941406 C76.5942383,14.376299 76.816404,13.8642598 77.2607422,13.4580078 C77.7050803,13.0517558 78.2700161,12.8486328 78.9555664,12.8486328 Z M78.9555664,2.71777344 C79.6326531,2.71777344 80.195473,2.91878054 80.644043,3.32080078 C81.0926129,3.72282102 81.3168945,4.23697604 81.3168945,4.86328125 C81.3168945,5.48958646 81.0926129,6.00374148 80.644043,6.40576172 C80.195473,6.80778196 79.6326531,7.00878906 78.9555664,7.00878906 C78.2700161,7.00878906 77.7050803,6.80566609 77.2607422,6.39941406 C76.816404,5.99316203 76.5942383,5.48112288 76.5942383,4.86328125 C76.5942383,4.24543962 76.816404,3.73340047 77.2607422,3.32714844 C77.7050803,2.92089641 78.2700161,2.71777344 78.9555664,2.71777344 Z" transform="translate(-76.5 -2)"/>
</svg>
