<svg xmlns="http://www.w3.org/2000/svg" width="935" height="752" viewBox="0 0 935 752">
  <g fill="none" fill-rule="evenodd">
    <path fill="#2E8C8E" d="M433,395 L433,395 C460.34301,410.471721 474,430.724869 474,451 C474,430.724869 460.34301,410.471721 433,395 L433,395" transform="matrix(1 0 0 -1 0 846)"/>
    <path fill="#2E8C8E" d="M523,691 C523,694.952199 523.617271,698.90153 524.851812,702.809273 L524.851812,702.810707 C524.8742,702.882409 524.896588,702.952677 524.920576,703.024379 C524.920576,703.024379 524.920576,703.028681 524.922175,703.028681 C524.933369,703.064532 524.942964,703.09608 524.954158,703.131931 C524.955757,703.133365 524.955757,703.134799 524.955757,703.137667 C524.966951,703.17065 524.978145,703.205067 524.989339,703.23805 C524.990938,703.240918 524.990938,703.243786 524.992537,703.24522 C525.002132,703.279637 525.013326,703.31262 525.02452,703.345602 C525.026119,703.34847 525.026119,703.351338 525.027719,703.352772 C525.038913,703.387189 525.048507,703.418738 525.059701,703.451721 C525.061301,703.456023 525.0629,703.460325 525.064499,703.464627 C525.075693,703.496176 525.085288,703.527725 525.096482,703.559273 C525.098081,703.563576 525.09968,703.569312 525.101279,703.573614 C525.110874,703.603728 525.122068,703.635277 525.131663,703.666826 C525.133262,703.671128 525.136461,703.676864 525.13806,703.681166 C525.147655,703.712715 525.158849,703.74283 525.168443,703.774379 C525.170043,703.778681 525.173241,703.784417 525.173241,703.788719 C525.184435,703.820268 525.19403,703.848948 525.205224,703.880497 C525.206823,703.886233 525.210021,703.893403 525.21162,703.89914 C525.221215,703.92782 525.232409,703.957935 525.242004,703.986616 C525.245203,703.993786 525.246802,704.000956 525.25,704.008126 C525.259595,704.036807 525.26919,704.065488 525.280384,704.092734 C525.281983,704.101338 525.285181,704.109943 525.28838,704.117113 C525.297974,704.145793 525.307569,704.17304 525.317164,704.200287 C525.320362,704.208891 525.323561,704.216061 525.32516,704.223231 C525.336354,704.251912 525.345949,704.279159 525.355544,704.306405 C525.358742,704.316444 525.36194,704.325048 525.365139,704.333652 C525.374733,704.360899 525.384328,704.386711 525.393923,704.413958 C525.397122,704.422562 525.40032,704.4326 525.403518,704.441205 C525.413113,704.468451 525.422708,704.494264 525.432303,704.521511 C525.435501,704.531549 525.438699,704.538719 525.441898,704.548757 C525.453092,704.576004 525.462687,704.601816 525.472281,704.629063 C525.47548,704.636233 525.478678,704.647706 525.481876,704.654876 C525.491471,704.682122 525.501066,704.707935 525.510661,704.733748 C525.513859,704.74522 525.518657,704.755258 525.521855,704.76673 C525.53145,704.791109 525.541045,704.815488 525.55064,704.8413 C525.553838,704.851338 525.558635,704.862811 525.561834,704.874283 C525.571429,704.898662 525.581023,704.92304 525.590618,704.947419 C525.593817,704.958891 525.598614,704.970363 525.603412,704.981836 C525.611407,705.006214 525.621002,705.030593 525.630597,705.054971 C525.633795,705.06501 525.638593,705.077916 525.64339,705.089388 C525.652985,705.113767 525.660981,705.135277 525.670576,705.159656 C525.675373,705.172562 525.680171,705.186902 525.684968,705.198375 C525.694563,705.221319 525.702559,705.244264 525.710554,705.267208 C525.715352,705.278681 525.721748,705.293021 525.726546,705.305927 C525.734542,705.328872 525.742537,705.350382 525.752132,705.373327 C525.75693,705.386233 525.763326,705.400574 525.768124,705.41348 C525.776119,705.436424 525.785714,705.457935 525.79371,705.48088 C525.798507,705.493786 525.804904,705.506692 525.809701,705.521033 C525.817697,705.542543 525.827292,705.564054 525.835288,705.586998 C525.841684,705.601338 525.846482,705.615679 525.852878,705.630019 C525.860874,705.650096 525.86887,705.67304 525.876866,705.693117 C525.883262,705.708891 525.88806,705.720363 525.894456,705.736138 C525.902452,705.756214 525.912047,705.779159 525.920043,705.799235 C525.926439,705.81501 525.931237,705.82935 525.937633,705.84369 C525.945629,705.865201 525.953625,705.885277 525.96322,705.906788 C525.968017,705.921128 525.974414,705.935468 525.98081,705.949809 C525.987207,705.967017 525.993603,705.982792 526,706 L526,706 C525.993603,705.982792 525.987207,705.967017 525.98081,705.949809 C525.974414,705.935468 525.968017,705.921128 525.96322,705.906788 C525.953625,705.885277 525.945629,705.865201 525.937633,705.84369 C525.931237,705.82935 525.926439,705.81501 525.920043,705.799235 C525.912047,705.779159 525.902452,705.756214 525.894456,705.736138 C525.88806,705.720363 525.883262,705.708891 525.876866,705.693117 C525.86887,705.67304 525.860874,705.650096 525.852878,705.630019 C525.846482,705.615679 525.841684,705.601338 525.835288,705.586998 C525.827292,705.564054 525.817697,705.542543 525.809701,705.521033 C525.804904,705.506692 525.798507,705.493786 525.79371,705.48088 C525.785714,705.457935 525.776119,705.436424 525.768124,705.41348 C525.763326,705.400574 525.75693,705.386233 525.752132,705.373327 C525.742537,705.350382 525.734542,705.328872 525.726546,705.305927 C525.721748,705.293021 525.715352,705.278681 525.710554,705.267208 C525.702559,705.244264 525.694563,705.221319 525.684968,705.198375 C525.680171,705.186902 525.675373,705.172562 525.670576,705.159656 C525.660981,705.135277 525.652985,705.113767 525.64339,705.089388 C525.638593,705.077916 525.633795,705.06501 525.630597,705.054971 C525.621002,705.030593 525.611407,705.006214 525.603412,704.981836 C525.598614,704.970363 525.593817,704.958891 525.590618,704.947419 C525.581023,704.92304 525.571429,704.898662 525.561834,704.874283 C525.558635,704.862811 525.553838,704.851338 525.55064,704.8413 C525.541045,704.815488 525.53145,704.791109 525.521855,704.76673 C525.518657,704.755258 525.513859,704.74522 525.510661,704.733748 C525.501066,704.707935 525.491471,704.682122 525.481876,704.654876 C525.478678,704.647706 525.47548,704.636233 525.472281,704.629063 C525.462687,704.601816 525.453092,704.576004 525.441898,704.548757 C525.438699,704.538719 525.435501,704.531549 525.432303,704.521511 C525.422708,704.494264 525.413113,704.468451 525.403518,704.441205 C525.40032,704.4326 525.397122,704.422562 525.393923,704.413958 C525.384328,704.386711 525.374733,704.360899 525.365139,704.333652 C525.36194,704.325048 525.358742,704.316444 525.355544,704.306405 C525.345949,704.279159 525.336354,704.251912 525.32516,704.223231 C525.323561,704.216061 525.320362,704.208891 525.317164,704.200287 C525.307569,704.17304 525.297974,704.145793 525.28838,704.117113 C525.285181,704.109943 525.281983,704.101338 525.280384,704.092734 C525.26919,704.065488 525.259595,704.036807 525.25,704.008126 C525.246802,704.000956 525.245203,703.993786 525.242004,703.986616 C525.232409,703.957935 525.221215,703.92782 525.21162,703.89914 C525.210021,703.893403 525.206823,703.886233 525.205224,703.880497 C525.19403,703.848948 525.184435,703.820268 525.173241,703.788719 C525.173241,703.784417 525.170043,703.778681 525.168443,703.774379 C525.158849,703.74283 525.147655,703.712715 525.13806,703.681166 C525.136461,703.676864 525.133262,703.671128 525.131663,703.666826 C525.122068,703.635277 525.110874,703.603728 525.101279,703.573614 C525.09968,703.569312 525.098081,703.563576 525.096482,703.559273 C525.085288,703.527725 525.075693,703.496176 525.064499,703.464627 C525.0629,703.460325 525.061301,703.456023 525.059701,703.451721 C525.048507,703.418738 525.038913,703.387189 525.027719,703.352772 C525.026119,703.351338 525.026119,703.34847 525.02452,703.345602 C525.013326,703.31262 525.002132,703.279637 524.992537,703.24522 C524.990938,703.243786 524.990938,703.240918 524.989339,703.23805 C524.978145,703.205067 524.966951,703.17065 524.955757,703.137667 C524.955757,703.134799 524.955757,703.133365 524.954158,703.131931 C524.942964,703.09608 524.933369,703.064532 524.922175,703.028681 C524.920576,703.028681 524.920576,703.024379 524.920576,703.024379 C524.896588,702.952677 524.8742,702.882409 524.851812,702.810707 L524.851812,702.809273 C523.617271,698.90153 523,694.952199 523,691" transform="matrix(1 0 0 -1 0 1397)"/>
    <path fill="#FFF3CC" d="M71.6639911,216.273654 C63.9398845,220.485326 53.4739422,220.036875 41.8163804,213.385381 C18.6472341,200.167065 -0.0727759701,168.123232 0.000212711499,141.815177 C0.0414671837,128.745821 4.70798267,119.54788 12.2385106,115.224879 C29.5971231,105.255478 83.0676792,73.3731503 111.576106,57 C104.045578,61.3261369 99.3743027,70.5225099 99.3378084,83.5918652 C99.2616463,109.899921 117.983243,141.943753 141.152389,155.160502 C152.809951,161.813564 163.366336,162.425087 171,158.050342 C141.285673,175.077352 97.0830928,202.41559 71.6639911,216.273654" transform="matrix(1 0 0 -1 0 276)"/>
    <path fill="#FFF1BF" d="M231.651191,370.181443 C208.059818,383.988554 175.388556,382.04369 139.326672,361.074288 C67.671117,319.406089 9.76816227,218.39184 10.0006979,135.46372 C10.1169658,94.2607686 24.5593167,65.274539 47.8490217,51.6415004 C65.2986246,41.4281944 82.7482275,31.2148885 100.19783,21 C76.9065542,34.6314561 62.4657745,63.6176857 62.3495066,104.820637 C62.1169709,187.751922 120.021497,288.766171 191.678623,330.432788 C227.737364,351.403772 260.408627,353.348636 284,339.541525 L231.651191,370.181443" transform="matrix(1 0 0 -1 0 400)"/>
    <path fill="#FFE896" d="M389.97477,417.8728 L390,417.85859 L337.457669,448.430605 C306.331226,466.544547 263.223491,463.992932 215.640513,436.484118 C121.092701,381.826497 44.6918619,249.317765 45.0009344,140.533056 C45.1523169,86.4833384 64.2091619,48.4554278 94.9413796,30.5704359 C112.454439,20.3813432 129.970652,10.1890927 147.483711,0 C116.749916,17.8834129 97.6930713,55.9144815 97.5369581,109.959463 C97.2310394,218.745751 173.633455,351.252903 268.17969,405.912104 C278.590389,411.929558 288.785052,416.751732 298.686411,420.425995 C315.663324,426.724506 331.774519,429.644021 346.633654,429.41507 C362.729079,429.165593 377.353256,425.218168 389.998423,417.85859 L389.97477,417.8728" transform="matrix(1 0 0 -1 0 460)"/>
    <path fill="#F3DD94" d="M263.9408,444.591374 C358.664312,499.007734 435.691042,455.320608 435.999073,347.027022 C436.307104,238.725578 359.779543,106.823278 265.05919,52.4053464 C170.346736,-2.00472581 93.3121075,41.6776846 93.0009171,149.979129 C92.6944656,258.272714 169.229926,390.17973 263.9408,444.591374" transform="matrix(1 0 0 -1 0 497)"/>
    <path fill="#FFF4CD" d="M298.994465,508.180757 C291.436836,512.594977 280.969647,511.972499 269.422572,505.270595 C246.469891,491.9521 227.924779,459.665413 228.000229,433.157974 C228.036383,419.987989 232.662444,410.723499 240.121043,406.366155 C362.459365,334.91077 484.788256,263.455385 607.126578,192 C599.666407,196.357344 595.041918,205.621834 595.007337,218.79182 C594.930314,245.297679 613.476998,277.585945 636.428107,290.90286 C647.978326,297.603185 658.4408,298.228822 666,293.816182 C543.660106,365.271567 421.329643,436.725372 298.994465,508.180757" transform="matrix(1 0 0 -1 0 703)"/>
    <path fill="#5A5857" d="M633.861805,505.347974 C657.057156,518.486418 675.921945,507.939817 675.999787,481.789171 C676.072863,455.640083 657.330397,423.791436 634.135046,410.652992 C610.936519,397.51299 592.070141,408.059591 592.000242,434.211796 C591.922399,460.359325 610.666454,492.211089 633.861805,505.347974" transform="matrix(1 0 0 -1 0 916)"/>
    <path fill="#FFE796" d="M846.976346,701.872961 L847,701.85875 L794.459246,732.432355 C763.331226,750.544726 720.221915,747.991531 672.64209,720.484286 C578.092701,665.826643 501.691862,533.31944 502.000934,424.531531 C502.153894,370.484951 521.209162,332.455446 551.942956,314.573606 C569.457593,304.381351 586.969075,294.192254 604.483711,284 C573.749916,301.88342 554.694648,339.912924 554.538535,393.961084 C554.232616,502.745834 630.636609,635.254617 725.182844,689.912259 C735.590389,695.929716 745.785052,700.753471 755.689565,704.426156 C772.66017,710.724669 788.776096,713.645765 803.633654,713.415235 C819.730656,713.165758 834.353256,709.216752 847,701.85875 L846.976346,701.872961" transform="matrix(1 0 0 -1 0 1028)"/>
    <path fill="#F2DC93" d="M720.94238,728.591364 C815.662732,783.007747 892.691042,739.320602 892.999073,631.02697 C893.307104,522.725478 816.781122,390.819977 722.05919,336.406737 C627.345156,281.993497 550.308948,325.67907 550.000917,433.980562 C549.694466,542.272623 626.231505,674.181268 720.94238,728.591364" transform="matrix(1 0 0 -1 0 1065)"/>
    <path fill="#FFE796" d="M824.650895,721.180674 C801.057817,734.989337 768.387941,733.042895 732.327423,712.075122 C660.669891,670.407014 602.765037,569.391405 603.000717,486.463468 C603.113843,445.26219 617.557847,416.274442 640.849255,402.641433 C658.298957,392.428149 675.747087,382.216448 693.196789,372 C669.906952,385.631426 655.464519,414.619174 655.348251,455.822035 C655.117285,538.751555 713.022139,639.767164 784.6781,681.433689 C820.740188,702.403045 853.410065,704.347904 877,690.540824 L824.650895,721.180674" transform="matrix(1 0 0 -1 0 1102)"/>
    <path fill="#F1DB92" d="M786.076491,718.190331 C858.15365,759.591891 916.762269,726.351783 916.999307,643.960588 C917.231605,561.558388 859.002249,461.210743 786.92667,419.809184 C714.855831,378.413913 656.237731,411.635155 656.000693,494.038927 C655.768395,576.431694 714.007232,676.793489 786.076491,718.190331" transform="matrix(1 0 0 -1 0 1138)"/>
    <path fill="#FFF4CD" d="M796.81241,672.384273 C773.64601,659.167619 754.924068,627.120877 755.000232,600.814576 C755.036727,587.743745 759.706502,578.550573 767.237168,574.222899 C776.542802,568.878622 859.504241,520.060828 866.57501,516 C859.042756,520.327674 854.376155,529.522414 854.336486,542.593245 C854.258736,568.901114 872.980678,600.941584 896.150252,614.161374 C907.808029,620.812821 918.367782,621.422773 926,617.051194 C918.469482,621.366081 839.77765,668.123592 826.663745,675.272525 C818.939496,679.485736 808.471774,679.037288 796.81241,672.384273 Z" transform="matrix(1 0 0 -1 0 1194)"/>
    <path fill="#F2E7C1" d="M892.863384,673.348925 C916.060318,686.485756 934.923515,675.939199 934.999768,649.791778 C935.076022,623.641241 916.33356,591.794285 893.138214,578.654337 C869.939692,565.511273 851.074906,576.060947 851.000242,602.213043 C850.9224,628.362022 869.66645,660.208978 892.863384,673.348925" transform="matrix(1 0 0 -1 0 1252)"/>
  </g>
</svg>
