<svg xmlns="http://www.w3.org/2000/svg" xmlns:xlink="http://www.w3.org/1999/xlink" width="179px" height="16px" viewBox="870 98 179 16" version="1.1"><desc>Created with Sketch.</desc><g id="logo" stroke="none" stroke-width="1" fill="none" fill-rule="evenodd" transform="translate(870.000000, 98.000000)"><path d="M8.76367188 13.7421875C8.3945294 14.184247 7.87272473 14.5271798 7.19824219 14.7709961 6.52375965 15.0148124 5.77637129 15.1367188 4.95605469 15.1367188 4.09472226 15.1367188 3.33935872 14.9487323 2.68994141 14.5727539 2.0405241 14.1967755 1.53922703 13.6510452 1.18603516 12.9355469 0.832843286 12.2200485 0.651692754 11.3792366 0.642578125 10.4130859L0.642578125 9.73632812C0.642578125 8.74283357 0.810056919 7.88265337 1.14501953 7.15576172 1.47998214 6.42887006 1.96305023 5.87288604 2.59423828 5.48779297 3.22542633 5.1026999 3.96483951 4.91015625 4.8125 4.91015625 5.99284444 4.91015625 6.91568678 5.1915662 7.58105469 5.75439453 8.2464226 6.31722287 8.64062438 7.13638785 8.76367188 8.21191406L6.76757812 8.21191406C6.67643184 7.64224976 6.4747737 7.22526174 6.16259766 6.9609375 5.85042162 6.69661326 5.42090117 6.56445312 4.87402344 6.56445312 4.17675433 6.56445312 3.64583516 6.82649478 3.28125 7.35058594 2.91666484 7.8746771 2.73209638 8.65396618 2.72753906 9.68847656L2.72753906 10.3242188C2.72753906 11.3678438 2.92577927 12.1562473 3.32226562 12.6894531 3.71875198 13.2226589 4.29980086 13.4892578 5.06542969 13.4892578 5.83561583 13.4892578 6.38476398 13.325197 6.71289062 12.9970703L6.71289062 11.28125 4.84667969 11.28125 4.84667969 9.77050781 8.76367188 9.77050781 8.76367188 13.7421875ZM23.4130859 10.6865234L19.4755859 10.6865234 19.4755859 13.3525391 24.0966797 13.3525391 24.0966797 15 17.4248047 15 17.4248047 5.046875 24.0830078 5.046875 24.0830078 6.70800781 19.4755859 6.70800781 19.4755859 9.08007812 23.4130859 9.08007812 23.4130859 10.6865234ZM35.984375 11.3564453L34.3505859 11.3564453 34.3505859 15 32.2998047 15 32.2998047 5.046875 35.9980469 5.046875C37.173834 5.046875 38.080726 5.30891665 38.71875 5.83300781 39.356774 6.35709897 39.6757813 7.09765146 39.6757813 8.0546875 39.6757813 8.73372735 39.5288101 9.29996518 39.2348633 9.75341797 38.9409165 10.2068708 38.4954457 10.5680325 37.8984375 10.8369141L40.0517578 14.9042969 40.0517578 15 37.8505859 15 35.984375 11.3564453ZM34.3505859 9.6953125L36.0048828 9.6953125C36.5198593 9.6953125 36.9186184 9.56429167 37.2011719 9.30224609 37.4837254 9.04020051 37.625 8.67903876 37.625 8.21875 37.625 7.74934661 37.4917006 7.38020968 37.2250977 7.11132812 36.9584948 6.84244657 36.5494819 6.70800781 35.9980469 6.70800781L34.3505859 6.70800781 34.3505859 9.6953125ZM53.8535156 12.9492188L50.2578125 12.9492188 49.5742188 15 47.3935547 15 51.0986328 5.046875 52.9990234 5.046875 56.7246094 15 54.5439453 15 53.8535156 12.9492188ZM50.8115234 11.2880859L53.2998047 11.2880859 52.0488281 7.5625 50.8115234 11.2880859ZM69.8154297 12.3886719C69.8154297 12.0013001 69.6787123 11.7039398 69.4052734 11.496582 69.1318346 11.2892242 68.639652 11.0704764 67.9287109 10.840332 67.2177699 10.6101877 66.65495 10.3834647 66.2402344 10.1601562 65.1100204 9.54947611 64.5449219 8.72689319 64.5449219 7.69238281 64.5449219 7.15461971 64.6964503 6.67496956 64.9995117 6.25341797 65.3025731 5.83186638 65.7377901 5.50260535 66.3051758 5.265625 66.8725614 5.02864465 67.5094366 4.91015625 68.2158203 4.91015625 68.9267614 4.91015625 69.5602186 5.03889845 70.1162109 5.29638672 70.6722033 5.55387499 71.1040024 5.91731536 71.4116211 6.38671875 71.7192398 6.85612214 71.8730469 7.38931993 71.8730469 7.98632812L69.8222656 7.98632812C69.8222656 7.53059668 69.6787124 7.1762708 69.3916016 6.92333984 69.1044908 6.67040889 68.7011745 6.54394531 68.1816406 6.54394531 67.680336 6.54394531 67.2906915 6.64990128 67.0126953 6.86181641 66.7346991 7.07373153 66.5957031 7.35286285 66.5957031 7.69921875 66.5957031 8.02278808 66.7586247 8.29394422 67.0844727 8.51269531 67.4103206 8.73144641 67.8899708 8.93652248 68.5234375 9.12792969 69.69011 9.4788429 70.5400364 9.9140599 71.0732422 10.4335938 71.606448 10.9531276 71.8730469 11.6002565 71.8730469 12.375 71.8730469 13.2363324 71.5472038 13.9119442 70.8955078 14.4018555 70.2438118 14.8917668 69.366542 15.1367188 68.2636719 15.1367188 67.498043 15.1367188 66.8007844 14.9965834 66.171875 14.7163086 65.5429656 14.4360338 65.0633155 14.0520858 64.7329102 13.5644531 64.4025049 13.0768205 64.2373047 12.511722 64.2373047 11.8691406L66.2949219 11.8691406C66.2949219 12.9674534 66.9511653 13.5166016 68.2636719 13.5166016 68.7513045 13.5166016 69.1318346 13.4174815 69.4052734 13.2192383 69.6787123 13.0209951 69.8154297 12.7441424 69.8154297 12.3886719ZM82.4414062 15L80.390625 15 80.390625 5.046875 82.4414062 5.046875 82.4414062 15ZM94.0214844 5.046875L96.578125 12.265625 99.1210938 5.046875 101.814453 5.046875 101.814453 15 99.7568359 15 99.7568359 12.2792969 99.9619141 7.58300781 97.2753906 15 95.8671875 15 93.1875 7.58984375 93.3925781 12.2792969 93.3925781 15 91.3417969 15 91.3417969 5.046875 94.0214844 5.046875ZM118.78125 10.2490234C118.78125 11.228846 118.608075 12.0878869 118.261719 12.8261719 117.915363 13.5644568 117.419762 14.1341126 116.774902 14.5351562 116.130042 14.9361999 115.390629 15.1367188 114.556641 15.1367188 113.731767 15.1367188 112.995771 14.9384785 112.348633 14.5419922 111.701494 14.1455058 111.200197 13.579268 110.844727 12.8432617 110.489256 12.1072554 110.309245 11.260747 110.304688 10.3037109L110.304688 9.81152344C110.304688 8.83170083 110.481281 7.96924201 110.834473 7.22412109 111.187665 6.47900018 111.686683 5.9070658 112.331543 5.50830078 112.976403 5.10953577 113.713538 4.91015625 114.542969 4.91015625 115.3724 4.91015625 116.109535 5.10953577 116.754395 5.50830078 117.399255 5.9070658 117.898273 6.47900018 118.251465 7.22412109 118.604657 7.96924201 118.78125 8.82942221 118.78125 9.8046875L118.78125 10.2490234ZM116.703125 9.79785156C116.703125 8.75422655 116.516278 7.96126573 116.142578 7.41894531 115.768878 6.87662489 115.235681 6.60546875 114.542969 6.60546875 113.854814 6.60546875 113.323895 6.87320696 112.950195 7.40869141 112.576496 7.94417585 112.38737 8.72916149 112.382813 9.76367188L112.382813 10.2490234C112.382813 11.2653046 112.56966 12.0537081 112.943359 12.6142578 113.317059 13.1748075 113.854814 13.4550781 114.556641 13.4550781 115.244795 13.4550781 115.773436 13.1850613 116.142578 12.6450195 116.511721 12.1049778 116.698568 11.3177135 116.703125 10.2832031L116.703125 9.79785156ZM130.798828 12.5322266L133.054688 5.046875 135.337891 5.046875 131.87207 15 129.732422 15 126.280273 5.046875 128.556641 5.046875 130.798828 12.5322266ZM145.455078 15L143.404297 15 143.404297 5.046875 145.455078 5.046875 145.455078 15ZM162.168945 11.6845703C162.091471 12.7555392 161.69613 13.5986297 160.98291 14.2138672 160.26969 14.8291046 159.329758 15.1367188 158.163086 15.1367188 156.887038 15.1367188 155.883304 14.7071983 155.151855 13.8481445 154.420406 12.9890908 154.054688 11.8099033 154.054688 10.3105469L154.054688 9.70214844C154.054688 8.7451124 154.223306 7.90202187 154.560547 7.17285156 154.897788 6.44368125 155.379717 5.88427929 156.006348 5.49462891 156.632978 5.10497852 157.360998 4.91015625 158.19043 4.91015625 159.338873 4.91015625 160.263994 5.21777036 160.96582 5.83300781 161.667647 6.44824526 162.073242 7.3118434 162.182617 8.42382812L160.131836 8.42382812C160.081705 7.78124679 159.902834 7.31526837 159.595215 7.02587891 159.287596 6.73648944 158.819339 6.59179688 158.19043 6.59179688 157.506833 6.59179688 156.995282 6.83674885 156.655762 7.32666016 156.316242 7.81657146 156.141927 8.57649225 156.132812 9.60644531L156.132812 10.3583984C156.132812 11.4339246 156.295734 12.2200496 156.621582 12.7167969 156.94743 13.2135442 157.46126 13.4619141 158.163086 13.4619141 158.796553 13.4619141 159.269367 13.3172215 159.581543 13.027832 159.893719 12.7384426 160.072591 12.2906931 160.118164 11.6845703L162.168945 11.6845703ZM178.616211 15L176.56543 15 176.56543 10.734375 172.566406 10.734375 172.566406 15 170.515625 15 170.515625 5.046875 172.566406 5.046875 172.566406 9.08007812 176.56543 9.08007812 176.56543 5.046875 178.616211 5.046875 178.616211 15Z" id="GERASIMOVICH" fill="#000000"/><polygon id="Path" fill="#000000" points="115.34668 0 117.5 0 115.606445 3.11914062 114 3.11914062"/></g></svg>
