<svg viewBox="0 0 179 16" xmlns="http://www.w3.org/2000/svg" xmlns:xlink="http://www.w3.org/1999/xlink"><g fill="#000" fill-rule="evenodd"><path d="m8.764 13.742c-.369.442-.891.785-1.565 1.029-.674.244-1.422.366-2.242.366-.861 0-1.617-.188-2.266-.564-.649-.376-1.151-.922-1.504-1.637-.353-.715-.534-1.556-.543-2.522v-.677c0-.993.167-1.854.502-2.581.335-.727.818-1.283 1.449-1.668.631-.385 1.371-.578 2.218-.578 1.18 0 2.103.281 2.769.844.665.563 1.06 1.382 1.183 2.458h-1.996c-.091-.57-.293-.987-.605-1.251-.312-.264-.742-.396-1.289-.396-.697 0-1.228.262-1.593.786-.365.524-.549 1.303-.554 2.338v.636c0 1.044.198 1.832.595 2.365.396.533.978.8 1.743.8.77 0 1.319-.164 1.647-.492v-1.716h-1.866v-1.511h3.917v3.972m14.649-3.056h-3.938v2.666h4.621v1.647h-6.672v-9.953h6.658v1.661h-4.607v2.372h3.938v1.606m12.571.67h-1.634v3.644h-2.051v-9.953h3.698c1.176 0 2.083.262 2.721.786.638.524.957 1.265.957 2.222 0 .679-.147 1.245-.441 1.699-.294.453-.739.815-1.336 1.083l2.153 4.067v.096h-2.201l-1.866-3.644m-1.634-1.661h1.654c.515 0 .914-.131 1.196-.393.283-.262.424-.623.424-1.083 0-.469-.133-.839-.4-1.107-.267-.269-.676-.403-1.227-.403h-1.647v2.987m19.503 3.254h-3.596l-.684 2.051h-2.181l3.705-9.953h1.9l3.726 9.953h-2.181l-.69-2.051m-3.042-1.661h2.488l-1.251-3.726-1.237 3.726m19 1.101c0-.387-.137-.685-.41-.892-.273-.207-.766-.426-1.477-.656-.711-.23-1.274-.457-1.688-.68-1.13-.611-1.695-1.433-1.695-2.468 0-.538.152-1.017.455-1.439.303-.422.738-.751 1.306-.988.567-.237 1.204-.355 1.911-.355.711 0 1.344.129 1.9.386.556.257.988.621 1.295 1.09.308.469.461 1 .461 1.6h-2.051c0-.456-.144-.81-.431-1.063-.287-.253-.69-.379-1.21-.379-.501 0-.891.106-1.169.318-.278.212-.417.491-.417.837 0 .324.163.595.489.813.326.219.805.424 1.439.615 1.167.351 2.02.786 2.55 1.306.533.52.8 1.167.8 1.941 0 .861-.326 1.537-.978 2.027-.652.49-1.529.735-2.632.735-.766 0-1.463-.14-2.092-.42-.629-.28-1.109-.664-1.439-1.152-.33-.488-.496-1.053-.496-1.695h2.058c0 1.098.656 1.647 1.969 1.647.488 0 .868-.099 1.142-.297.273-.198.41-.475.41-.831m12.626 2.611h-2.051v-9.953h2.051v9.953m11.58-9.953l2.557 7.219 2.543-7.219h2.693v9.953h-2.058v-2.721l.205-4.696-2.687 7.417h-1.408l-2.68-7.41.205 4.689v2.721h-2.051v-9.953h2.68m24.76 5.202c0 .98-.173 1.839-.52 2.577-.346.738-.842 1.308-1.487 1.709-.645.401-1.384.602-2.218.602-.825 0-1.561-.198-2.208-.595-.647-.396-1.148-.963-1.504-1.699-.355-.736-.535-1.583-.54-2.54v-.492c0-.98.177-1.842.53-2.587.353-.745.852-1.317 1.497-1.716.645-.399 1.382-.598 2.211-.598.829 0 1.567.199 2.211.598.645.399 1.144.971 1.497 1.716.353.745.53 1.605.53 2.581v.444m-2.078-.451c0-1.044-.187-1.837-.561-2.379-.374-.542-.907-.813-1.6-.813-.688 0-1.219.268-1.593.803-.374.535-.563 1.32-.567 2.355v.485c0 1.016.187 1.805.561 2.365.374.561.911.841 1.613.841.688 0 1.217-.27 1.586-.81.369-.54.556-1.327.561-2.362v-.485m14.1 2.734l2.256-7.485h2.283l-3.466 9.953h-2.14l-3.452-9.953h2.276l2.242 7.485m14.656 2.468h-2.051v-9.953h2.051v9.953m16.714-3.315c-.077 1.071-.473 1.914-1.186 2.529-.713.615-1.653.923-2.82.923-1.276 0-2.28-.43-3.01-1.289-.731-.859-1.097-2.038-1.097-3.538v-.608c0-.957.169-1.8.506-2.529.337-.729.819-1.289 1.446-1.678.627-.39 1.355-.584 2.184-.584 1.148 0 2.074.308 2.775.923.702.615 1.107 1.479 1.217 2.591h-2.051c-.05-.643-.229-1.109-.537-1.398-.308-.289-.776-.434-1.405-.434-.684 0-1.195.245-1.535.735-.34.49-.514 1.25-.523 2.28v.752c0 1.076.163 1.862.489 2.358.326.497.84.745 1.542.745.633 0 1.106-.145 1.418-.434.312-.289.491-.737.537-1.343h2.051m16.447 3.315h-2.051v-4.266h-3.999v4.266h-2.051v-9.953h2.051v4.03h3.999v-4.03h2.051v9.953"/><path d="m115.35 0h2.15l-1.89 3.119h-1.61z"/></g></svg>