<svg viewBox="0 0 50 50" xmlns="http://www.w3.org/2000/svg" xmlns:xlink="http://www.w3.org/1999/xlink"><g fill="none" fill-rule="evenodd"><path d="m32.07 26.993c.697.719 1.432 1.396 2.057 2.188.276.352.537.715.737 1.124.283.581.027 1.22-.465 1.254l-3.059-.001c-.789.069-1.419-.267-1.948-.837-.424-.456-.816-.942-1.223-1.414-.167-.193-.342-.374-.551-.518-.418-.287-.78-.199-1.019.262-.243.469-.298.988-.322 1.51-.033.762-.251.962-.974.997-1.547.077-3.01-.17-4.378-.996-1.202-.728-2.134-1.755-2.946-2.917-1.58-2.264-2.789-4.752-3.877-7.31-.245-.576-.066-.886.535-.896.998-.021 1.996-.019 2.995-.001.406.006.674.252.831.658.54 1.404 1.201 2.741 2.03 3.979.221.33.446.659.767.892.355.257.625.172.792-.246.106-.265.152-.551.176-.835.079-.977.089-1.952-.049-2.925-.085-.607-.409-1-.982-1.116-.292-.059-.249-.174-.107-.35.246-.304.477-.494.938-.494h3.458c.544.114.665.372.74.952l.003 4.063c-.006.224.106.89.488 1.038.306.106.507-.153.691-.358.828-.929 1.419-2.028 1.946-3.165.234-.5.436-1.019.631-1.538.145-.385.372-.575.782-.566l3.328.003c.099 0 .199.002.294.019.561.101.714.356.541.935-.273.909-.804 1.666-1.323 2.427-.555.812-1.148 1.597-1.699 2.414-.506.746-.465 1.122.163 1.77" fill="#fff"/></g></svg>