<svg viewBox="0 0 228 368" xmlns="http://www.w3.org/2000/svg" xmlns:xlink="http://www.w3.org/1999/xlink"><g fill="none" fill-rule="evenodd"><g transform="translate(1)"><rect fill="#ff0063" x="0" y="0" width="225" height="313.5" rx="25" ry="25"/><g transform="translate(37.5 40)" fill="#fff"><path d="m21.992 193v-22.547h-6.625v8.06c-.625 1.172-1.844 1.797-3.563 1.797-2.328 0-3.594-1.281-3.594-3.656v-6.203h-6.625v6.938c0 5.141 3.375 8.422 8.344 8.422 2.141 0 4-.563 5.313-1.516h.125v8.703h6.625m20.656 0h7.06l-7.359-22.547h-8.313l-7.359 22.547h6.75l1.172-4.484h6.875l1.172 4.484m-4.672-17.344h.125l2.172 8.188h-4.469l2.172-8.188m31.984 12.08h-9.281v-3.625h8.703v-4.75h-8.703v-3.641h9.281v-5.266h-15.906v22.547h15.906v-5.266m17.203 5.266c4.828 0 7.953-2.609 7.953-6.563 0-2.984-2.547-5.281-5.594-5.359v-.125c2.609-.328 4.578-2.281 4.578-4.875 0-3.516-2.703-5.625-7.313-5.625h-11.08v22.547h11.453m-4.828-18h2.656c1.672 0 2.672.844 2.672 2.234 0 1.359-1.063 2.25-2.766 2.25h-2.563v-4.484m0 13.453v-5.172h2.875c1.984 0 3.172.938 3.172 2.547 0 1.703-1.172 2.625-3.219 2.625h-2.828m17.984 4.547h10.297c5.02 0 8.391-3.078 8.391-7.906 0-4.781-3.578-7.859-8.844-7.859h-3.219v-6.781h-6.625v22.547m6.625-5v-5.859h1.859c2.156 0 3.453.984 3.453 2.938 0 1.938-1.281 2.922-3.406 2.922h-1.906m20.281 5v-22.547h-6.625v22.547h6.625m22.03-5.266h-9.281v-3.625h8.703v-4.75h-8.703v-3.641h9.281v-5.266h-15.906v22.547h15.906v-5.266m-134.37 31.3l8.438-10.578h-7.109l-6.969 8.719h-.125v-8.719h-6.625v22.547h6.625v-8.859h.125l6.578 8.859h7.922l-8.859-11.969m27.688 11.969h7.06l-7.359-22.547h-8.313l-7.359 22.547h6.75l1.172-4.484h6.875l1.172 4.484m-4.672-17.344h.125l2.172 8.188h-4.469l2.172-8.188m16.08-5.203v22.547h6.625v-6.156h3.219c5.266 0 8.844-3.203 8.844-8.172 0-5.02-3.375-8.219-8.391-8.219h-10.297m6.625 4.984h1.906c2.156 0 3.469 1.109 3.469 3.25 0 2.156-1.313 3.266-3.516 3.266h-1.859v-6.516m28.766 17.563v-17.281h5.938v-5.266h-18.5v5.266h5.938v17.281h6.625m21.03-22.938c-6.969 0-11.359 4.469-11.359 11.672 0 7.203 4.375 11.656 11.359 11.656 6.969 0 11.359-4.453 11.359-11.656 0-7.203-4.391-11.672-11.359-11.672m0 5.281c2.766 0 4.609 2.484 4.609 6.391 0 3.891-1.828 6.375-4.609 6.375-2.781 0-4.609-2.484-4.609-6.375 0-3.906 1.844-6.391 4.609-6.391m31.469 17.656h6.625v-22.547h-6.313l-8.281 12.547h-.125v-12.547h-6.625v22.547h6.313l8.281-12.547h.125v12.547m-10.188-28.547c0 3.125 2.422 5.02 5.984 5.02 3.563 0 5.984-1.891 5.984-5.02h-3.578c-.047 1.406-1 2.125-2.406 2.125-1.406 0-2.359-.719-2.406-2.125h-3.578"/><g><path d="m0 42h42v-42h-42v42m6-6h30v-30h-30v30"/><path d="m48 24h12v-6h6v6h6v-12h12v-6h-18v6h-6v-12h-6v6h-6v6h6v6h-6v6"/><path d="m78 60h12v-6h6v-12h-6v-6h6v6h6v-18h-6v6h-6v-6h6v-6h6v-18h-18v6h6v12h-6v30h-6v-12h-6v18h6v6"/><path d="m108 42h42v-42h-42v42m6-6h30v-30h-30v30"/><path d="m12 30h18v-18h-18z"/><path d="m120 30h18v-18h-18z"/><path d="m60 42h6v-18h-6z"/><path d="m72 30h6v-6h-6z"/><path d="m48 42h6v-12h-6z"/><path d="m6 66h6v-12h6v12h6v-12h6v-6h-30v12h6v6"/><path d="m54 84h12v-6h-6v-6h6v6h6v-12h6v-6h-12v6h-6v-12h6v-6h-30v6h12v6h-18v6h12v6h-6v6h18v6m-6-12h6v-6h-6v6"/><path d="m96 60h12v-12h-6v6h-6v6"/><path d="m120 78h6v-12h-6v-18h-6v12h-6v6h6v6h6v6"/><path d="m126 54h6v-6h-6z"/><path d="m144 96h6v-12h-6v-6h6v-18h-6v-12h-6v18h6v6h-12v6h6v12h6v6"/><path d="m90 66h6v-6h-6z"/><path d="m126 66h6v-6h-6z"/><path d="m12 72h6v-6h-6z"/><path d="m84 72h6v-6h-6z"/><path d="m0 102h6v-30h-6z"/><path d="m24 78h6v-6h-6z"/><path d="m90 78h6v-6h-6z"/><path d="m108 78h6v-6h-6z"/><path d="m12 90h12v-12h-6v6h-6v6"/><path d="m108 150h42v-42h-12v-12h-6v6h-6v-6h-24v-6h6v-6h-6v-6h-6v6h-12v-6h-12v6h6v6h-6v12h6v-6h6v-6h12v12h-6v6h6v6h-12v6h6v6h6v12h-6v6h18v6m-6-30h18v-18h-18v18m30 0h12v-6h-12v6m0 24h12v-12h-6v6h-6v-12h-6v6h-6v6h12v6m-24-6h6v-6h-6v6"/><path d="m126 96h6v-18h-6z"/><path d="m30 90h12v-6h-12z"/><path d="m114 90h6v-6h-6z"/><path d="m24 102h6v-12h-6z"/><path d="m48 150h18v-6h-6v-6h-6v-12h6v6h6v-6h6v-12h6v-6h-12v-18h-24v6h-6v6h12v12h6v-6h6v6h6v6h-6v-6h-6v6h-6v30"/><path d="m84 102h6v-6h-6z"/><path d="m0 150h42v-42h-42v42m6-6h30v-30h-30v30"/><path d="m108 114h6v-6h-6z"/><path d="m12 138h18v-18h-18z"/><path d="m72 150h6v-6h6v-6h6v-12h-18v6h6v6h-6v12"/><path d="m84 150h6v-6h-6z"/></g></g></g><path d="m12.319 367.43c6.648 0 11.45-4.221 11.484-10.374h-6.938c-.222 2.854-2.034 4.683-4.529 4.683-3.01 0-4.871-2.632-4.871-7.092 0-4.409 1.88-7.04 4.854-7.04 2.512 0 4.341 1.863 4.512 4.666h6.938c-.017-6.118-4.939-10.356-11.45-10.356-7.537 0-12.236 4.614-12.236 12.749 0 8.135 4.683 12.766 12.236 12.766m39.893-.427v-24.661h-7.246v9.365h-8.682v-9.365h-7.246v24.661h7.246v-9.536h8.682v9.536h7.246m22.19 0h7.725l-8.05-24.661h-9.09l-8.05 24.661h7.383l1.282-4.905h7.52l1.282 4.905m-5.11-18.97h.137l2.375 8.955h-4.888l2.375-8.955m28.27 18.97v-7.81l8.425-16.851h-7.571l-4.324 9.998h-.137l-4.324-9.998h-7.742l8.425 16.851v7.81h7.246m20.393 0v-6.46l1.931-2.598 5.383 9.06h8.425l-8.494-13.706 8.118-10.955h-7.605l-7.622 10.459h-.137v-10.459h-7.246v24.661h7.246m36.22 0h7.725l-8.05-24.661h-9.09l-8.05 24.661h7.383l1.282-4.905h7.52l1.282 4.905m-5.11-18.97h.137l2.375 8.955h-4.888l2.375-8.955m21.13 19.21c1.965 0 3.555-1.589 3.555-3.555 0-1.965-1.589-3.555-3.555-3.555-1.965 0-3.555 1.589-3.555 3.555 0 1.965 1.589 3.555 3.555 3.555m16.223-24.9h-7.246v15.876c0 5.623 4.358 9.211 10.869 9.211 6.511 0 10.869-3.589 10.869-9.211v-15.876h-7.246v15.07c0 2.598-1.282 4.02-3.623 4.02-2.341 0-3.623-1.418-3.623-4.02v-15.07m19.727 17.397c.017 4.922 3.965 7.69 10.579 7.69 6.563 0 10.784-3.213 10.784-8.254 0-3.999-2.239-6.272-7.02-7.109l-3.384-.581c-2.341-.41-3.35-1.025-3.35-2.205 0-1.23 1.196-2.02 3.093-2.02 1.948 0 3.469.906 3.521 2.444h6.614c-.034-4.785-3.708-7.793-10.271-7.793-5.879 0-10.151 3.145-10.151 8.135 0 3.862 2.461 6.46 6.99 7.246l3.264.581c2.649.479 3.555.974 3.555 2.119 0 1.196-1.333 2.068-3.503 2.068-1.948 0-3.657-.923-3.862-2.324h-6.853" fill="#ff0063"/></g></svg>