<svg viewBox="0 0 60 17" xmlns="http://www.w3.org/2000/svg" xmlns:xlink="http://www.w3.org/1999/xlink"><g fill="none" fill-rule="evenodd"><path d="m18.716.066l-18.292 7.159c-.592.232-.557 1.086.053 1.267l4.648 1.379 1.735 5.528c.181.577.91.753 1.332.32l2.403-2.465 4.715 3.476c.577.425 1.399.109 1.545-.594l3.123-14.996c.153-.735-.567-1.347-1.263-1.074m-2.293 3.328l-8.496 7.546c-.085.075-.139.179-.151.292l-.327 2.921c-.011.095-.143.108-.172.016l-1.346-4.356c-.062-.199.019-.415.195-.525l10.03-6.25c.231-.144.467.175.264.356" fill="#fff"/><path d="m58.716.066l-18.292 7.159c-.592.232-.557 1.086.053 1.267l4.648 1.379 1.735 5.528c.181.577.91.753 1.332.32l2.403-2.465 4.715 3.476c.577.425 1.399.109 1.545-.594l3.123-14.996c.153-.735-.567-1.347-1.263-1.074m-2.293 3.328l-8.496 7.546c-.085.075-.139.179-.151.292l-.327 2.921c-.011.095-.143.108-.172.016l-1.346-4.356c-.062-.199.019-.415.195-.525l10.03-6.25c.231-.144.467.175.264.356" fill="#f41352"/><path d="m38.716.066l-18.292 7.159c-.592.232-.557 1.086.053 1.267l4.648 1.379 1.735 5.528c.181.577.91.753 1.332.32l2.403-2.465 4.715 3.476c.577.425 1.399.109 1.545-.594l3.123-14.996c.153-.735-.567-1.347-1.263-1.074m-2.293 3.328l-8.496 7.546c-.085.075-.139.179-.151.292l-.327 2.921c-.011.095-.143.108-.172.016l-1.346-4.356c-.062-.199.019-.415.195-.525l10.03-6.25c.231-.144.467.175.264.356" fill="#48b6ed"/></g></svg>