<svg xmlns="http://www.w3.org/2000/svg" viewBox="0 0 878 920" xmlns:xlink="http://www.w3.org/1999/xlink"><defs><filter id="c" width="200%" height="200%" x="-50%" y="-50%" filterUnits="objectBoundingBox"><feGaussianBlur stdDeviation="30.474" in="SourceGraphic"/></filter><rect id="a" width="13" height="13" x="212" y="18" rx="2"/><mask id="d" width="13" height="13" x="0" y="0" fill="#fff"><use xlink:href="#a"/></mask><circle id="b" cx="139.5" cy="24.5" r="6.5"/><mask id="e" width="13" height="13" x="0" y="0" fill="#fff"><use xlink:href="#b"/></mask><filter id="f" width="200%" height="200%" x="-50%" y="-50%" filterUnits="objectBoundingBox"><feGaussianBlur stdDeviation="39.506" in="SourceGraphic"/></filter></defs><g fill="none" fill-rule="evenodd"><path fill="#E8C4AA" d="M415.17 447.096c72.213 56.468 145.25 230.343 140.473 268.968-2.94 23.776-94.628 268.025-173.698 219.196-68.548-42.33-152.016-77.68-167.012-142.98-11.503-50.091 5.343-198.307-18.862-276.086-35.589-114.356-99.715-227.467-145.366-285.437 122.247 2.257 256.21-11.582 298.139-11.234 9.5 21.966 33.864 147.391 49.902 196.813 5.217 16.078 11.488 26.9 16.423 30.76z" transform="matrix(1 0 0 -1 0 1161.213)"/><path fill="#F1CEB4" d="M500.11 199.353c25.29 18.781 50.722 37.654 78.734 52.043 11.835 6.08 26.761 11.163 37.754 3.66 8.239-5.625 13.046-26.687 11.034-36.471-2.012-9.785-8.052-18.245-14.67-25.715-21.752-24.55-50.69-41.364-79.312-57.337l-33.54 63.82" transform="matrix(1 0 0 -1 0 394.34)"/><path fill="#F1CEB4" d="M639.248 267.547c3.82 3.268 15.021 21.31 10.853 26.843-8.32 11.045-38.528 37.493-52.19 53.828-3.389 4.052-63.417 20.648-63.417 20.648l18.396-65.656c23.472-35.1 62.01-56.487 86.358-35.663z" transform="matrix(1 0 0 -1 0 628.216)"/><path fill="#E8C4AA" d="M547.914 506.455c-1.053-15.807-1.84-32.772 6.406-46.287 5.137-8.419 12.797-15.907 22.15-18.999 20.178-6.668 33.543 1.683 33.027 5.628-2.167 16.56-8.77 68.793-12.603 81.859 0 0-4.027 38.93-11.054 40.078-7.028 1.147-36.714-32.279-36.714-32.279-.53-7.95-.683-22.05-1.212-30z" transform="matrix(1 0 0 -1 0 1007.433)"/><path fill="#F1CEB4" d="M571.34 418.592c-2.546-33.641 12.424-52.734 35.01-59.335 10.367-3.029 26.465 3.5 26.952 11.387 1.201 19.426-.924 62.775-6.753 84.847-3.233 12.241-26.887 34.475-54.769 43.602 0 0 .34-70.211-.44-80.501" transform="matrix(1 0 0 -1 0 857.594)"/><g transform="translate(299)"><path fill="#C29C7E" d="M40.173 530.964c5.542-6.161 16.727-10.666 25.003-10.06l115.363 8.442c8.267.605 8.373 2.326.23 3.846l-156.627 29.23c-8.14 1.518-10.246-2.245-4.705-8.405l20.736-23.053z" filter="url(#c)"/><path fill="#F2F2F2" d="M20 0h240c15 0 20 5 20 20v20H0V20C0 5 5 0 20 0z"/><g transform="translate(0 40)"><rect width="280" height="460" fill="#FFEE78"/><path fill="none" d="M74.434 367.125H73.09V372H71.12v-11.375h1.969v4.781h1.086l3.344-4.781h2.421l-3.906 5.445 4.25 5.93H77.91l-3.476-4.875zm6.406.57c0-.828.164-1.574.492-2.238.328-.664.79-1.174 1.383-1.531.594-.357 1.276-.535 2.047-.535 1.14 0 2.066.367 2.777 1.101.711.735 1.095 1.709 1.152 2.922l.008.445c0 .834-.16 1.578-.48 2.235a3.551 3.551 0 0 1-1.375 1.523c-.597.36-1.285.54-2.067.54-1.192 0-2.147-.398-2.863-1.192-.716-.794-1.074-1.853-1.074-3.176v-.094zm1.898.164c0 .87.18 1.551.54 2.043.359.493.859.739 1.5.739.64 0 1.139-.25 1.495-.75.357-.5.536-1.232.536-2.196 0-.854-.184-1.53-.551-2.03-.367-.5-.866-.75-1.496-.75-.62 0-1.112.245-1.477.737-.364.493-.547 1.228-.547 2.207zm11.04 2.782c.473 0 .867-.138 1.179-.414.313-.276.48-.618.5-1.024h1.79a2.789 2.789 0 0 1-.493 1.473 3.228 3.228 0 0 1-1.25 1.082 3.725 3.725 0 0 1-1.703.398c-1.183 0-2.12-.383-2.813-1.148-.692-.766-1.039-1.823-1.039-3.172v-.195c0-1.287.344-2.317 1.031-3.09.688-.774 1.625-1.16 2.813-1.16 1.005 0 1.824.293 2.457.879.633.585.965 1.355.996 2.308h-1.789c-.02-.484-.186-.883-.496-1.195-.31-.313-.704-.469-1.184-.469-.614 0-1.088.223-1.422.668-.333.445-.502 1.121-.507 2.027v.305c0 .917.165 1.6.496 2.05.33.451.808.677 1.433.677zM105.84 372h-1.899v-3.414h-3.289V372h-1.898v-8.453h1.898v3.523h3.29v-3.523h1.898V372zm7.297-8.453h1.89V372h-1.89v-5.64l-3.313 5.64h-1.89v-8.453h1.89v5.64l3.313-5.64zm10.562 1.508h-2.742V372h-1.898v-6.945h-2.711v-1.508h7.351v1.508zm4.985 7.101c-1.204 0-2.179-.379-2.926-1.136-.748-.758-1.121-1.767-1.121-3.028v-.234c0-.844.162-1.598.488-2.262a3.716 3.716 0 0 1 1.371-1.55 3.625 3.625 0 0 1 1.969-.555c1.15 0 2.04.367 2.668 1.101.627.735.941 1.774.941 3.117v.766h-5.523c.057.698.29 1.25.699 1.656.409.407.923.61 1.543.61.87 0 1.578-.352 2.125-1.055l1.023.976c-.338.506-.79.898-1.355 1.176-.565.279-1.2.418-1.902.418zm-.227-7.242c-.52 0-.941.182-1.262.547-.32.365-.524.872-.613 1.523h3.617v-.14c-.041-.636-.21-1.116-.508-1.442-.296-.325-.708-.488-1.234-.488zm8.563 5.727c.473 0 .867-.138 1.18-.414.312-.276.478-.618.5-1.024h1.788a2.789 2.789 0 0 1-.492 1.473 3.228 3.228 0 0 1-1.25 1.082 3.725 3.725 0 0 1-1.703.398c-1.182 0-2.12-.383-2.813-1.148-.692-.766-1.039-1.823-1.039-3.172v-.195c0-1.287.344-2.317 1.032-3.09.687-.774 1.625-1.16 2.812-1.16 1.005 0 1.824.293 2.457.879.633.585.965 1.355.996 2.308H138.7c-.02-.484-.186-.883-.496-1.195-.31-.313-.704-.469-1.183-.469-.615 0-1.089.223-1.422.668-.334.445-.503 1.121-.508 2.027v.305c0 .917.165 1.6.496 2.05.33.451.809.677 1.434.677zm6.945-4.407h1.86c.692 0 1.296.12 1.812.36.515.24.907.575 1.175 1.008.269.432.403.934.403 1.507 0 .87-.307 1.568-.922 2.094-.615.526-1.432.792-2.453.797h-3.774v-8.453h1.899v2.687zm0 1.524v2.726h1.851c.464 0 .83-.116 1.098-.347.268-.232.402-.561.402-.989 0-.427-.131-.764-.394-1.011-.263-.248-.619-.374-1.067-.38h-1.89zm13.789-2.844c-.443 0-.818.137-1.125.41-.307.274-.461.616-.461 1.028h-1.79c0-.521.152-1.01.454-1.465a3.227 3.227 0 0 1 1.242-1.09 3.618 3.618 0 0 1 1.68-.406c1.146 0 2.066.393 2.762 1.18.695.786 1.043 1.835 1.043 3.148v.195c0 .807-.158 1.54-.473 2.195-.315.657-.76 1.162-1.332 1.516-.573.354-1.237.531-1.992.531-.64 0-1.222-.134-1.742-.402a2.933 2.933 0 0 1-1.211-1.129 3.161 3.161 0 0 1-.43-1.64h1.789c0 .484.154.88.46 1.19.308.31.686.466 1.134.466.531 0 .96-.2 1.289-.598.328-.398.523-.954.586-1.668h-2.657v-1.313h2.649c-.073-.687-.274-1.217-.602-1.59-.328-.372-.752-.558-1.273-.558zm8.437 3.742h-.96V372h-1.899v-8.453h1.898v3.375h.836l2.336-3.375h2.344l-3.055 4.047 3.313 4.406h-2.469l-2.344-3.344zm13.258-.797c0 1.308-.297 2.35-.89 3.13-.594.778-1.391 1.167-2.391 1.167-.927 0-1.67-.304-2.227-.914v4.008h-1.898v-11.703h1.75l.078.86c.557-.678 1.315-1.016 2.274-1.016 1.03 0 1.84.384 2.425 1.152.586.768.88 1.835.88 3.2v.116zm-1.89-.164c0-.843-.168-1.513-.504-2.007-.336-.495-.817-.743-1.442-.743-.776 0-1.333.32-1.672.961v3.75c.344.657.907.985 1.688.985.604 0 1.077-.244 1.418-.73.341-.488.512-1.226.512-2.216zm8.546 4.305c-.083-.161-.156-.424-.218-.79a2.955 2.955 0 0 1-2.219.946c-.849 0-1.542-.242-2.078-.726-.537-.485-.805-1.084-.805-1.797 0-.901.335-1.593 1.004-2.074.67-.482 1.626-.723 2.871-.723h1.164v-.555c0-.437-.122-.788-.367-1.05-.245-.264-.617-.395-1.117-.395-.432 0-.787.108-1.063.324-.276.216-.414.491-.414.824h-1.898c0-.463.153-.897.46-1.3.308-.404.726-.72 1.255-.95a4.404 4.404 0 0 1 1.77-.343c.989 0 1.778.248 2.366.746.589.497.891 1.196.907 2.097v3.813c0 .76.106 1.367.32 1.82V372h-1.938zm-2.085-1.367a2.16 2.16 0 0 0 1.058-.274c.33-.182.58-.427.746-.734v-1.594h-1.023c-.703 0-1.232.123-1.586.367-.354.245-.531.592-.531 1.04 0 .364.12.654.363.87.242.217.566.325.973.325zM196.87 372h-1.898v-3.414h-3.29V372h-1.898v-8.453h1.899v3.523h3.289v-3.523h1.898V372zm7.07 0c-.083-.161-.156-.424-.218-.79a2.955 2.955 0 0 1-2.22.946c-.848 0-1.54-.242-2.077-.726-.537-.485-.805-1.084-.805-1.797 0-.901.335-1.593 1.004-2.074.67-.482 1.626-.723 2.871-.723h1.164v-.555c0-.437-.122-.788-.367-1.05-.245-.264-.617-.395-1.117-.395-.433 0-.787.108-1.063.324-.276.216-.414.491-.414.824h-1.898c0-.463.153-.897.46-1.3.308-.404.726-.72 1.255-.95a4.404 4.404 0 0 1 1.77-.343c.989 0 1.778.248 2.366.746.589.497.891 1.196.907 2.097v3.813c0 .76.106 1.367.32 1.82V372h-1.938zm-2.086-1.367a2.16 2.16 0 0 0 1.06-.274c.33-.182.578-.427.745-.734v-1.594h-1.023c-.703 0-1.232.123-1.586.367-.354.245-.531.592-.531 1.04 0 .364.12.654.363.87.242.217.566.325.972.325zm5.961 3.93l-1.023-.61c.302-.474.51-.887.621-1.238.112-.352.17-.71.176-1.074v-1.477h1.71l-.007 1.367a3.81 3.81 0 0 1-.418 1.66 4.124 4.124 0 0 1-1.059 1.372zM51.004 394h-1.899v-2.82a6.77 6.77 0 0 1-1.546.172c-1.157 0-2.04-.278-2.649-.832-.61-.555-.914-1.35-.914-2.387v-2.594h1.899v2.594c0 .614.136 1.05.41 1.305.273.255.691.382 1.254.382.51 0 1.026-.06 1.546-.18v-4.093h1.899V394zm8.672-6.945h-2.742V394h-1.899v-6.945h-2.71v-1.508h7.35v1.508zm.906 2.64c0-.828.164-1.574.492-2.238.328-.664.79-1.174 1.383-1.531.594-.357 1.276-.535 2.047-.535 1.14 0 2.066.367 2.777 1.101.711.735 1.095 1.709 1.153 2.922l.007.445c0 .834-.16 1.578-.48 2.235a3.551 3.551 0 0 1-1.375 1.523c-.596.36-1.285.54-2.066.54-1.193 0-2.148-.398-2.864-1.192-.716-.794-1.074-1.853-1.074-3.176v-.094zm1.898.164c0 .87.18 1.551.54 2.043.359.493.859.739 1.5.739.64 0 1.139-.25 1.496-.75.356-.5.535-1.232.535-2.196 0-.854-.184-1.53-.551-2.03-.367-.5-.866-.75-1.496-.75-.62 0-1.112.245-1.477.737-.364.493-.547 1.228-.547 2.207zm11.547-3.843c1.063 0 1.914.355 2.555 1.066.64.711.961 1.676.961 2.895v.093c0 1.22-.348 2.206-1.043 2.961-.695.755-1.64 1.133-2.832 1.133-1.161 0-2.099-.385-2.813-1.156-.713-.771-1.07-1.823-1.07-3.156v-.547c0-1.823.323-3.266.969-4.328.646-1.063 1.61-1.727 2.89-1.993.72-.145 1.184-.3 1.395-.464a.801.801 0 0 0 .316-.668h1.532c0 .526-.086.953-.258 1.28a1.992 1.992 0 0 1-.79.802c-.353.205-.963.4-1.827.582-.792.166-1.395.463-1.809.89-.414.427-.691 1.018-.832 1.774.755-.776 1.64-1.164 2.656-1.164zm-.375 1.523c-.614 0-1.096.207-1.445.621-.349.414-.523 1.05-.523 1.91 0 .813.171 1.446.515 1.899.344.453.834.68 1.469.68.63 0 1.118-.228 1.465-.684.346-.456.52-1.142.52-2.059 0-.729-.174-1.306-.52-1.73-.347-.425-.84-.637-1.48-.637zm7.414.695h1.86c.692 0 1.297.12 1.812.36.516.24.908.575 1.176 1.008.268.432.402.934.402 1.507 0 .87-.307 1.568-.921 2.094-.615.526-1.433.792-2.454.797h-3.773v-8.453h1.898v2.687zM89.621 394h-1.898v-8.453h1.898V394zm-8.555-4.242v2.726h1.852c.464 0 .83-.116 1.098-.347.268-.232.402-.561.402-.989 0-.427-.132-.764-.395-1.011-.263-.248-.618-.374-1.066-.38h-1.89zm21.211-1.899c0 .375-.113.72-.34 1.036-.226.315-.545.566-.957.753.97.339 1.454.993 1.454 1.961 0 .776-.316 1.395-.946 1.856-.63.46-1.474.691-2.531.691a4.644 4.644 0 0 1-1.766-.324c-.53-.216-.945-.523-1.242-.922-.297-.398-.445-.87-.445-1.418h1.89c0 .344.154.632.461.863.308.232.696.348 1.165.348.463 0 .832-.108 1.105-.324a1.03 1.03 0 0 0 .41-.848c0-.411-.12-.708-.36-.89-.239-.183-.609-.274-1.109-.274h-1.359V389h1.406c.85-.01 1.274-.36 1.274-1.047 0-.344-.123-.612-.367-.805-.245-.192-.581-.289-1.008-.289-.417 0-.769.103-1.055.309-.286.206-.43.465-.43.777h-1.89c0-.744.312-1.355.937-1.832.625-.476 1.42-.715 2.383-.715 1.047 0 1.862.214 2.445.641.584.427.875 1.034.875 1.82zm6.82 6.141c-.083-.161-.156-.424-.218-.79a2.955 2.955 0 0 1-2.219.946c-.849 0-1.542-.242-2.078-.726-.536-.485-.805-1.084-.805-1.797 0-.901.335-1.593 1.004-2.074.67-.482 1.627-.723 2.871-.723h1.164v-.555c0-.437-.122-.788-.367-1.05-.245-.264-.617-.395-1.117-.395-.432 0-.786.108-1.062.324-.277.216-.415.491-.415.824h-1.898c0-.463.154-.897.461-1.3.307-.404.725-.72 1.254-.95a4.404 4.404 0 0 1 1.77-.343c.989 0 1.778.248 2.367.746.588.497.89 1.196.906 2.097v3.813c0 .76.107 1.367.32 1.82V394h-1.937zm-2.085-1.367a2.16 2.16 0 0 0 1.058-.274c.331-.182.58-.427.746-.734v-1.594h-1.023c-.703 0-1.232.123-1.586.367-.354.245-.531.592-.531 1.04 0 .364.12.654.363.87.242.217.566.325.973.325zm5.836 1.367v-8.453h3.43c1.156 0 2.036.202 2.64.605.604.404.906.983.906 1.739 0 .39-.12.74-.363 1.05-.242.31-.6.549-1.074.715.552.115.99.347 1.312.696.323.349.485.76.485 1.234 0 .786-.29 1.385-.871 1.797-.581.411-1.416.617-2.504.617h-3.961zm1.898-3.602v2.102h2.078c.974 0 1.461-.349 1.461-1.047 0-.703-.495-1.055-1.484-1.055h-2.055zm0-1.359h1.563c1.078 0 1.617-.318 1.617-.953 0-.667-.51-1.01-1.531-1.031h-1.649v1.984zm10.797 5.117c-1.203 0-2.178-.379-2.926-1.136-.747-.758-1.12-1.767-1.12-3.028v-.234c0-.844.162-1.598.487-2.262a3.716 3.716 0 0 1 1.371-1.55 3.625 3.625 0 0 1 1.97-.555c1.15 0 2.04.367 2.667 1.101.628.735.942 1.774.942 3.117v.766h-5.524c.057.698.29 1.25.7 1.656.408.407.923.61 1.542.61.87 0 1.578-.352 2.125-1.055l1.024.976c-.339.506-.79.898-1.356 1.176-.565.279-1.199.418-1.902.418zm-.227-7.242c-.52 0-.941.182-1.261.547-.32.365-.525.872-.614 1.523h3.618v-.14c-.042-.636-.211-1.116-.508-1.442-.297-.325-.709-.488-1.235-.488zm12.493 2.945c0 1.308-.297 2.35-.891 3.13-.594.778-1.39 1.167-2.39 1.167-.928 0-1.67-.304-2.227-.914v4.008h-1.899v-11.703h1.75l.078.86c.558-.678 1.316-1.016 2.274-1.016 1.031 0 1.84.384 2.426 1.152.586.768.879 1.835.879 3.2v.116zm-1.891-.164c0-.843-.168-1.513-.504-2.007-.336-.495-.816-.743-1.441-.743-.776 0-1.334.32-1.672.961v3.75c.344.657.906.985 1.687.985.604 0 1.077-.244 1.418-.73.341-.488.512-1.226.512-2.216zm5.469-4.148v6.937h2.64v-6.937h1.899v6.937h2.648v-6.937h1.89V394h-10.976v-8.453h1.899zm16.414 0h1.89V394h-1.89v-5.64l-3.313 5.64h-1.89v-8.453h1.89v5.64l3.313-5.64zm10.562 1.508h-2.742V394h-1.898v-6.945h-2.711v-1.508h7.351v1.508zm3.305 1.18h1.86c.692 0 1.296.12 1.812.359.515.24.907.575 1.176 1.008.268.432.402.934.402 1.507 0 .87-.307 1.568-.922 2.094-.614.526-1.432.792-2.453.797h-3.773v-8.453h1.898v2.687zm0 1.523v2.726h1.852c.463 0 .829-.116 1.097-.347.268-.232.403-.561.403-.989 0-.427-.132-.764-.395-1.011-.263-.248-.618-.374-1.066-.38h-1.891zM189.59 394h-1.899v-6.922h-3.296V394h-1.899v-8.453h7.094V394zm1.664-4.305c0-.828.164-1.574.492-2.238.328-.664.79-1.174 1.383-1.531.594-.357 1.276-.535 2.047-.535 1.14 0 2.066.367 2.777 1.101.711.735 1.095 1.709 1.152 2.922l.008.445c0 .834-.16 1.578-.48 2.235a3.551 3.551 0 0 1-1.375 1.523c-.597.36-1.285.54-2.067.54-1.192 0-2.147-.398-2.863-1.192-.716-.794-1.074-1.853-1.074-3.176v-.094zm1.898.164c0 .87.18 1.551.54 2.043.359.493.859.739 1.5.739.64 0 1.139-.25 1.495-.75.357-.5.536-1.232.536-2.196 0-.854-.184-1.53-.551-2.03-.367-.5-.866-.75-1.496-.75-.62 0-1.112.245-1.477.737-.364.493-.547 1.228-.547 2.207zm7.602 2.625c.526-.588.879-1.147 1.059-1.675.18-.53.287-1.205.324-2.028l.11-3.234h5.866v6.937h1.172v4.032h-1.89V394h-5.422v2.516h-1.922l.008-4.032h.695zm2.226 0h3.243v-5.304h-2.133l-.055 1.617c-.073 1.552-.424 2.781-1.055 3.687zm10.696-4.156l1.61-2.781h2.109l-2.586 4.164L217.48 394h-2.093l-1.688-2.89-1.68 2.89h-2.109l2.672-4.29-2.578-4.163h2.094l1.578 2.781zm4.656 1.367c0-.828.164-1.574.492-2.238.328-.664.79-1.174 1.383-1.531.594-.357 1.276-.535 2.047-.535 1.14 0 2.066.367 2.777 1.101.711.735 1.095 1.709 1.153 2.922l.007.445c0 .834-.16 1.578-.48 2.235a3.551 3.551 0 0 1-1.375 1.523c-.596.36-1.285.54-2.066.54-1.193 0-2.148-.398-2.864-1.192-.716-.794-1.074-1.853-1.074-3.176v-.094zm1.898.164c0 .87.18 1.551.54 2.043.359.493.859.739 1.5.739.64 0 1.139-.25 1.496-.75.356-.5.535-1.232.535-2.196 0-.854-.184-1.53-.551-2.03-.367-.5-.866-.75-1.496-.75-.62 0-1.112.245-1.477.737-.364.493-.547 1.228-.547 2.207zm7.602 2.625c.526-.588.879-1.147 1.059-1.675.18-.53.287-1.205.324-2.028l.11-3.234h5.866v6.937h1.172v4.032h-1.89V394h-5.422v2.516h-1.922l.008-4.032h.695zm2.227 0h3.242v-5.304h-2.133l-.055 1.617c-.073 1.552-.424 2.781-1.054 3.687z"/><path fill="#000" fill-opacity=".87" d="M112.287 156.043H91.044V116.31c0-4.598 1.888-8.78 4.93-11.811a16.848 16.848 0 0 1 7.501-4.341l8.812 55.884zm3.312-1.859h1.155a.902.902 0 0 1-.9-.897v-1.934c0-.494.405-.898.9-.898h6.126v-23.683l-12.547-5.982 5.266 33.394zm34.385-3.73l4.625-7.887-1.27-3.286-.582.219a1.487 1.487 0 0 1-1.907.606l-23.732-11.313v21.662h22.866zm7.677 0l-1.366-3.531-2.073 3.532h3.439zm-30.419-60.573a1.815 1.815 0 0 0-1.817 1.811c0 1 .815 1.81 1.817 1.81 1.005 0 1.818-.81 1.818-1.81s-.813-1.811-1.818-1.811zm3.025 23.25c-.406 2.483-1.733 11.234-6.096 10.273-2.438-.538-2.894-2.52-2.058-5.945 1.26-5.177 2.213-5.324 2.752-10.395.033-.318.13-.636.273-.94-.168-.528-.216-1.067-.103-1.537.359-1.47.803-3.5 1.212-5.424-3.705-.486-6.565-3.646-6.565-7.47 0-4.163 3.384-7.537 7.56-7.537 4.177 0 7.561 3.374 7.561 7.536a7.534 7.534 0 0 1-4.315 6.807c.37 2.437.606 4.982.181 7.513a2.919 2.919 0 0 1-.39.98c.328 1.876.288 4.303-.012 6.14zm54.89 19.013c.646-.405 1.693-.624 2.432-.85 1.202-.372 2.267-.847 3.303-1.571.6-.42 1.293-1.198 1.996-1.359.557-.127 1.107.146 1.506.562.504-.825.757-1.66.51-2.397-.265-.79-1.001-1.17-1.43-1.073-.56.13-.993.705-1.815 1.28-2.534 1.772-4.734 1.786-5.763 2.44-.438.278-.296.132-.484 1.109-.115.594-.356 1.034-.695 1.363l.44.496zm6.07 3.063c.62-.492 1.271-1.064 1.825-1.705 1.014-1.174 1.745-2.478 1.38-3.568-.266-.791-1.003-1.17-1.43-1.073-.561.129-.992.704-1.816 1.28-2.534 1.77-4.734 1.786-5.763 2.44-.438.278-.296.132-.484 1.109-.302 1.567-1.49 2.065-2.994 2.279.757 1.673.57 2.18 2.044 3.07.442.717.617 1.239.938 1.261 1.194.082 2.655-1.53 3.7-2.76a1.815 1.815 0 0 0 1.63 1.009c1.003 0 1.816-.81 1.816-1.81 0-.645-.337-1.211-.846-1.532zm-40.092 1.754c.063-.036 1.134-.443 1.134-.443 1.472-.11 2.815-.716 4.064-1.522l11.037-4.132c2.662-.998 3.254-.04 4.329 1.7.204.333.44.714.71 1.065.497.65.372 1.58-.28 2.076a1.49 1.49 0 0 1-2.084-.278c-.392-.512-.655-.937-.885-1.307-.245-.4-.381-.62-.742-.484l-11.376 4.26 4.858 12.559h9.335l11.037-12.372c.252.465.61.867 1.34 1.323.283.497.606 1.268 1.178 1.389l-9.252 10.371c.012.06.02 2.121.02 2.121a.901.901 0 0 1-.902.897h1.467c.376 0 .684.308.684.68v1.469c0 .372-.31.68-.684.68h-4.706a.685.685 0 0 1-.683-.68v-1.468c0-.375.309-.68.683-.68h-51.423c.376 0 .683.307.683.68v1.468c0 .372-.308.68-.683.68h-1.851v1.86a.903.903 0 0 1-.9.898h1.465c.376 0 .683.308.683.68v1.468c0 .374-.307.681-.683.681h-4.706a.685.685 0 0 1-.683-.68v-1.468c0-.375.309-.681.683-.681H91.044v.492c.016.059.026 1.656.026 1.656 0 .374-.308.681-.683.681h-4.704a.684.684 0 0 1-.683-.68v-1.468c0-.375.306-.681.683-.681h1.465a.902.902 0 0 1-.9-.897v-1.934c0-.493.406-.897.9-.897h.32V116.31c0-5.58 2.29-10.654 5.98-14.331a20.423 20.423 0 0 1 9.47-5.358l-1.933-12.254 3.52-.543.378 2.407a.672.672 0 0 1 1.31.079l.977 6.178c.119.752.594 1.167 1.137 1.291a1.874 1.874 0 0 0 1.344-.212c.479-.285.802-.824.682-1.577a.671.671 0 0 1 1.326-.208c.219 1.378-.406 2.385-1.322 2.931a3.209 3.209 0 0 1-2.33.366c-.872-.2-1.65-.772-2.006-1.766l3.88 24.608a1.49 1.49 0 0 1 1.28-.018l11.115 5.299a3.861 3.861 0 0 1-.671-1.083c.402.845 1.159 1.496 2.456 1.782 3.125.689 4.728-2.836 5.496-5.222.578-1.793.913-3.613 1.215-5.467.308-1.886.349-4.213.043-6.125.167-.308.295-.64.358-.983.432-2.58.203-5.12-.178-7.652a7.535 7.535 0 0 0 4.534-6.907c0-1.737-.59-3.337-1.58-4.61.601-.263 1.106-.501 1.184-.556a.916.916 0 0 0 .4-.703 1.049 1.049 0 0 0-.978-1.116l-2.036.967a7.548 7.548 0 0 0-5.416-1.469A7.563 7.563 0 0 1 134.245 79c4.176 0 7.562 3.373 7.562 7.536 0 3.712-2.694 6.797-6.24 7.42.408 2.575.705 5.28.253 7.97-.061.332-.2.667-.39.98.327 1.876.287 4.303-.013 6.14-.098.603-.251 1.575-.489 2.689 1.361.4 2.674 1.253 4.173 2.653 3.32 3.098 6.261 6.756 10.679 8.402l.546.123 1.385-.523c1.62-1.122 12.94-7.26 12.94-7.26 3.081-1.607 5.592-3.404 7.94-.354l12.636 14.281c-.256.285-.207.555-.318 1.132-.09.467-.277.812-.533 1.074l-11.864-13.406c-2.51-3.247-5.3-1.519-8.151.004 0 0-3.898 1.944-5.542 2.824-1.013.543-2.027 1.086-3.031 1.646-.641.357-1.334.733-1.948 1.144l-1.964-.01-3.068.475-.464.554 3.57-.52 2.083.013c1.619-1.122 10.254-5.49 10.254-5.49 3.048-1.597 5.537-3.342 7.866-.316l12.638 14.28c-.257.286-.209.555-.32 1.133-.26 1.352-1.328 1.694-2.561 1.868l-.592.085-9.778-6.48c-.349-.91-1.808-5.21-2.392-5.334l.154.216-10.161 8.286c-2.633 2.147-4.906 4.036-7.81 3.733-2.353-.246-3.988-1.571-5.568-2.86-.11.018-.235-.078-.36-.173.022.19.047.383.076.583-4.79-3.75-8.309-4.3-11.768-5.228-.398-.07-.8-.145-1.205-.227l18.665 8.898zm-28.358-25.334c-.077-.04-.124-.13-.115-.305-.158-.152-.352-.285-.576.28-.023.061-.628.214-.34-.569a.425.425 0 0 0-.368-.396c-.24.182-.394.173-.636.057.217-.582-.016-1.05-.196-1.133-.218-.102-1.15.52-1.98.308-.105-.027-.206-.132-.293-.2-.19-.146-.376-.26-.835-.25-.437.011-.945-.082-1.767.06-.071-.467-.317-.934-.829-1.43.003 1.25-3.414 1.39-3.72 5.717-.091-.369-.105-.735-.07-1.226-.339 1.201-.219 2.52.648 3.448.257 1.171.584 1.418 1.391 2.265l-.052-.103c1.058 1.066 3.421 1.44 4.739 1.091.96-.254 1.449-.226 2.86-.152l.045-.004.157.021.04.005.048.007c.129.016.235.028.348.04.07-.609.195-1.226.338-1.82.47-1.927 1.068-3.571 1.71-5.425.033-.094.065-.186.094-.278-.256-.007-.508.06-.64-.008z"/><g fill="#000" transform="translate(82.5 200)"><path d="M13.408 11.446c0 2.497-.56 4.422-1.682 5.777-1.121 1.354-2.702 2.03-4.742 2.03-2.056 0-3.647-.68-4.773-2.043S.522 13.926.522 11.446V8.07c0-2.496.561-4.422 1.683-5.776C3.326.939 4.91.262 6.959.262c2.048 0 3.635.681 4.76 2.044 1.126 1.362 1.69 3.288 1.69 5.776v3.364zM9.13 7.523c0-1.328-.174-2.32-.52-2.977-.348-.656-.898-.984-1.651-.984-.736 0-1.272.305-1.606.915-.334.609-.514 1.531-.54 2.767v4.723c0 1.38.174 2.389.521 3.028.347.639.897.958 1.65.958.728 0 1.266-.31 1.613-.933.347-.622.524-1.597.533-2.926v-4.57zm19.335 3.923c0 2.497-.56 4.422-1.682 5.777-1.122 1.354-2.702 2.03-4.742 2.03-2.057 0-3.648-.68-4.773-2.043-1.126-1.363-1.689-3.284-1.689-5.764V8.07c0-2.496.56-4.422 1.682-5.776C18.383.939 19.967.262 22.016.262c2.048 0 3.635.681 4.76 2.044 1.126 1.362 1.689 3.288 1.689 5.776v3.364zm-4.278-3.923c0-1.328-.174-2.32-.521-2.977-.347-.656-.897-.984-1.65-.984-.737 0-1.272.305-1.606.915-.335.609-.514 1.531-.54 2.767v4.723c0 1.38.174 2.389.52 3.028.348.639.898.958 1.651.958.728 0 1.265-.31 1.612-.933.347-.622.525-1.597.534-2.926v-4.57zM56.408 11.446c0 2.497-.56 4.422-1.682 5.777-1.121 1.354-2.702 2.03-4.742 2.03-2.056 0-3.647-.68-4.773-2.043s-1.689-3.284-1.689-5.764V8.07c0-2.496.561-4.422 1.683-5.776C46.326.939 47.91.262 49.959.262c2.048 0 3.635.681 4.76 2.044 1.126 1.362 1.69 3.288 1.69 5.776v3.364zM52.13 7.523c0-1.328-.174-2.32-.52-2.977-.348-.656-.898-.984-1.651-.984-.736 0-1.272.305-1.606.915-.334.609-.514 1.531-.54 2.767v4.723c0 1.38.174 2.389.521 3.028.347.639.897.958 1.65.958.728 0 1.266-.31 1.613-.933.347-.622.524-1.597.533-2.926v-4.57zm14.93 4.33c-.923.829-1.956 1.244-3.098 1.244-1.676 0-3.005-.567-3.986-1.701-.982-1.135-1.473-2.65-1.473-4.545 0-1.185.275-2.286.825-3.301a6.192 6.192 0 0 1 2.317-2.412c.994-.593 2.093-.889 3.294-.889 1.22 0 2.322.307 3.308.92.986.614 1.754 1.482 2.304 2.603.55 1.121.833 2.414.85 3.878v1.638c0 2.04-.4 3.809-1.2 5.307a8.282 8.282 0 0 1-3.42 3.453c-1.482.804-3.208 1.206-5.18 1.206h-.267v-3.428l.812-.013c2.946-.143 4.583-1.464 4.914-3.96zm-1.943-1.841c.931 0 1.6-.402 2.006-1.206V7.028c0-1.185-.199-2.06-.597-2.628-.397-.567-.935-.85-1.612-.85-.6 0-1.104.321-1.51.965-.407.643-.61 1.422-.61 2.336 0 .964.207 1.732.622 2.304.415.571.982.857 1.701.857zM97.872 11.776h1.879v3.301h-1.879V19h-4.278v-3.923h-7.148l-.254-2.615L93.594.554V.516h4.278v11.26zm-7.604 0h3.326V6.09l-.267.432-3.06 5.255zM111.113 19h-4.29V5.34l-4.216 1.231v-3.25L110.72.516h.393V19z"/></g></g><g transform="translate(0 500)"><path fill="#F2F2F2" d="M20 0h240c15 0 20 5 20 20v30H0V20C0 5 5 0 20 0z" transform="matrix(1 0 0 -1 0 50)"/><use stroke="#000" stroke-opacity=".196" stroke-width="4" mask="url(#d)" xlink:href="#a"/><use stroke="#000" stroke-opacity=".23" stroke-width="4" mask="url(#e)" xlink:href="#b"/></g></g><path fill="#BCAD4A" d="M309.433 372.74c2.203-7.981 10.585-15.69 18.73-17.222l69.88-13.134c8.142-1.53 9.025.741 1.953 5.086l-64.527 39.64-6.32 72.077-23.417-24.866c-5.68-6.03-8.494-17.4-6.294-25.37l9.995-36.211z" filter="url(#f)"/><path fill="#F2CEB4" d="M333.823 589.244c63.839 56.442 49.444 180.51 14.708 219.997 0 0-6.267 34.603-1.666 65.934 27.014 10.532 63.814 32.09 79.587 49.392 16.664 18.279 11.892 50.769 5.433 58.547-9.057 10.908-21.214 16.859-36.413 10.868-27.651-10.897-73.02-41.62-99.776-44.442-24.597-2.595-29.044-45.497-41.978-87.785-7.34-23.996-32.85-72.574-41.475-113.03C181.021 602.286 50.705 323.848.341 280.102l217.07 10.802s53.45 242.674 116.412 298.34" transform="matrix(1 0 0 -1 0 1276.462)"/><path fill="#FEDFC8" d="M632.698 434.892c-4.823 5.053-21.437 12.375-26.261 17.428-1.966 2.06-3.353 15.178-3.23 19.23.084 2.729-.89 14.452.857 16.547 2.385 2.86 15.767-.946 18.484-3.879 3.823-4.126 7.138-9.054 7.434-12.902.923-12.023 2.716-36.424 2.716-36.424" transform="matrix(1 0 0 -1 0 924.001)"/><path fill="#FEDFC8" d="M595.268 526.658c-1.57 1.615-3.177 3.286-4.027 5.373-.905 2.223-1.332 21.35-.031 23.002 1.212 1.54 3.523 2.263 5.15 2.263 1.383 0 2.124.257 3.631-.876 2.474-1.86 4.895-8.712 5.474-12.741 1.355-9.423 3.677-28.813 3.677-28.813" transform="matrix(1 0 0 -1 0 1072.187)"/><path fill="#FEDFC8" d="M619.953 337.166c.5.014 21.883-20.4 30.247-30.855.304-.38-2.41-3.285-2.893-3.336-5.438-.568-26.615 15.388-28.671 23.193-1.365 5.185-.04 9.376 1.317 10.998" transform="matrix(1 0 0 -1 0 640.126)"/><path fill="#FEDFC8" d="M426.966 315.937c-2.679 4.746-16.474 13.632-23.75 11.282-5.178-1.673-37.563-16.608-37.635-17.968 9.552.695 30.592-16.884 35.993-24.81 16.898 12.928 33.528 17.08 25.392 31.496" transform="matrix(1 0 0 -1 0 612.048)"/></g></svg>
