<svg viewBox="0 0 150 150" xmlns="http://www.w3.org/2000/svg" xmlns:xlink="http://www.w3.org/1999/xlink"><g fill-rule="evenodd"><path d="m112 70c0-8.335-1.591-17.912-5.459-26.13-.235-.5-.831-.714-1.331-.479-.5.235-.714.831-.479 1.331 3.723 7.911 5.269 17.213 5.269 25.279 0 11.76-3.65 26.342-9.833 36.93-.279.477-.118 1.089.359 1.368.477.279 1.089.118 1.368-.359 6.369-10.906 10.11-25.835 10.11-37.938m-37-46c-15.14 0-25.328 7.116-31.27 19.312-4.06 8.327-5.726 18.13-5.726 26.688 0 8.493 1.907 18.781 5.354 27.877.196.516.773.776 1.289.581.516-.196.776-.773.581-1.289-3.362-8.871-5.225-18.919-5.225-27.17 0-8.28 1.618-17.801 5.524-25.812 5.626-11.541 15.14-18.19 29.476-18.19 12.245 0 20.998 4.871 26.833 13.573.308.459.929.581 1.387.274.459-.308.581-.929.274-1.387-6.199-9.245-15.569-14.459-28.494-14.459m0 102c6.793 0 12.876-2.485 18.15-7.129.414-.365.454-.997.089-1.411-.365-.414-.997-.454-1.411-.089-4.92 4.333-10.54 6.63-16.826 6.63-11.55 0-20.881-7.807-27.345-21.17-.241-.497-.839-.705-1.336-.465-.497.241-.705.839-.465 1.336 6.765 13.981 16.702 22.295 29.15 22.295"/><path d="m123.08 70.14c.342 5.976-.238 13.02-2.478 19.712-2.624 7.838-7.177 13.816-14.05 17.252-.494.247-.694.848-.447 1.342.247.494.848.694 1.342.447 7.394-3.697 12.272-10.1 15.05-18.406 2.334-6.972 2.934-14.253 2.579-20.461-.018-.314-.037-.591-.057-.828-.012-.145-.021-.247-.027-.302-.057-.549-.548-.949-1.098-.892-.549.057-.949.548-.892 1.098.018.178.047.531.076 1.039"/><path d="m93.85 112.71l7.782-4.493c1.437-.83 3.278-.338 4.104 1.094.83 1.437.338 3.269-1.104 4.102l-7.782 4.493c-1.437.83-3.278.338-4.104-1.094-.83-1.437-.338-3.269 1.104-4.102m4 6.928l7.782-4.493c2.399-1.385 3.218-4.44 1.836-6.834-1.379-2.389-4.443-3.208-6.836-1.827l-7.782 4.493c-2.399 1.385-3.218 4.44-1.836 6.834 1.379 2.389 4.443 3.208 6.836 1.827"/><path d="m110.73 61.56c.31.064.659.152 1.036.27 1.082.338 2.164.839 3.169 1.53 2.86 1.966 4.567 5.06 4.567 9.645 0 4.585-1.707 7.679-4.567 9.645-1.01.691-2.087 1.192-3.169 1.53-.377.118-.726.207-1.036.27-.179.037-.3.056-.353.063l-.992.124.248 1.985.992-.124c.368-.046.973-.17 1.737-.409 1.262-.394 2.524-.978 3.706-1.791 3.39-2.331 5.433-6.03 5.433-11.293 0-5.259-2.043-8.962-5.433-11.293-1.182-.813-2.444-1.396-3.706-1.791-.764-.239-1.368-.363-1.737-.409l-.992-.124-.248 1.985.992.124c.053.007.174.026.353.063"/><path d="m23.15 125.44c-.391.391-.391 1.024 0 1.414.391.391 1.024.391 1.414 0l102.65-102.65c.391-.391.391-1.024 0-1.414-.391-.391-1.024-.391-1.414 0l-102.65 102.65"/></g></svg>