<svg viewBox="0 0 150 150" xmlns="http://www.w3.org/2000/svg" xmlns:xlink="http://www.w3.org/1999/xlink"><g fill-rule="evenodd" transform="translate(-5)"><g transform="matrix(.96593.25882-.25882.96593 35.06 78.78)"><path d="m46.01 2c7.729 0 13.994 6.267 13.994 14 0 7.735-6.264 14-14.01 14h-24.17v2h24.17c8.846 0 16.01-7.16 16.01-16 0-8.838-7.16-16-15.994-16h-3.748v2h3.748m-44.01 14c0-7.735 6.263-14 14-14h18.947v-2h-18.947c-8.843 0-16 7.16-16 16 0 7.304 4.935 13.625 11.897 15.468l.512-1.933c-6.091-1.612-10.409-7.144-10.409-13.535"/><path d="m45.01 8c4.414 0 7.991 3.581 7.991 8 0 4.422-3.578 8-8.01 8h-21.302v2h21.302c5.533 0 10.01-4.474 10.01-10 0-5.523-4.473-10-9.991-10h-3.119v2h3.119m-36.01 8c0-4.418 3.581-8 7.996-8h17.251v-2h-17.251c-5.52 0-9.996 4.478-9.996 10 0 5.524 4.48 10 10.01 10v-2c-4.422 0-8.01-3.581-8.01-8"/></g><g transform="matrix(.86603-.5.5.86603 59.63 90.63)"><path d="m60 16c0 7.735-6.264 14-14.01 14h-28.666v2h28.666c8.846 0 16.01-7.16 16.01-16 0-8.577-6.758-15.618-15.293-15.985l-.086 1.998c7.466.321 13.379 6.482 13.379 13.987m-58 0c0-7.729 6.272-14 13.999-14h22.848v-2h-22.848c-8.831 0-15.999 7.166-15.999 16 0 5.746 3.055 10.961 7.922 13.813l1.01-1.726c-4.261-2.497-6.933-7.06-6.933-12.09"/><path d="m53 16c0 4.422-3.578 8-8.01 8h-24.371v2h24.371c5.533 0 10.01-4.474 10.01-10 0-5.525-4.478-10-10.01-10v2c4.424 0 8.01 3.58 8.01 8m-44 0c0-4.417 3.588-8 8.01-8h21.16v-2h-21.16c-5.526 0-10.01 4.478-10.01 10 0 3.992 2.362 7.553 5.949 9.144l.811-1.828c-2.871-1.274-4.76-4.122-4.76-7.316"/></g><g transform="matrix(.96593-.25882.25882.96593 88.78 57.822)"><path d="m15.992 30c-7.728 0-13.992-6.267-13.992-14 0-7.735 6.264-14 14.01-14h29.99c7.736 0 14.01 6.267 14.01 14 0 7.729-6.273 14-14 14h-19.03v2h19.03c8.832 0 16-7.166 16-16 0-8.838-7.165-16-16.01-16h-29.99c-8.846 0-16.01 7.16-16.01 16 0 8.838 7.159 16 15.992 16h3.42v-2h-3.42"/><path d="m16.999 24c-4.418 0-7.999-3.581-7.999-8 0-4.422 3.578-8 8.01-8h27.988c4.422 0 8.01 3.581 8.01 8 0 4.423-3.577 8-8.01 8h-18.04v2h18.04c5.535 0 10.01-4.473 10.01-10 0-5.524-4.48-10-10.01-10h-27.988c-5.533 0-10.01 4.474-10.01 10 0 5.524 4.476 10 9.999 10h2.604v-2h-2.604"/></g><g transform="matrix(.5.86603-.86603.5 28.347 55.634)"><path d="m46 2c7.73 0 13.996 6.267 13.996 14 0 7.735-6.264 14-14.01 14h-29.99c-4.453 0-8.556-2.089-11.187-5.576l-1.596 1.205c3.01 3.982 7.697 6.371 12.784 6.371h29.99c8.846 0 16.01-7.16 16.01-16 0-8.838-7.161-16-15.996-16h-7.187v2h7.187m-30.98.033c.321-.022.644-.033.968-.033h5.828 10.07v-2h-10.07-5.828c-.37 0-.738.013-1.104.038-8.353.572-14.888 7.541-14.888 15.962h2c0-7.368 5.719-13.467 13.02-13.967"/><path d="m44.995 8c4.422 0 8.01 3.581 8.01 8 0 4.422-3.578 8-8.01 8h-27.988c-1.176 0-2.314-.253-3.356-.734l-.839 1.816c1.304.602 2.728.919 4.195.919h27.988c5.533 0 10.01-4.474 10.01-10 0-5.524-4.479-10-10.01-10h-6.871v2h6.871m-35.995 8c0-4.42 3.581-8 8.01-8h14.12v-2h-14.12c-5.529 0-10.01 4.476-10.01 10 0 .793.093 1.575.274 2.334l1.945-.465c-.145-.607-.219-1.232-.219-1.869"/></g><g transform="matrix(.70711-.70711.70711.70711.586 67.43)"><path d="m9 16c0-4.422 3.578-8 8.01-8h27.988c4.422 0 8.01 3.581 8.01 8 0 4.419-3.583 8-8.01 8h-21.702v2h21.702c5.527 0 10.01-4.476 10.01-10 0-5.524-4.48-10-10.01-10h-27.988c-5.533 0-10.01 4.474-10.01 10 0 5.524 4.477 10 10 10l.007-2c-4.425 0-8.01-3.581-8.01-8"/><path d="m2 16c0-7.735 6.264-14 14.01-14h29.99c7.736 0 14.01 6.267 14.01 14 0 7.729-6.272 14-13.996 14h-24.372v2h24.372c8.828 0 15.996-7.167 15.996-16 0-8.838-7.165-16-16.01-16h-29.99c-8.846 0-16.01 7.16-16.01 16 0 8.838 7.16 16 15.994 16v-2c-7.729 0-13.994-6.267-13.994-14"/></g></g></svg>