<svg viewBox="0 0 150 150" xmlns="http://www.w3.org/2000/svg" xmlns:xlink="http://www.w3.org/1999/xlink"><g fill="none" fill-rule="evenodd"><g fill="#000"><path d="m52 75c0-4.971-4.03-9-9-9-4.971 0-9 4.03-9 9 0 4.971 4.03 9 9 9 4.971 0 9-4.03 9-9m-16 0c0-3.866 3.134-7 7-7 3.866 0 7 3.134 7 7 0 3.866-3.134 7-7 7-3.866 0-7-3.134-7-7"/><path d="m68 75c0-4.971-4.03-9-9-9-4.971 0-9 4.03-9 9 0 4.971 4.03 9 9 9 4.971 0 9-4.03 9-9m-16 0c0-3.866 3.134-7 7-7 3.866 0 7 3.134 7 7 0 3.866-3.134 7-7 7-3.866 0-7-3.134-7-7"/><path d="m84 75c0-4.971-4.03-9-9-9-4.971 0-9 4.03-9 9 0 4.971 4.03 9 9 9 4.971 0 9-4.03 9-9m-16 0c0-3.866 3.134-7 7-7 3.866 0 7 3.134 7 7 0 3.866-3.134 7-7 7-3.866 0-7-3.134-7-7"/><path d="m100 75c0-4.971-4.03-9-9-9-4.971 0-9 4.03-9 9 0 4.971 4.03 9 9 9 4.971 0 9-4.03 9-9m-16 0c0-3.866 3.134-7 7-7 3.866 0 7 3.134 7 7 0 3.866-3.134 7-7 7-3.866 0-7-3.134-7-7"/><path d="m116 75c0-4.971-4.03-9-9-9-4.971 0-9 4.03-9 9 0 4.971 4.03 9 9 9 4.971 0 9-4.03 9-9m-16 0c0-3.866 3.134-7 7-7 3.866 0 7 3.134 7 7 0 3.866-3.134 7-7 7-3.866 0-7-3.134-7-7"/></g><g transform="translate(0 32)"><path d="m15 80v-74c0-3.312 2.689-5.997 5.992-5.997h108.02c3.309 0 5.992 2.685 5.992 5.997v74m-8 0v-71.01c0-.547-.441-.99-.996-.99h-102.01c-.55 0-.996.441-.996.99v71.01" fill="#fff"/><g fill="#000"><path d="m134 80h1v-74c0-3.312-2.683-5.997-5.992-5.997h-108.02c-3.303 0-5.992 2.685-5.992 5.997v74h1 1v-74c0-2.205 1.791-3.997 3.992-3.997h108.02c2.204 0 3.992 1.789 3.992 3.997v74h1m-112 0h-1v-73.01c0-.549.446-.99.996-.99h106.01c.555 0 .996.443.996.99v73.01h-1-1v-72h-104v72h-1"/><path d="m7.126 81.94c1.368 1.095 4.122 2.06 5.878 2.06h123.99c1.759 0 4.507-.964 5.878-2.06l2.426-1.931-140.6-.008 2.426 1.94m-5.124-3.94h146c1.658 0 1.951.841.658 1.876l-4.533 3.626c-1.725 1.38-4.914 2.498-7.127 2.498h-123.99c-2.212 0-5.405-1.121-7.127-2.498l-4.533-3.626c-1.295-1.036-1.01-1.876.658-1.876"/></g></g></g></svg>