<svg viewBox="0 0 150 150" xmlns="http://www.w3.org/2000/svg" xmlns:xlink="http://www.w3.org/1999/xlink"><g fill="#000" fill-rule="evenodd"><g transform="matrix(.98481.17365-.17365.98481 69.21 27.682)"><path d="m2 95.01c0 1.656 1.342 2.993 3.01 2.993h59.988c1.668 0 3.01-1.337 3.01-2.993v-90.01c0-1.656-1.342-2.993-3.01-2.993h-59.988c-1.668 0-3.01 1.337-3.01 2.993v90.01m3.01-95.01h59.988c2.765 0 5.01 2.229 5.01 4.993v90.01c0 2.758-2.23 4.993-5.01 4.993h-59.988c-2.765 0-5.01-2.229-5.01-4.993v-90.01c0-2.758 2.23-4.993 5.01-4.993"/><path d="m35 96c1.105 0 2-.895 2-2 0-1.105-.895-2-2-2-1.105 0-2 .895-2 2 0 1.105.895 2 2 2"/></g><g transform="matrix(.98481.17365-.17365.98481 27.11 10)"><path d="m2 59.997c0 1.105.899 2 2.01 2h22.99c1.103 0 2.01-.9 2.01-2v-55.993c0-1.105-.899-2-2.01-2h-22.99c-1.103 0-2.01.9-2.01 2v55.993m2.01-59.997h22.99c2.212 0 4.01 1.795 4.01 4v55.993c0 2.211-1.801 4-4.01 4h-22.99c-2.212 0-4.01-1.795-4.01-4v-55.993c0-2.211 1.801-4 4.01-4"/><path d="m15.5 60c1.105 0 2-.895 2-2 0-1.105-.895-2-2-2-1.105 0-2 .895-2 2 0 1.105.895 2 2 2"/></g><g transform="matrix(.98481.17365-.17365.98481 20.509 88)"><path d="m2 44.99c0 1.117.89 2.01 1.99 2.01h16.02c1.098 0 1.99-.897 1.99-2.01v-40.98c0-1.117-.89-2.01-1.99-2.01h-16.02c-1.098 0-1.99.897-1.99 2.01v40.98m1.99-44.99h16.02c2.204 0 3.99 1.787 3.99 4.01v40.98c0 2.215-1.784 4.01-3.99 4.01h-16.02c-2.204 0-3.99-1.787-3.99-4.01v-40.98c0-2.215 1.784-4.01 3.99-4.01"/><path d="m12 45c1.105 0 2-.895 2-2 0-1.105-.895-2-2-2-1.105 0-2 .895-2 2 0 1.105.895 2 2 2"/></g></g></svg>