<svg viewBox="0 0 150 150" xmlns="http://www.w3.org/2000/svg" xmlns:xlink="http://www.w3.org/1999/xlink"><g fill-rule="evenodd" transform="translate(5 25)"><path d="m2 21h129l6.5-9.5-6.5-9.5h-129v19m130-21l8 11.5-8 11.5h-132v-23h132"/><path d="m16 43h113v2h-113z"/><g transform="translate(0 43)"><path d="m0 0h2v2h-2z"/><path d="m2 2h2v2h-2z"/><path d="m0 4h2v2h-2z"/><path d="m2 6h2v2h-2z"/><path d="m0 8h2v2h-2z"/><path d="m2 10h2v2h-2z"/><path d="m0 12h2v2h-2z"/><path d="m2 14h2v2h-2z"/><path d="m0 16h2v2h-2z"/><path d="m4 0h2v2h-2z"/><path d="m4 4h2v2h-2z"/><path d="m4 8h2v2h-2z"/><path d="m4 12h2v2h-2z"/><path d="m4 16h2v2h-2z"/></g><path d="m16 51h93v2h-93z"/><path d="m16 59h104v2h-104z"/><path d="m0 81h81v2h-81z"/><path d="m0 89h127v2h-127z"/><path d="m0 97h97v2h-97z"/></g></svg>