<svg viewBox="0 0 150 150" xmlns="http://www.w3.org/2000/svg" xmlns:xlink="http://www.w3.org/1999/xlink"><g fill-rule="evenodd" transform="translate(0-6)"><path d="m28.925 119.53c.233-.196.502-.427.805-.691.863-.751 1.825-1.617 2.859-2.586 2.955-2.768 5.91-5.811 8.67-9.04 5.601-6.553 9.677-13.01 11.576-19.12.765-2.458 1.163-4.828 1.163-7.097 0-2.269-.398-4.639-1.163-7.097-1.9-6.101-5.975-12.562-11.576-19.12-2.76-3.23-5.715-6.273-8.67-9.04-1.035-.969-1.996-1.835-2.859-2.586-.303-.264-.572-.494-.805-.691-.141-.119-.239-.2-.291-.243l-1.268 1.547c.045.037.136.113.27.226.225.19.487.414.782.671.846.736 1.789 1.585 2.805 2.537 2.904 2.72 5.809 5.712 8.517 8.881 5.44 6.365 9.383 12.615 11.187 18.41.708 2.275 1.073 4.446 1.073 6.503 0 2.056-.365 4.228-1.073 6.503-1.805 5.795-5.747 12.04-11.187 18.41-2.708 3.169-5.613 6.16-8.517 8.881-1.016.952-1.959 1.801-2.805 2.537-.295.257-.557.481-.782.671-.134.113-.225.189-.27.226l1.268 1.547c.052-.043.15-.124.291-.243m5.545-82.6c.196.233.427.502.691.805.751.863 1.617 1.825 2.586 2.859 2.768 2.955 5.811 5.91 9.04 8.67 6.553 5.601 13.01 9.677 19.12 11.576 2.458.765 4.828 1.163 7.097 1.163 2.269 0 4.639-.398 7.097-1.163 6.101-1.9 12.562-5.975 19.12-11.576 3.23-2.76 6.273-5.715 9.04-8.67.969-1.035 1.835-1.996 2.586-2.859.264-.303.494-.572.691-.805.119-.141.2-.239.243-.291l-1.547-1.268c-.037.045-.113.136-.226.27-.19.225-.414.487-.671.782-.736.846-1.585 1.789-2.537 2.805-2.72 2.904-5.712 5.809-8.881 8.517-6.365 5.44-12.615 9.383-18.41 11.187-2.275.708-4.446 1.073-6.503 1.073-2.056 0-4.228-.365-6.503-1.073-5.795-1.805-12.04-5.747-18.41-11.187-3.169-2.708-6.16-5.613-8.881-8.517-.952-1.016-1.801-1.959-2.537-2.805-.257-.295-.481-.557-.671-.782-.113-.134-.189-.225-.226-.27l-1.547 1.268c.043.052.124.15.243.291m82.6 5.545c-.233.196-.502.427-.805.691-.863.751-1.825 1.617-2.859 2.586-2.955 2.768-5.91 5.811-8.67 9.04-5.601 6.553-9.677 13.01-11.576 19.12-.765 2.458-1.163 4.828-1.163 7.097 0 6.538 3.259 13.795 8.941 21.456 4.03 5.432 8.861 10.534 13.711 14.943.726.66 1.389 1.245 1.975 1.749.353.304.604.514.739.625l1.268-1.547c-.123-.101-.362-.301-.703-.595-.572-.492-1.221-1.065-1.933-1.712-12.565-11.424-21.997-24.14-21.997-34.92 0-2.056.365-4.228 1.073-6.503 1.805-5.795 5.747-12.04 11.187-18.41 2.708-3.169 5.613-6.16 8.517-8.881 1.016-.952 1.959-1.801 2.805-2.537.295-.257.557-.481.782-.671.134-.113.225-.189.27-.226l-1.268-1.547c-.052.043-.15.124-.291.243m-5.545 82.6c-.196-.233-.427-.502-.691-.805-.751-.863-1.617-1.825-2.586-2.859-2.768-2.955-5.811-5.91-9.04-8.67-6.553-5.601-13.01-9.677-19.12-11.576-2.458-.765-4.828-1.163-7.097-1.163-2.269 0-4.639.398-7.097 1.163-6.101 1.9-12.562 5.975-19.12 11.576-3.23 2.76-6.273 5.715-9.04 8.67-.969 1.035-1.835 1.996-2.586 2.859-.264.303-.494.572-.691.805-.119.141-.2.239-.243.291l1.547 1.268c.037-.045.113-.136.226-.27.19-.225.414-.487.671-.782.736-.846 1.585-1.789 2.537-2.805 2.72-2.904 5.712-5.809 8.881-8.517 6.365-5.44 12.615-9.383 18.41-11.187 2.275-.708 4.446-1.073 6.503-1.073 2.056 0 4.228.365 6.503 1.073 5.795 1.805 12.04 5.747 18.41 11.187 3.169 2.708 6.16 5.613 8.881 8.517.952 1.016 1.801 1.959 2.537 2.805.257.295.481.557.671.782.113.134.189.225.226.27l1.547-1.268c-.043-.052-.124-.15-.243-.291"/><path d="m34 37c0-2.761-2.239-5-5-5-2.761 0-5 2.239-5 5 0 2.761 2.239 5 5 5 2.761 0 5-2.239 5-5m-12 0c0-3.866 3.134-7 7-7 3.866 0 7 3.134 7 7 0 3.866-3.134 7-7 7-3.866 0-7-3.134-7-7"/><g transform="translate(1 6)"><path d="m32.575 19.29c.135-.35.537-.904.826-1.138l19.01-15.383.376 1.505c.062.247-.034.734-.186.941-.11.15-.11.15-.606.826-.482.657-1.02 1.39-1.599 2.178-1.654 2.253-3.311 4.507-4.859 6.61-3.02 4.097-5.223 7.083-6.338 8.57-.158.211-.406.46-.732.733-.475.398-1.093.83-1.817 1.278-.672.416-1.397.823-2.122 1.202-.254.133-.49.253-.7.357-.125.062-.213.105-.258.126l-.903.429.859 1.806.903-.429c.054-.026.153-.073.288-.141.223-.111.472-.237.739-.377.764-.4 1.529-.83 2.247-1.274.799-.495 1.491-.978 2.049-1.445.434-.364.786-.717 1.048-1.066 1.12-1.494 3.329-4.482 6.309-8.531 1.588-2.158 3.245-4.412 4.9-6.666.579-.789 1.117-1.521 1.599-2.179.496-.676.496-.676.606-.827.504-.687.72-1.785.513-2.609l-.516-2.063c-.312-1.247-1.617-1.684-2.614-.878l-19.455 15.75c-.562.455-1.174 1.297-1.435 1.975l-2.142 5.569-.359.933 1.867.718.359-.933 2.142-5.569"/><path d="m4.367 50.851c.135-.35.537-.904.826-1.138l19.01-15.383.376 1.505c.062.247-.034.734-.186.941-.11.15-.11.15-.606.826-.482.657-1.02 1.39-1.599 2.178-1.654 2.253-3.311 4.507-4.859 6.61-3.02 4.097-5.223 7.083-6.338 8.57-.158.211-.406.46-.732.733-.475.398-1.093.83-1.817 1.278-.672.416-1.397.823-2.122 1.202-.254.133-.49.253-.7.357-.125.062-.213.105-.258.126l-.903.429.859 1.806.903-.429c.054-.026.153-.073.288-.141.223-.111.472-.237.739-.377.764-.4 1.529-.83 2.247-1.274.799-.495 1.491-.978 2.049-1.445.434-.364.786-.717 1.048-1.066 1.12-1.494 3.329-4.482 6.309-8.531 1.588-2.158 3.245-4.412 4.9-6.666.579-.789 1.117-1.521 1.599-2.179.496-.676.496-.676.606-.827.504-.687.72-1.785.513-2.609l-.516-2.063c-.312-1.247-1.617-1.684-2.614-.878l-19.455 15.75c-.562.455-1.174 1.297-1.435 1.975l-2.142 5.569-.359.933 1.867.718.359-.933 2.142-5.569" transform="matrix(-1 0 0-1 26.598 92.89)"/></g><path d="m117 49c2.201 0 4.317-.594 6.164-1.702l-1.029-1.715c-1.539.923-3.3 1.418-5.136 1.418-1.134 0-2.241-.188-3.288-.553l-.657 1.889c1.258.438 2.587.664 3.945.664m12-12c0-6.627-5.373-12-12-12-2.061 0-4.049.521-5.814 1.5l.97 1.749c1.469-.815 3.124-1.249 4.843-1.249 5.523 0 10 4.477 10 10 0 .613-.055 1.219-.164 1.813l1.967.36c.13-.712.196-1.438.196-2.173m-24 0c0 1.447.257 2.86.752 4.189l1.874-.698c-.412-1.106-.626-2.283-.626-3.491 0-.714.075-1.417.221-2.103l-1.956-.418c-.176.823-.265 1.667-.265 2.521"/><path d="m41 37c0-1.973-.477-3.879-1.378-5.588l-1.769.932c.75 1.423 1.147 3.01 1.147 4.655 0 1.112-.181 2.198-.532 3.228l1.893.645c.421-1.237.639-2.541.639-3.873m-12-12c-6.627 0-12 5.373-12 12 0 1.534.288 3.03.843 4.426l1.859-.738c-.462-1.163-.702-2.408-.702-3.688 0-5.523 4.477-10 10-10 .928 0 1.838.126 2.714.372l.541-1.925c-1.051-.296-2.144-.447-3.255-.447m0 24c1.381 0 2.732-.234 4.01-.686l-.668-1.885c-1.063.376-2.187.571-3.34.571-1.065 0-2.106-.166-3.096-.488l-.619 1.902c1.19.387 2.439.586 3.715.586"/><path d="m117 113c-1.323 0-2.618.215-3.847.63l.641 1.895c1.023-.346 2.102-.525 3.206-.525 1.185 0 2.34.206 3.429.603l.686-1.879c-1.307-.477-2.695-.724-4.114-.724m-12 12c0 1.867.427 3.675 1.238 5.313l1.793-.887c-.675-1.364-1.03-2.869-1.03-4.427 0-1.171.201-2.314.589-3.391l-1.882-.678c-.466 1.294-.708 2.666-.708 4.069m12 12c6.627 0 12-5.373 12-12 0-1.556-.297-3.073-.867-4.487l-1.855.748c.475 1.177.722 2.44.722 3.738 0 5.523-4.477 10-10 10-1.125 0-2.223-.185-3.263-.544l-.652 1.891c1.249.431 2.568.654 3.916.654"/><path d="m29 113c-1.194 0-2.366.175-3.488.515l.58 1.914c.934-.283 1.91-.429 2.907-.429 1.172 0 2.314.201 3.392.59l.678-1.881c-1.295-.467-2.667-.708-4.07-.708m-12 12c0 6.627 5.373 12 12 12 1.317 0 2.606-.213 3.83-.625l-.638-1.895c-1.019.343-2.093.52-3.192.52-5.523 0-10-4.477-10-10 0-1.42.296-2.797.861-4.065l-1.827-.814c-.678 1.523-1.034 3.177-1.034 4.879m24 0c0-1.359-.226-2.688-.664-3.946l-1.889.657c.365 1.047.553 2.154.553 3.288 0 1.559-.356 3.065-1.032 4.43l1.792.887c.812-1.639 1.24-3.449 1.24-5.317"/><path d="m122 37c0-2.761-2.239-5-5-5-2.761 0-5 2.239-5 5 0 2.761 2.239 5 5 5 2.761 0 5-2.239 5-5m-12 0c0-3.866 3.134-7 7-7 3.866 0 7 3.134 7 7 0 3.866-3.134 7-7 7-3.866 0-7-3.134-7-7"/><path d="m122 125c0-2.761-2.239-5-5-5-2.761 0-5 2.239-5 5 0 2.761 2.239 5 5 5 2.761 0 5-2.239 5-5m-12 0c0-3.866 3.134-7 7-7 3.866 0 7 3.134 7 7 0 3.866-3.134 7-7 7-3.866 0-7-3.134-7-7"/><path d="m34 125c0-2.761-2.239-5-5-5-2.761 0-5 2.239-5 5 0 2.761 2.239 5 5 5 2.761 0 5-2.239 5-5m-12 0c0-3.866 3.134-7 7-7 3.866 0 7 3.134 7 7 0 3.866-3.134 7-7 7-3.866 0-7-3.134-7-7"/><g transform="matrix(-.96593.25882.25882.96593 135.19.051)"><path d="m31.575 19.29c.135-.35.537-.904.826-1.138l19-15.414.384 1.536c.062.247-.034.734-.186.941-.11.15-.11.15-.606.826-.482.657-1.02 1.39-1.599 2.178-1.654 2.253-3.311 4.507-4.859 6.61-3.02 4.097-5.223 7.083-6.338 8.57-.158.211-.406.46-.732.733-.475.398-1.093.83-1.817 1.278-.672.416-1.397.823-2.122 1.202-.254.133-.49.253-.7.357-.125.062-.213.105-.258.126l-.903.429.859 1.806.903-.429c.054-.026.153-.073.288-.141.223-.111.472-.237.739-.377.764-.4 1.529-.83 2.247-1.274.799-.495 1.491-.978 2.049-1.445.434-.364.786-.717 1.048-1.066 1.12-1.494 3.329-4.482 6.309-8.531 1.588-2.158 3.245-4.412 4.9-6.666.579-.789 1.117-1.521 1.599-2.179.496-.676.496-.676.606-.827.504-.687.72-1.785.513-2.609l-.516-2.063c-.312-1.247-1.617-1.684-2.614-.878l-19.455 15.75c-.562.455-1.174 1.297-1.435 1.975l-2.142 5.569-.359.933 1.867.718.359-.933 2.142-5.569"/><path d="m22.731 42.15c-.135.35-.537.904-.826 1.138l-19.01 15.384-.377-1.506c-.062-.247.034-.734.186-.941.11-.15.11-.15.606-.826.482-.657 1.02-1.39 1.599-2.178 1.654-2.253 3.311-4.507 4.859-6.61 3.02-4.097 5.223-7.083 6.338-8.57.158-.211.406-.46.732-.733.475-.398 1.093-.83 1.817-1.278.672-.416 1.397-.823 2.122-1.202.254-.133.49-.253.7-.357.125-.062.213-.105.258-.126l.903-.429-.859-1.806-.903.429c-.054.026-.153.073-.288.141-.223.111-.472.237-.739.377-.764.4-1.529.83-2.247 1.274-.799.495-1.491.978-2.049 1.445-.434.364-.786.717-1.048 1.066-1.12 1.494-3.329 4.482-6.309 8.531-1.588 2.158-3.245 4.412-4.9 6.666-.579.789-1.117 1.521-1.599 2.179-.496.676-.496.676-.606.827-.504.687-.72 1.785-.513 2.609l.516 2.063c.312 1.247 1.617 1.684 2.614.878l19.455-15.75c.562-.455 1.174-1.297 1.435-1.975l2.142-5.569.359-.933-1.867-.718-.359.933-2.142 5.569"/></g><g transform="matrix(.12187.99255.99255-.12187 82.76 101.68)"><path d="m32.575 19.29c.135-.35.537-.904.826-1.138l19.01-15.396.38 1.518c.062.247-.034.734-.186.941-.11.15-.11.15-.606.826-.482.657-1.02 1.39-1.599 2.178-1.654 2.253-3.311 4.507-4.859 6.61-3.02 4.097-5.223 7.083-6.338 8.57-.158.211-.406.46-.732.733-.475.398-1.093.83-1.817 1.278-.672.416-1.397.823-2.122 1.202-.254.133-.49.253-.7.357-.125.062-.213.105-.258.126l-.903.429.859 1.806.903-.429c.054-.026.153-.073.288-.141.223-.111.472-.237.739-.377.764-.4 1.529-.83 2.247-1.274.799-.495 1.491-.978 2.049-1.445.434-.364.786-.717 1.048-1.066 1.12-1.494 3.329-4.482 6.309-8.531 1.588-2.158 3.245-4.412 4.9-6.666.579-.789 1.117-1.521 1.599-2.179.496-.676.496-.676.606-.827.504-.687.72-1.785.513-2.609l-.516-2.063c-.312-1.247-1.617-1.684-2.614-.878l-19.455 15.75c-.562.455-1.174 1.297-1.435 1.975l-2.142 5.569-.359.933 1.867.718.359-.933 2.142-5.569"/><path d="m22.912 42.723c-.135.35-.537.904-.826 1.138l-19.01 15.38-.376-1.503c-.062-.247.034-.734.186-.941.11-.15.11-.15.606-.826.482-.657 1.02-1.39 1.599-2.178 1.654-2.253 3.311-4.507 4.859-6.61 3.02-4.097 5.223-7.083 6.338-8.57.158-.211.406-.46.732-.733.475-.398 1.093-.83 1.817-1.278.672-.416 1.397-.823 2.122-1.202.254-.133.49-.253.7-.357.125-.062.213-.105.258-.126l.903-.429-.859-1.806-.903.429c-.054.026-.153.073-.288.141-.223.111-.472.237-.739.377-.764.4-1.529.83-2.247 1.274-.799.495-1.491.978-2.049 1.445-.434.364-.786.717-1.048 1.066-1.12 1.494-3.329 4.482-6.309 8.531-1.588 2.158-3.245 4.412-4.9 6.666-.579.789-1.117 1.521-1.599 2.179-.496.676-.496.676-.606.827-.504.687-.72 1.785-.513 2.609l.516 2.063c.312 1.247 1.617 1.684 2.614.878l19.455-15.75c.562-.455 1.174-1.297 1.435-1.975l2.142-5.569.359-.933-1.867-.718-.359.933-2.142 5.569"/></g><g transform="matrix(.99985-.01745-.01745-.99985 1.922 156.67)"><path d="m32.575 19.29c.135-.35.537-.904.826-1.138l19.01-15.39.378 1.512c.062.247-.034.734-.186.941-.11.15-.11.15-.606.826-.482.657-1.02 1.39-1.599 2.178-1.654 2.253-3.311 4.507-4.859 6.61-3.02 4.097-5.223 7.083-6.338 8.57-.158.211-.406.46-.732.733-.475.398-1.093.83-1.817 1.278-.672.416-1.397.823-2.122 1.202-.254.133-.49.253-.7.357-.125.062-.213.105-.258.126l-.903.429.859 1.806.903-.429c.054-.026.153-.073.288-.141.223-.111.472-.237.739-.377.764-.4 1.529-.83 2.247-1.274.799-.495 1.491-.978 2.049-1.445.434-.364.786-.717 1.048-1.066 1.12-1.494 3.329-4.482 6.309-8.531 1.588-2.158 3.245-4.412 4.9-6.666.579-.789 1.117-1.521 1.599-2.179.496-.676.496-.676.606-.827.504-.687.72-1.785.513-2.609l-.516-2.063c-.312-1.247-1.617-1.684-2.614-.878l-19.455 15.75c-.562.455-1.174 1.297-1.435 1.975l-2.142 5.569-.359.933 1.867.718.359-.933 2.142-5.569"/><path d="m22.912 42.723c-.135.35-.537.904-.826 1.138l-19.01 15.376-.375-1.498c-.062-.247.034-.734.186-.941.11-.15.11-.15.606-.826.482-.657 1.02-1.39 1.599-2.178 1.654-2.253 3.311-4.507 4.859-6.61 3.02-4.097 5.223-7.083 6.338-8.57.158-.211.406-.46.732-.733.475-.398 1.093-.83 1.817-1.278.672-.416 1.397-.823 2.122-1.202.254-.133.49-.253.7-.357.125-.062.213-.105.258-.126l.903-.429-.859-1.806-.903.429c-.054.026-.153.073-.288.141-.223.111-.472.237-.739.377-.764.4-1.529.83-2.247 1.274-.799.495-1.491.978-2.049 1.445-.434.364-.786.717-1.048 1.066-1.12 1.494-3.329 4.482-6.309 8.531-1.588 2.158-3.245 4.412-4.9 6.666-.579.789-1.117 1.521-1.599 2.179-.496.676-.496.676-.606.827-.504.687-.72 1.785-.513 2.609l.516 2.063c.312 1.247 1.617 1.684 2.614.878l19.455-15.75c.562-.455 1.174-1.297 1.435-1.975l2.142-5.569.359-.933-1.867-.718-.359.933-2.142 5.569"/></g></g></svg>