<svg viewBox="0 0 150 150" xmlns="http://www.w3.org/2000/svg" xmlns:xlink="http://www.w3.org/1999/xlink"><g fill-rule="evenodd" transform="translate(29 10)"><path d="m23.518 100.44c.381.8 1.593 1.564 2.482 1.564h39.999c.881 0 2.105-.77 2.482-1.564l3.286-6.901c.108-.226.232-.78.232-1.038v-64.49c0-14.364-11.64-26.01-26-26.01-14.362 0-26 11.642-26 26.01v64.49c0 .257.125.813.232 1.038l3.286 6.901m-5.518-7.938v-64.49c0-15.467 12.533-28.01 28-28.01 15.464 0 28 12.537 28 28.01v64.49c0 .554-.19 1.401-.426 1.898l-3.286 6.901c-.711 1.493-2.639 2.704-4.288 2.704h-39.999c-1.657 0-3.574-1.204-4.288-2.704l-3.286-6.901c-.235-.494-.426-1.343-.426-1.898"/><circle cx="46" cy="17" r="3"/><path d="m38.4 21.314c-.062.436.155.686.59.686h14.01c.434 0 .652-.252.59-.686l-1.152-8.06c-.093-.653-.786-1.252-1.454-1.252h-9.981c-.674 0-1.36.594-1.454 1.252l-1.152 8.06m2.605-11.314h9.981c1.662 0 3.199 1.33 3.434 2.969l1.152 8.06c.234 1.64-.919 2.969-2.57 2.969h-14.01c-1.654 0-2.804-1.33-2.57-2.969l1.152-8.06c.234-1.64 1.761-2.969 3.434-2.969"/><path d="m19 33h54v2h-54z"/><path d="m19 92h54v2h-54z"/><path d="m6 67.998c0 .007 7.01.002 7.01.002-.011 0-.008-27.998-.008-27.998 0-.007-7.01-.002-7.01-.002.011 0 .008 27.998.008 27.998m-.008-29.998h7.02c1.1 0 1.992.889 1.992 2v27.997c0 1.106-.9 2-1.992 2h-7.02c-1.1 0-1.992-.889-1.992-2v-27.997c0-1.106.9-2 1.992-2"/><path d="m14 41h5v2h-5z"/><path d="m14 58h5v2h-5z"/><path d="m73 41h5v2h-5z"/><path d="m73 58h5v2h-5z"/><path d="m79 67.998c0 .007 7.01.002 7.01.002-.011 0-.008-27.998-.008-27.998 0-.007-7.01-.002-7.01-.002.011 0 .008 27.998.008 27.998m-.008-29.998h7.02c1.1 0 1.992.889 1.992 2v27.997c0 1.106-.9 2-1.992 2h-7.02c-1.1 0-1.992-.889-1.992-2v-27.997c0-1.106.9-2 1.992-2"/><path d="m5 69h2v25h-2z"/><path d="m5 109v.149l-.022.148-2.704 18.03c.018-.12-.157-.324-.283-.324h18.02c-.098 0-.239.159-.228.25l-1.533-13.03c-.065-.55-.603-1.484-1.051-1.82l-2.396-1.797-.8-.6v-1-14.01c0 .006-8.997.006-8.997.006-.005 0-.003 14-.003 14m.003-16h8.994c1.106 0 2 .895 2 1.994v14.01l2.396 1.797c.886.664 1.709 2.093 1.837 3.186l1.533 13.03c.129 1.095-.656 1.983-1.758 1.983h-18.02c-1.1 0-1.858-.885-1.695-1.972l2.704-18.03v-14.01c0-1.101.894-1.994 2-1.994"/><path d="m42 104v5 .828l-.586.586-1.588 1.588c-.459.459-.997 1.568-1.073 2.215l-1.533 13.03c.011-.093-.128-.25-.228-.25h18.02c-.098 0-.239.159-.228.25l-1.533-13.03c-.076-.647-.612-1.754-1.073-2.215l-1.588-1.588-.586-.586v-.828-5h-8m10-2v7l1.588 1.588c.78.78 1.517 2.302 1.645 3.396l1.533 13.03c.129 1.095-.656 1.983-1.758 1.983h-18.02c-1.1 0-1.886-.89-1.758-1.983l1.533-13.03c.129-1.095.87-2.62 1.645-3.396l1.588-1.588v-7h12"/><path d="m87 94.99c0 .004-8.997.006-8.997.006-.003 0-.003 14-.003 14v1l-.8.6-2.396 1.797c-.448.336-.986 1.27-1.051 1.82l-1.533 13.03c.011-.091-.13-.25-.228-.25h18.02c-.125 0-.301.204-.283.324l-2.704-18.03-.022-.148v-.149-14.01m2 14.01l2.704 18.03c.163 1.087-.596 1.972-1.695 1.972h-18.02c-1.101 0-1.887-.888-1.758-1.983l1.533-13.03c.129-1.093.951-2.522 1.837-3.186l2.396-1.797v-14.01c0-1.1.897-1.994 2-1.994h8.994c1.109 0 2 .893 2 1.994v14.01"/><path d="m4 109h12v2h-12z"/><path d="m76 109h12v2h-12z"/><path d="m41 108h10v2h-10z"/><path d="m12 69h2v25h-2z"/><path d="m78 69h2v25h-2z"/><path d="m85 69h2v25h-2z"/></g></svg>