<svg viewBox="0 0 150 150" xmlns="http://www.w3.org/2000/svg" xmlns:xlink="http://www.w3.org/1999/xlink"><g fill-rule="evenodd"><path d="m112.12 134.93c-.425-1.821-.814-3.607-1.167-5.363-2.334-11.607-2.901-18.96-3.174-33.28-.105-5.493-.189-8.02-.419-11.07-.769-10.244-3.092-18.918-8.462-29.657-.18-1.488-.469-3.095-1.607-9.3-.786-4.286-1.187-6.535-1.491-8.412-.301-1.858-.773-4.069-1.418-6.717-.191-.787-.397-1.609-.624-2.495-.29-1.136-1.534-5.871-1.785-6.871-3.062-12.249-6.392-19.22-11.07-18.753-5.073.507-7.189 4.38-7.03 10.273.102 3.678.995 7.496 2.176 11.04.33.989.687 2.875 1.162 5.974.115.747.206 1.363.413 2.762.699 4.729 1.01 6.606 1.404 8.191.217.87.353 1.904.413 3.066.083 1.608.046 4.268-.061 4.056-.527-1.041-1.086-2.074-1.664-3.051-.924-1.561-1.827-2.864-2.697-3.831-.498-.553-.984-.995-1.465-1.315-3.32-2.214-7.7-2.214-12-.062-2.364 1.182-2.733 5.305-1.92 11.647.534 4.169 1.684 9.361 2.418 11.564.143.428.48 1.036.933 1.769.29.47.907.615 1.376.325.47-.29.615-.907.325-1.376-.361-.584-.663-1.128-.737-1.35-2.26-6.781-3.902-19.589-1.501-20.789 3.698-1.849 7.318-1.849 9.998-.062.326.217.693.551 1.088.989.767.852 1.6 2.054 2.462 3.511.667 1.128 1.312 2.34 1.909 3.553.209.425.397.819.561 1.172.098.21.165.359.199.436.662 1.417 2.258 1.189 2.45-.364.009-.062.03-.213.056-.426.043-.35.086-.744.126-1.174.165-1.783.232-3.609.144-5.325-.066-1.282-.218-2.44-.47-3.448-.373-1.492-.68-3.355-1.365-7.998-.207-1.402-.299-2.02-.415-2.772-.494-3.224-.861-5.163-1.241-6.303-1.123-3.37-1.979-7.03-2.074-10.462-.138-4.974 1.432-7.848 5.225-8.227 3.039-.304 6.193 6.299 8.93 17.247.254 1.015 1.5 5.757 1.787 6.882.225.879.429 1.694.618 2.472.633 2.602 1.096 4.766 1.387 6.563.307 1.896.709 4.153 1.46 8.247 1.171 6.382 1.46 7.991 1.729 9.746 5.345 10.797 7.6 19.218 8.35 29.21.226 3.01.309 5.504.413 10.96.275 14.432.85 21.887 3.213 33.638.357 1.776.75 3.583 1.18 5.423.818 3.502 1.772 7.127 2.872 10.899.155.53.71.835 1.24.68.53-.155.835-.71.68-1.24-1.09-3.737-2.034-7.327-2.844-10.794"/><path d="m71.35 141.45c-.116-.712-.252-1.505-.406-2.359-.441-2.441-.943-4.882-1.496-7.164-.97-3.999-1.991-7.08-3.082-8.934-.41-.698-.973-1.44-1.798-2.404-.321-.375-.667-.767-1.173-1.333-.137-.153-.625-.698-.644-.718-.265-.296-.472-.528-.677-.759-2.508-2.826-4.335-5.136-6.184-8-4.02-6.228-7.04-13.632-8.906-22.975-.176-.882-.469-1.756-.88-2.662-.854-1.881-5.8-9.149-6.755-10.796-.895-1.542-1.697-3.101-2.431-4.752-2.11-4.747-3.41-7.132-5.127-9.66-.089-.131-.182-.267-.286-.419-1.656-2.409-1.805-2.633-2.643-4.03-.24-.4-1.236-2.027-1.48-2.433-.991-1.648-1.666-2.888-2.188-4.091-1.634-3.761-1.363-6.311 1.366-8.129.564-.376 1.133-.551 1.727-.551 1.927 0 4.233 1.845 6.569 4.959.854 1.139 1.65 2.363 2.365 3.588.25.429.472.827.663 1.183.113.211.19.36.228.436l8.517 13.26c.106.164.204.297.309.405.09.093.186.172.309.238.276.149.613.195.963.023.333-.164.497-.435.559-.726.028-.129.032-.248.023-.372-.011-.149-.043-.312-.094-.502-.034-.108-.065-.206-.106-.349-.071-.245-.142-.521-.208-.821-.217-.98-.332-1.965-.294-2.862.059-1.395.478-2.379 1.293-2.895.195-.123 1.01-.647 1.222-.781 3.963-2.51 6.195-2.855 8.694-.356.267.267.867.778 1.414 1.268.547.49-.123-1.145 0-1.268.391-.391.391-1.024 0-1.414-3.36-3.36-6.516-2.872-11.178.081-.219.139-1.034.662-1.222.781-1.462.926-2.137 2.514-2.221 4.5-.046 1.094-.018.486-.018.486l-6.226-9.682c.007.002-.078-.164-.2-.392-.202-.377-.435-.795-.698-1.246-.751-1.287-1.588-2.575-2.492-3.781-2.689-3.585-5.407-5.759-8.169-5.759-.992 0-1.946.294-2.836.887-3.685 2.457-4.067 6.04-2.09 10.591.565 1.3 1.276 2.609 2.309 4.326.249.415 1.244 2.04 1.479 2.43.867 1.446 1.029 1.687 2.71 4.134.102.149.193.282.28.41 1.646 2.424 2.89 4.706 4.953 9.348.764 1.719 1.599 3.342 2.529 4.944 1.032 1.778 5.895 8.925 6.664 10.619.351.773.595 1.503.74 2.227 1.918 9.591 5.03 17.229 9.187 23.667 1.912 2.963 3.798 5.347 6.368 8.243 3.933 4.432 3.473 3.895 4.063 4.9.963 1.64 1.937 4.574 2.863 8.393.543 2.24 1.037 4.644 1.472 7.05.152.842.286 1.624.4 2.325.068.42.115.718.139.876.082.546.591.923 1.137.841.546-.082.923-.591.841-1.137-.025-.166-.073-.473-.143-.901"/><path d="m100.99 82.52c-1.978-2.366-6.586-6.749-6.472-6.61-4.096-5.02-7.228-8.204-9.203-8.862-1.535-.512-2.783-.647-5.636-.749-3.853-.138-5.699-.363-8.364-1.251-.372-.125-1.553-.562-1.863-.664-1.165-.382-2.174-.51-3.545-.383-1.81.168-3.871 1.292-4.877 3.085-1.361 2.424-.736 5.638 2.169 9.511 3.287 4.383 5.401 5.579 9.685 6.686 1.342.347 1.844.609 2.283 1.268.022.033.045.07.069.111.17.291.96 2.075 1.065 2.296.618 1.297 1.284 2.401 2.16 3.467 1.521 1.852 3.519 3.364 6.144 4.489.508.218 1.096-.018 1.313-.525.218-.508-.018-1.096-.525-1.313-2.328-.998-4.067-2.314-5.386-3.92-.761-.928-1.347-1.898-1.9-3.059-.059-.124-.908-2.04-1.144-2.445-.044-.075-.087-.145-.132-.212-.781-1.172-1.67-1.636-3.447-2.095-3.882-1-5.608-1.98-8.585-5.95-2.475-3.299-2.941-5.7-2.025-7.332.653-1.163 2.115-1.961 3.317-2.072 1.088-.101 1.824-.007 2.738.292.265.087 1.435.52 1.782.636 2.966.989 4.966 1.232 8.997 1.376 2.663.095 3.782.216 5.075.648 1.44.48 4.505 3.593 8.285 8.229-.01-.012 4.61 4.382 6.488 6.628 4.171 4.991 6.546 10.302 6.443 16.177-.01.552.43 1.01.982 1.017.552.01 1.01-.43 1.017-.982.112-6.424-2.455-12.166-6.909-17.494"/><path d="m99.94 119.75c1.201-1.02 2.39-2.429 3.489-4.287 2.078-3.513 3.605-8.234 4.368-14.338.069-.548-.32-1.048-.868-1.116-.548-.069-1.048.32-1.116.868-.73 5.841-2.172 10.301-4.105 13.567-.986 1.666-2.03 2.904-3.062 3.781-.592.503-1.027.768-1.235.857-.508.218-.743.805-.525 1.313.218.508.805.743 1.313.525.387-.166.994-.535 1.742-1.171"/><path d="m46.861 63.05c.228.606.468 1.398.797 2.598.002.006.688 2.562.905 3.33 1.051 3.726 1.966 5.966 3.231 7.23 1.539 1.539 2.848 3.069 4.182 4.83.695.917 2.778 3.827 3.09 4.247.704.947 1.315 1.702 1.947 2.392 1.73 1.887 4.361 3.088 6.755 2.818 2.991-.337 5.211-2.789 6.208-7.277.12-.539-.22-1.073-.759-1.193-.539-.12-1.073.22-1.193.759-.827 3.721-2.431 5.492-4.48 5.723-1.701.192-3.73-.734-5.057-2.182-.58-.633-1.15-1.338-1.817-2.234-.296-.398-2.386-3.317-3.101-4.261-1.386-1.829-2.754-3.427-4.362-5.04-.928-.928-1.768-2.982-2.72-6.359-.212-.753-.896-3.298-.901-3.315-.344-1.256-.598-2.096-.854-2.775-.112-.298-.223-.559-.336-.787-.245-.495-.845-.698-1.34-.453-.495.245-.698.845-.453 1.34.081.163.166.365.257.605"/><path d="m76.39 60.08c.224.522.448 1.106.658 1.735.594 1.781.949 3.556.949 5.184 0 .552.448 1 1 1 .552 0 1-.448 1-1 0-1.872-.395-3.848-1.051-5.816-.228-.684-.472-1.319-.717-1.89-.149-.347-.266-.599-.337-.741-.247-.494-.848-.694-1.342-.447-.494.247-.694.848-.447 1.342.054.108.155.325.288.634"/><path d="m75.52 94.3c-1.01 3.337-.78 6.865.206 10.237.186.636.385 1.214.586 1.725.123.312.22.537.28.664.236.499.833.712 1.332.476.499-.236.712-.833.476-1.332-.041-.087-.121-.27-.226-.538-.179-.457-.359-.979-.528-1.555-.886-3.03-1.092-6.187-.211-9.1.466-1.54 1.228-2.956 2.321-4.231.359-.419.311-1.051-.108-1.41-.419-.359-1.051-.311-1.41.108-1.277 1.49-2.171 3.153-2.716 4.953"/></g></svg>