<svg viewBox="0 0 150 150" xmlns="http://www.w3.org/2000/svg" xmlns:xlink="http://www.w3.org/1999/xlink"><g fill="#000" fill-rule="evenodd" transform="matrix(-1 0 0 1 150 0)"><path d="m105.9 85.49c-.485-.013-1.027-.037-1.61-.075-1.665-.107-3.328-.299-4.872-.596-2.068-.398-3.75-.954-4.891-1.667-5.201-3.251-8.5-7.662-11.201-14.01-.479-1.125-.937-2.3-1.462-3.725-.28-.759-1.193-3.299-1.32-3.648-1.027-2.817-1.775-4.611-2.669-6.249-2.556-4.687-3.298-6.731-5.554-14.168-.855-2.819-1.476-4.54-2.366-6.35-.61-1.24-1.311-2.419-2.144-3.584-1.07-1.498-1.819-3.298-2.359-5.484-.381-1.54-.441-1.918-.974-5.645-.34-2.377-.598-3.564-1.098-4.556-.733-1.454-1.964-2.087-3.607-1.708-6.34 1.463-9.434 6.543-9.898 14.02-.321 5.172.643 11.131 2.165 16.242.316 1.062.683 2.053 1.291 3.551.078.192.151.372.302.742 3.01 7.374 3.253 11.409-.53 18.974-.247.494-.047 1.095.447 1.342.494.247 1.095.047 1.342-.447 4.078-8.156 3.8-12.764.593-20.624-.151-.37-.224-.548-.301-.738-.586-1.444-.934-2.384-1.228-3.37-1.46-4.905-2.39-10.648-2.085-15.547.415-6.684 3.02-10.963 8.352-12.193.715-.165 1.041.003 1.372.659.365.724.597 1.79.904 3.939.545 3.813.608 4.207 1.012 5.842.596 2.414 1.44 4.44 2.674 6.167.769 1.076 1.414 2.161 1.977 3.305.831 1.69 1.421 3.324 2.247 6.05 2.295 7.565 3.07 9.701 5.712 14.545.834 1.528 1.55 3.247 2.546 5.977.125.342 1.04 2.886 1.322 3.654.535 1.453 1.01 2.658 1.499 3.817 2.848 6.692 6.387 11.425 11.981 14.921 1.389.868 3.285 1.495 5.573 1.935 1.636.315 3.379.516 5.121.627.609.039 1.175.064 1.683.078.308.008.53.011.652.011.552 0 1-.448 1-1 0-.552-.448-1-1-1-.105 0-.308-.003-.597-.011"/><path d="m54.1 61.05c-.795.337-1.737.675-2.821.992-3.114.912-6.723 1.46-10.782 1.46-1.408 0-2.502-.045-5.337-.197-3.066-.164-4.573-.219-6.377-.196-8.218.105-14.04 2.324-18.582 8.286-2.538 3.331-1.846 9.192 2.244 12.614l.767.642 1.283-1.534-.767-.642c-3.274-2.739-3.823-7.391-1.937-9.867 4.116-5.402 9.358-7.401 17.02-7.499 1.746-.022 3.221.031 6.244.193 2.873.154 3.988.2 5.444.2 4.254 0 8.05-.577 11.343-1.54 1.159-.339 2.174-.704 3.039-1.07.529-.224.896-.402 1.097-.512l.878-.479-.958-1.756-.878.479c-.144.078-.452.228-.919.426"/><path d="m11.17 83.82c-.35.656-.7 1.383-1.026 2.163-.852 2.035-1.4 4.069-1.496 6-.221 4.442 1.994 7.705 7.11 8.984 3.513.878 28.02-1.419 37.41-2.984 3.441-.573 5.661-3.972 5.202-7.491-.504-3.861-3.925-6.496-9.367-6.496-1.482 0-2.603.075-4.926.289-.278.026-.278.026-.555.051-3.199.291-5.03.325-7.398.017-1.466-.191-4.118-.436-7.728-.724-1.08-.086-2.234-.175-3.454-.267-2.707-.203-5.608-.409-8.508-.606-1.015-.069-4.467-.297-4.467-.297l-.316.51c-.1.162-.268.451-.48.849m2.327.745c.845.056 1.786.119 2.8.188 2.896.197 5.792.403 8.494.605 1.217.091 2.368.18 3.445.266 3.577.285 6.206.528 7.628.713 2.544.331 4.504.294 7.837-.009.279-.025.279-.025.557-.051 2.264-.208 3.34-.28 4.742-.28 4.487 0 7.02 1.948 7.383 4.754.326 2.499-1.224 4.872-3.548 5.259-9.04 1.507-33.47 3.797-36.593 3.02-4.154-1.039-5.773-3.423-5.598-6.945.083-1.668.574-3.488 1.344-5.328.301-.719.623-1.39.945-1.993.191-.358.267-.216.562-.197"/><path d="m13.04 100.51c-.417.533-.833 1.133-1.223 1.789-1.585 2.67-2.274 5.437-1.504 8.092.933 3.217 3.922 5.791 9.221 7.557l.3.1.303-.091c2.812-.843 6.434-1.739 10.671-2.663 3.762-.82 7.796-1.616 11.83-2.358 1.412-.26 2.723-.494 3.9-.698.412-.072.777-.134 1.092-.188.188-.032.318-.054.384-.065.049-.005.208-.028.424-.065.354-.06.746-.137 1.168-.234 1.207-.277 2.415-.656 3.551-1.157 5.898-2.599 7.647-7.374 2.488-14.14l-.607-.795-1.59 1.213.607.795c4.31 5.65 3.09 8.982-1.704 11.09-1.01.445-2.1.787-3.192 1.038-.383.088-.737.158-1.054.211-.186.031-.315.05-.378.058-.11.018-.242.04-.432.072-.317.054-.685.117-1.099.189-1.183.206-2.5.441-3.919.702-4.054.745-8.108 1.545-11.895 2.371-4.057.884-7.562 1.745-10.359 2.564-.156.046-.075.073-.182.036-4.517-1.565-6.898-3.658-7.608-6.107-.587-2.025-.026-4.274 1.303-6.515.343-.578.711-1.108 1.078-1.577.217-.277.381-.469.467-.561l.681-.732-1.464-1.362-.681.732c-.123.132-.325.367-.578.691"/><path d="m18.64 118.84c-.827 1.85-1.227 3.745-.947 5.567.74 4.816 5.876 7.598 16.307 7.598.574 0 1.407.042 2.803.137.116.008 3.31.233 4.428.306 10.28.67 18.929.67 27.893-.45 2.114-.264 4.111-.559 6.189-.904 1.261-.209 7.964-1.425 9.753-1.693 6.699-1 12.643-.928 22.786.594.546.082 1.055-.294 1.137-.841.082-.546-.294-1.055-.841-1.137-10.331-1.55-16.474-1.628-23.379-.594-1.826.273-8.551 1.493-9.785 1.698-2.052.341-4.02.631-6.109.892-8.814 1.102-17.35 1.102-27.515.439-1.112-.073-4.303-.297-4.423-.305-1.44-.097-2.304-.141-2.938-.141-9.563 0-13.774-2.281-14.331-5.902-.212-1.38.113-2.917.797-4.447.192-.429.397-.823.601-1.172.12-.205.21-.345.255-.41.314-.454.201-1.077-.253-1.391-.454-.314-1.077-.201-1.391.253-.27.389-.655 1.048-1.038 1.905"/><path d="m46.5 75.5c1.526 0 3.916.789 5.137 1.969 1.577 1.524 1.41 3.673-1.389 6.872-.364.416-.322 1.047.094 1.411.416.364 1.047.322 1.411-.094 3.443-3.934 3.702-7.28 1.274-9.628-1.632-1.578-4.52-2.531-6.527-2.531-6.117 0-14.839-1.229-20.577-3.906-.5-.234-1.096-.017-1.329.483-.234.5-.017 1.096.483 1.329 6.06 2.83 15.04 4.094 21.423 4.094"/><path d="m51.03 112.25c.446.341.892.728 1.305 1.151 1.884 1.926 2.376 3.724.926 5.415-.981 1.145-2.813 2.244-5.602 3.24-2.722.972-10.225 3.687-11.528 4.147-2.889 1.021-4.645 1.579-6.378 2.01-1.191.298-2.405.543-3.922.796l-.986.164.329 1.973.986-.164c1.566-.261 2.832-.517 4.078-.829 1.806-.452 3.616-1.026 6.559-2.066 1.311-.463 8.819-3.18 11.534-4.15 3.088-1.103 5.207-2.374 6.448-3.822 2.289-2.67 1.502-5.541-1.015-8.115-.485-.496-1-.945-1.519-1.341-.313-.24-.561-.411-.713-.508l-.844-.537-1.074 1.687.844.537c.105.067.307.206.571.409"/><path d="m101.6 85.39c.117-.305.26-.61.424-.888.438-.742.889-1.077 1.33-1.01 3.501.534 6.02 10.639 6.395 24.387.164 6.05-.119 12.144-.772 16.798-.619 4.416-1.596 7.213-2.198 7.352-1.191.274-2.347-.338-3.433-1.625-.339-.402-.642-.838-.901-1.273-.154-.258-.256-.454-.303-.554-.235-.5-.831-.714-1.331-.478-.5.235-.714.831-.478 1.331.275.583.773 1.42 1.485 2.264 1.518 1.799 3.337 2.762 5.411 2.284 3.249-.748 4.89-12.457 4.519-26.15-.404-14.95-3.049-25.54-8.093-26.31-1.44-.22-2.546.603-3.353 1.969-.387.654-.633 1.295-.76 1.749-.149.532.161 1.084.693 1.233.532.149 1.084-.161 1.233-.693.019-.066.063-.202.132-.384"/><path d="m140.38 109.44c.128 12.751-2.061 23.831-4.432 23.966-.551.031-.973.504-.941 1.055.031.551.504.973 1.055.941 4.184-.239 6.461-11.764 6.318-25.983-.15-14.922-2.93-25.875-8.275-26.41-.55-.055-1.04.346-1.095.896-.055.55.346 1.04.896 1.095 3.708.371 6.337 10.727 6.475 24.44"/><path d="m133.95 84.999c.552.026 1.02-.401 1.046-.952.026-.552-.401-1.02-.952-1.046l-30-1.4c-.552-.026-1.02.401-1.046.952-.026.552.401 1.02.952 1.046l30 1.4"/><path d="m135.96 135.4c.552.024 1.018-.404 1.042-.956.024-.552-.404-1.018-.956-1.042l-30-1.3c-.552-.024-1.018.404-1.042.956-.024.552.404 1.018.956 1.042l30 1.3"/><circle cx="120" cy="124" r="3"/></g></svg>