<svg viewBox="0 0 150 150" xmlns="http://www.w3.org/2000/svg" xmlns:xlink="http://www.w3.org/1999/xlink"><defs><linearGradient x1="42.8621199%" y1="-36.5792411%" x2="54.0677787%" y2="131.121652%" id="linearGradient-1"><stop offset="0%"/><stop offset="100%"/></linearGradient></defs><g fill="none" fill-rule="evenodd" transform="translate(20)"><g transform="translate(19 26)" fill="#000"><path d="m5.597.539v19.581h6.513v-19.581h4.847v19.581h6.446v-19.581h4.837v23.461h-27.493v-23.461z"/><path d="m71.07 4.455h-22.474v4.544h13.771c2.761 0 4.949.669 6.566 2.01 1.617 1.337 2.425 3.139 2.425 5.406 0 2.277-.803 4.106-2.409 5.487-1.606 1.38-3.741 2.081-6.405 2.103h-18.83v-23.461h27.356v3.916m-22.474 8.443v7.219h13.851c1.235 0 2.221-.338 2.957-1.015.736-.677 1.104-1.584 1.104-2.723 0-1.063-.352-1.904-1.055-2.522-.704-.618-1.668-.937-2.892-.959h-13.964"/><path d="m4.338 34.781l3.652 10.309 3.633-10.309h3.848v14.219h-2.94v-3.89l.293-6.71-3.838 10.6h-2.01l-3.829-10.59.293 6.7v3.89h-2.929v-14.219z"/><path d="m41.776 49h-2.929v-6.094h-5.717v6.094h-2.93v-14.219h2.93v5.762h5.717v-5.762h2.929z"/><path d="m64.45 43.19h-1.691v5.81h-2.93v-14.219h2.93v5.694h1.341l3.47-5.694h3.58l-4.387 6.729 4.847 7.49h-3.5z"/><path d="m1.819 60.54h1.371c1 0 1.8.243 2.388.729.588.486.882 1.142.882 1.966 0 .828-.292 1.493-.876 1.995-.584.502-1.36.757-2.329.765h-3.205v-8.531h1.77v3.076m7.131 5.455h-1.758v-8.531h1.758v8.531m-7.131-4.04v2.625h1.4c.449 0 .808-.123 1.075-.369.268-.246.401-.576.401-.99 0-.387-.128-.692-.384-.917-.256-.225-.606-.341-1.052-.349h-1.441"/><path d="m23.803 57.47l2.191 6.19 2.176-6.19h2.312v8.53h-1.763v-2.33l.176-4.03-2.303 6.36h-1.207l-2.295-6.35.174 4.02v2.33h-1.758v-8.53z"/><path d="m48.07 58.893h-3.809v1.652h1.371c1 0 1.8.243 2.388.729.588.486.882 1.142.882 1.966 0 .828-.292 1.493-.876 1.995-.584.502-1.36.757-2.329.765h-3.211v-8.531h5.584v1.424m-3.809 3.07v2.625h1.4c.449 0 .808-.123 1.075-.369.268-.246.401-.576.401-.99 0-.387-.128-.692-.384-.917-.256-.225-.606-.341-1.052-.349h-1.441"/><path d="m4.927 75.67h-2.856v1.239h1.028c.753 0 1.35.182 1.791.547.441.365.661.856.661 1.474 0 .621-.219 1.12-.657 1.496-.438.376-1.02.568-1.747.573h-2.408v-6.398h4.188v1.068m-2.856 2.303v1.969h1.05c.337 0 .606-.092.806-.277.201-.185.301-.432.301-.743 0-.29-.096-.519-.288-.688-.192-.168-.455-.256-.789-.261h-1.081"/><path d="m17.11 76.909h1.028c.753 0 1.35.182 1.791.547.441.365.661.856.661 1.474 0 .621-.219 1.12-.657 1.496-.438.376-1.02.568-1.747.573h-2.404v-6.398h1.327v2.307m5.348 4.091h-1.318v-6.398h1.318v6.398m-5.348-3.03v1.969h1.05c.337 0 .606-.092.806-.277.201-.185.301-.432.301-.743 0-.29-.096-.519-.288-.688-.192-.168-.455-.256-.789-.261h-1.081"/><path d="m38.35 81h-1.32v-2.74h-2.57v2.74h-1.32v-6.4h1.32v2.59h2.57v-2.59h1.32z"/><path d="m51.13 78.39h-.76v2.61h-1.32v-6.4h1.32v2.56h.599l1.561-2.56h1.61l-1.97 3.03 2.18 3.37h-1.575z"/><path d="m65.852 74.6l1.648 4.64 1.63-4.64h1.732v6.4h-1.322v-1.75l.13-3.02-1.726 4.77h-.904l-1.72-4.76.13 3.01v1.75h-1.32v-6.4z"/><path d="m4.117 89.31h1.176v5.69h-1.176v-3.78l-2.277 3.78h-1.172v-5.69h1.172v3.79z"/><path d="m20.811 95h-1.172v-2.44h-2.285v2.44h-1.172v-5.69h1.172v2.31h2.285v-2.31h1.172z"/><path d="m32.842 89.31v4.75h1.578v-4.75h1.176v4.75h1.564v-4.75h1.17v5.69h-6.664v-5.69z"/><path d="m51.04 89.31l1.46 4.13 1.449-4.13h1.541v5.69h-1.18v-1.55l.12-2.69-1.535 4.24h-.805l-1.531-4.23.117 2.68v1.55h-1.176v-5.69z"/><path d="m68.779 92.68h-.679v2.32h-1.168v-5.69h1.168v2.28h.54l1.39-2.28h1.43l-1.75 2.69 1.93 3h-1.4z"/><path d="m4.522 108h-1.026v-2.13h-1.999v2.13h-1.026v-4.98h1.026v2.02h1.999v-2.02h1.026z"/><path d="m14.11 103.02v4.16h1.382v-4.16h1.029v4.16h1.367v-4.16h1.026v4.98h-5.834v-4.98z"/><path d="m28.936 104.82h.8c.586 0 1.05.142 1.393.426.343.284.514.666.514 1.147 0 .483-.17.871-.511 1.164-.341.293-.794.441-1.359.446h-1.87v-4.977h1.032v1.794m4.16 3.182h-1.025v-4.977h1.025v4.977m-4.16-2.355v1.531h.817c.262 0 .471-.072.627-.215.156-.144.234-.336.234-.578 0-.226-.075-.404-.224-.535-.149-.131-.354-.199-.614-.203h-.841"/><path d="m44.978 103.02h1.032v4.98h-1.032v-3.31l-1.993 3.31h-1.026v-4.98h1.026v3.32z"/><path d="m56.31 105.97h-.594v2.03h-1.026v-4.98h1.026v2h.464l1.22-2h1.252l-1.532 2.36 1.692 2.62h-1.222z"/><path d="m70.5 103.85h-2.222v.964h.8c.586 0 1.05.142 1.393.426.343.284.514.666.514 1.147 0 .483-.17.871-.511 1.164-.341.293-.794.441-1.359.446h-1.873v-4.977h3.257v.831m-2.222 1.791v1.531h.817c.262 0 .471-.072.627-.215.156-.144.234-.336.234-.578 0-.226-.075-.404-.224-.535-.149-.131-.354-.199-.614-.203h-.841"/><path d="m62.763 57.47v7.12h2.367v-7.12h1.764v7.12h2.346v-7.12h1.755v8.53h-9.996v-8.53z"/></g><path d="m2 146c0 .562.443 1 .998 1h105c.549 0 .998-.45.998-1v-130.99c0-.562-.443-1-.998-1h-105c-.549 0-.998.45-.998 1v130.99m.998-134h105c1.656 0 2.998 1.334 2.998 3v130.99c0 1.66-1.344 3-2.998 3h-105c-1.656 0-2.998-1.334-2.998-3v-130.99c0-1.66 1.344-3 2.998-3" fill="url(#linearGradient-1)"/><g transform="translate(16)" fill="#000"><path d="m44 4.5c0-2.485-2.01-4.5-4.5-4.5-2.485 0-4.5 2.01-4.5 4.5 0 2.485 2.01 4.5 4.5 4.5 2.485 0 4.5-2.01 4.5-4.5m-7 0c0-1.381 1.119-2.5 2.5-2.5 1.381 0 2.5 1.119 2.5 2.5 0 1.381-1.119 2.5-2.5 2.5-1.381 0-2.5-1.119-2.5-2.5"/><path d="m36.25 4.968c.534-.139.855-.686.715-1.22-.139-.534-.686-.855-1.22-.715l-34.5 9c-.534.139-.855.686-.715 1.22.139.534.686.855 1.22.715l34.5-9"/><path d="m43.25 3.03c-.535-.138-1.08.185-1.218.719-.138.535.185 1.08.719 1.218l35 9c.535.138 1.08-.185 1.218-.719.138-.535-.185-1.08-.719-1.218l-35-9"/></g></g></svg>