<svg viewBox="0 0 150 150" xmlns="http://www.w3.org/2000/svg" xmlns:xlink="http://www.w3.org/1999/xlink"><g fill="none" fill-rule="evenodd"><g fill="#000"><path d="m88 23.5c0-5.974-.361-9.626-1.71-13.03-1.899-4.793-5.557-7.468-11.29-7.468-5.733 0-9.391 2.675-11.29 7.468-1.349 3.405-1.71 7.06-1.71 13.03 0 9.285 6.239 20.5 13 20.5 6.761 0 13-11.215 13-20.5m-24 0c0-5.728.343-9.2 1.569-12.295 1.606-4.055 4.547-6.205 9.431-6.205 4.884 0 7.824 2.15 9.431 6.205 1.226 3.096 1.569 6.567 1.569 12.295 0 8.327-5.659 18.5-11 18.5-5.341 0-11-10.173-11-18.5"/><g transform="translate(7 39)"><path d="m53.933.49c-.436.265-.95.562-1.537.883-1.685.919-3.618 1.84-5.768 2.699-.619.248-1.232.477-1.972.742-.27.097-1.491.528-1.815.645-1.936.698-3.155 1.247-4.42 2.064-1.441.932-2.785 2.151-4.19 3.838-3.064 3.676-3.755 6.679-3.872 12.534-.042 2.093-.103 2.955-.33 3.863l.113-.272c-2.432 4.053-3.587 11.03-3.641 18.01-2.433 2.94-4.479 6.03-6.239 9.429-2.207 4.261-3.821 8.657-5.287 13.842-.247.874-.478 1.726-.764 2.806-.078.293-.339 1.284-.329 1.245-.124.471-.214.809-.3 1.124-.43 1.588-.715 2.476-.969 2.98-.593.454-1.082.672-2.23 1.163-.195.083-.195.083-.39.167-2.084.897-3.051 1.395-3.701 2.045-.076.076-.139.164-.187.26-.524 1.048-1.224 1.842-2.15 2.536-.543.407-2.361 1.498-2.399 1.524-1.019.679-1.556 1.37-1.556 2.388 0 .155.036.308.106.447.299.598.624 1.614.944 2.906.208.838.401 1.74.575 2.642.061.316.115.61.161.873.028.157.047.268.056.325.182 1.028 1.689.926 1.237 1.571-.555.793-.962 1.585-1.158 2.368-.206.824-.167 1.611.185 2.315.048.096.111.184.187.26.47.47 1.01.73 1.597.796.454.05.771.005 1.43-.143.377-.085.466-.125.533-.102 1.02.344 1.779.288 2.559-.043 1.742.999 4.258-.151 5.683-2.438.245-.305.572-.707.975-1.19 3.114-3.732 3.133-3.755 3.825-5.14.487-.974.701-2.044 1.096-4.806.355-2.488.558-3.501.904-4.194.061-.122 6.639-8.02 9.488-11.739 1.252-1.636 2.402-3.204 3.447-4.708 3.34-4.809 5.478-8.772 6.147-11.783.023-1.664 2.461-8.733 4.729-13.387.063-.13.086.352.304 1.932.14 1.012.268 1.994.384 2.934.388 3.161.607 5.684.607 7.305 0 1.648-.347 4.381-.959 7.863-.159.906-.334 1.85-.522 2.822-.327 1.687-.677 3.379-1.027 4.994-.123.565-.236 1.08-.338 1.534-.061.272-.105.463-.128.563-.124.538.211 1.075.75 1.199.538.124 1.075-.211 1.199-.75.024-.103.068-.298.13-.574.103-.459.218-.978.341-1.548.353-1.628.706-3.334 1.036-5.04.19-.983.367-1.938.529-2.856.632-3.592.99-6.411.99-8.209 0-1.724-.224-4.311-.622-7.548-.117-.95-.247-1.942-.388-2.963-.22-1.592-.455-3.18-.69-4.689-.082-.528-.298-1.868-.314-1.964-.202-1.211-1.986-1.063-1.986.164 0 .198-.027.582-.111 1.086-.141.845-.394 1.689-.783 2.467-2.451 4.901-5.106 12.552-5.106 14.447-.573 2.471-2.612 6.25-5.813 10.859-1.026 1.477-2.158 3.02-3.393 4.634-2.69 3.516-9.506 11.695-9.689 12.06-.487.974-.701 2.044-1.096 4.806-.355 2.488-.558 3.501-.904 4.194-.587 1.173-.626 1.223-3.572 4.753-.416.498-.756.917-1.077 1.328-.98 1.563-2.374 2.178-2.856 1.816-.364-.273-.767-.389-1.19-.334-.17.022-.32.067-.487.133-.073.029-.288.124-.292.125-.377.16-.655.174-1.28-.061-.112-.042-.232-.064-.352-.064-.35 0-.597.042-1.121.16-.441.099-.613.124-.77.106-.137-.015-.233-.036-.297-.267-.064-.231-.033-.306.048-.631.127-.508.43-1.096.856-1.706.219-.313.455-.61.691-.879.139-.159.245-.271.299-.325.63-.63.184-1.707-.707-1.707h-1c-.072 0-.177-.087-.187-.143-.009-.053-.029-.171-.058-.336-.048-.273-.104-.576-.167-.903-.18-.934-.38-1.869-.597-2.746-.353-1.425-.991-2.872-.991-2.872 0-.189.146-.377.666-.724-.039.026 1.848-1.106 2.49-1.588 1.161-.871 2.067-1.897 2.739-3.242l-.187.26c.39-.39 1.279-.848 3.078-1.622.193-.083.193-.083.387-.166 1.186-.508 1.696-.735 2.276-1.025.408-.204.693-.563.952-1.076.338-.669.648-1.633 1.114-3.358-.119.441 1-3.794 1.387-5.154 1.432-5.067 3-9.344 5.139-13.467 1.76-3.398 3.811-6.466 6.21-9.177.162-.183.251-.418.251-.663 0-6.805 1.104-13.73 3.357-17.486.051-.085.089-.176.113-.272.277-1.108.345-2.058.39-4.309.108-5.438.711-8.06 3.408-11.294 1.281-1.537 2.475-2.621 3.74-3.438 1.111-.718 2.207-1.212 4.01-1.862.316-.114 1.535-.544 1.812-.643.761-.272 1.396-.51 2.04-.768 2.226-.89 4.23-1.845 5.982-2.801.616-.336 1.157-.648 1.619-.93.281-.171.477-.296.582-.366.46-.306.584-.927.277-1.387-.306-.46-.927-.584-1.387-.277-.083.055-.255.165-.512.322"/><path d="m133.93.49c-.436.265-.95.562-1.537.883-1.685.919-3.618 1.84-5.768 2.699-.619.248-1.232.477-1.972.742-.27.097-1.491.528-1.815.645-1.936.698-3.155 1.247-4.42 2.064-1.441.932-2.785 2.151-4.19 3.838-3.064 3.676-3.755 6.679-3.872 12.534-.042 2.093-.103 2.955-.33 3.863l.113-.272c-2.432 4.053-3.587 11.03-3.641 18.01-2.433 2.94-4.479 6.03-6.239 9.429-2.207 4.261-3.821 8.657-5.287 13.842-.247.874-.478 1.726-.764 2.806-.078.293-.339 1.284-.329 1.245-.124.471-.214.809-.3 1.124-.43 1.588-.715 2.476-.969 2.98-.593.454-1.082.672-2.23 1.163-.195.083-.195.083-.39.167-2.084.897-3.051 1.395-3.701 2.045-.076.076-.139.164-.187.26-.524 1.048-1.224 1.842-2.15 2.536-.543.407-2.361 1.498-2.399 1.524-1.019.679-1.556 1.37-1.556 2.388 0 .155.036.308.106.447.299.598.624 1.614.944 2.906.208.838.401 1.74.575 2.642.061.316.115.61.161.873.028.157.047.268.056.325.182 1.028 1.689.926 1.237 1.571-.555.793-.962 1.585-1.158 2.368-.206.824-.167 1.611.185 2.315.048.096.111.184.187.26.47.47 1.01.73 1.597.796.454.05.771.005 1.43-.143.377-.085.466-.125.533-.102 1.02.344 1.779.288 2.559-.043 1.742.999 4.258-.151 5.683-2.438.245-.305.572-.707.975-1.19 3.114-3.732 3.133-3.755 3.825-5.14.487-.974.701-2.044 1.096-4.806.355-2.488.558-3.501.904-4.194.061-.122 6.639-8.02 9.488-11.739 1.252-1.636 2.402-3.204 3.447-4.708 3.34-4.809 5.478-8.772 6.147-11.783.023-1.664 2.461-8.733 4.729-13.387.063-.13.086.352.304 1.932.14 1.012.268 1.994.384 2.934.388 3.161.607 5.684.607 7.305 0 1.648-.347 4.381-.959 7.863-.159.906-.334 1.85-.522 2.822-.327 1.687-.677 3.379-1.027 4.994-.123.565-.236 1.08-.338 1.534-.061.272-.105.463-.128.563-.124.538.211 1.075.75 1.199.538.124 1.075-.211 1.199-.75.024-.103.068-.298.13-.574.103-.459.218-.978.341-1.548.353-1.628.706-3.334 1.036-5.04.19-.983.367-1.938.529-2.856.632-3.592.99-6.411.99-8.209 0-1.724-.224-4.311-.622-7.548-.117-.95-.247-1.942-.388-2.963-.22-1.592-.455-3.18-.69-4.689-.082-.528-.298-1.868-.314-1.964-.202-1.211-1.986-1.063-1.986.164 0 .198-.027.582-.111 1.086-.141.845-.394 1.689-.783 2.467-2.451 4.901-5.106 12.552-5.106 14.447-.573 2.471-2.612 6.25-5.813 10.859-1.026 1.477-2.158 3.02-3.393 4.634-2.69 3.516-9.506 11.695-9.689 12.06-.487.974-.701 2.044-1.096 4.806-.355 2.488-.558 3.501-.904 4.194-.587 1.173-.626 1.223-3.572 4.753-.416.498-.756.917-1.077 1.328-.98 1.563-2.374 2.178-2.856 1.816-.364-.273-.767-.389-1.19-.334-.17.022-.32.067-.487.133-.073.029-.288.124-.292.125-.377.16-.655.174-1.28-.061-.112-.042-.232-.064-.352-.064-.35 0-.597.042-1.121.16-.441.099-.613.124-.77.106-.137-.015-.233-.036-.297-.267-.064-.231-.033-.306.048-.631.127-.508.43-1.096.856-1.706.219-.313.455-.61.691-.879.139-.159.245-.271.299-.325.63-.63.184-1.707-.707-1.707h-1c-.072 0-.177-.087-.187-.143-.009-.053-.029-.171-.058-.336-.048-.273-.104-.576-.167-.903-.18-.934-.38-1.869-.597-2.746-.353-1.425-.991-2.872-.991-2.872 0-.189.146-.377.666-.724-.039.026 1.848-1.106 2.49-1.588 1.161-.871 2.067-1.897 2.739-3.242l-.187.26c.39-.39 1.279-.848 3.078-1.622.193-.083.193-.083.387-.166 1.186-.508 1.696-.735 2.276-1.025.408-.204.693-.563.952-1.076.338-.669.648-1.633 1.114-3.358-.119.441 1-3.794 1.387-5.154 1.432-5.067 3-9.344 5.139-13.467 1.76-3.398 3.811-6.466 6.21-9.177.162-.183.251-.418.251-.663 0-6.805 1.104-13.73 3.357-17.486.051-.085.089-.176.113-.272.277-1.108.345-2.058.39-4.309.108-5.438.711-8.06 3.408-11.294 1.281-1.537 2.475-2.621 3.74-3.438 1.111-.718 2.207-1.212 4.01-1.862.316-.114 1.535-.544 1.812-.643.761-.272 1.396-.51 2.04-.768 2.226-.89 4.23-1.845 5.982-2.801.616-.336 1.157-.648 1.619-.93.281-.171.477-.296.582-.366.46-.306.584-.927.277-1.387-.306-.46-.927-.584-1.387-.277-.083.055-.255.165-.512.322" transform="matrix(-1 0 0 1 216 0)"/><path d="m5 88l4.071-1.629c.513-.205.608-.05.218.339l-2.289 2.289-.553 1.105c-.247.494-.586.478-.764-.055l-.684-2.051"/><path d="m126.47 88l4.071-1.629c.513-.205.608-.05.218.339l-2.289 2.289-.553 1.105c-.247.494-.586.478-.764-.055l-.684-2.051" transform="matrix(-1 0 0 1 257.47 0)"/><path d="m43.656 5.161c-.519.19-.785.765-.595 1.283.19.519.765.785 1.283.595 2.279-.836 7.965-.294 13.436.937.539.121 1.074-.217 1.195-.756.121-.539-.217-1.074-.756-1.195-5.868-1.32-11.781-1.884-14.564-.863"/><path d="m91.66 7.04c.519.19 1.093-.076 1.283-.595.19-.519-.076-1.093-.595-1.283-2.782-1.02-8.696-.457-14.564.863-.539.121-.877.656-.756 1.195.121.539.656.877 1.195.756 5.471-1.231 11.157-1.773 13.436-.937"/></g></g><g transform="translate(21 111)"><path d="m73.5 11.5c0 0 7.5-4.5 22.5-.5" stroke="#000" stroke-width="2" stroke-linecap="round"/><g fill="#000"><path d="m19.94 21.676c.43-.188.922-.398 1.467-.624 1.559-.647 3.23-1.294 4.946-1.898 1.829-.643 3.602-1.199 5.276-1.639 4.424-1.165 7.825-1.437 9.655-.638 19.429 8.479 33.683 14.55 36.913 15.576 5.244 1.667 12.01 1.725 17.999.528 2.093-.419 3.861-1.342 5.317-2.616 1.228-1.075 2-2.157 2.382-2.918.247-.494.047-1.095-.447-1.342-.494-.247-1.095-.047-1.342.447-.059.119-.202.36-.432.682-.394.552-.886 1.107-1.477 1.625-1.203 1.053-2.658 1.813-4.392 2.16-5.681 1.136-12.11 1.081-17-.472-3.124-.993-17.454-7.096-36.719-15.503-2.376-1.037-6.124-.737-10.964.537-1.73.456-3.553 1.027-5.43 1.687-1.753.617-3.459 1.277-5.05 1.937-.557.231-1.061.446-1.502.639-.266.117-.454.2-.554.246-.502.229-.724.822-.495 1.325.229.502.822.724 1.325.495.091-.041.269-.121.525-.233"/><path d="m43.29 30.979c2.57-.896 4.845-1.858 6.803-2.821.688-.339 1.289-.654 1.798-.938.31-.173.524-.299.639-.37.47-.291.615-.907.324-1.377-.291-.47-.907-.615-1.377-.324-.089.055-.277.166-.56.324-.48.268-1.05.567-1.708.89-1.887.928-4.087 1.858-6.579 2.727-12.153 4.239-26.17 5.489-41.4 1.935-.538-.125-1.076.209-1.201.747-.125.538.209 1.076.747 1.201 15.625 3.646 30.02 2.362 42.513-1.995"/><path d="m41.25 2.121c-.547.339-1.144.678-1.768.994-.998.505-1.968.899-2.861 1.14-.772.208-1.46.294-2.037.247-1.605-.129-2.95-.399-4.702-.883-.089-.025-1.519-.43-1.921-.536-.723-.191-1.313-.318-1.89-.398-3.929-.545-7.481 1.315-13.774 7.608-1.5 1.5-1.5 1.5-2 2-.391.391-.391 1.024 0 1.414.391.391 1.024.391 1.414 0 .5-.5.5-.5 2-2 5.893-5.893 8.922-7.48 12.08-7.04.487.068 1 .179 1.654.351.382.101 1.795.501 1.899.53 1.864.515 3.325.808 5.074.949.832.067 1.741-.046 2.719-.31 1.041-.281 2.132-.725 3.243-1.287.679-.344 1.326-.711 1.919-1.079.358-.222.623-.397.772-.501.453-.316.564-.94.247-1.392-.316-.453-.94-.564-1.392-.247-.121.084-.355.239-.68.441"/><path d="m85.12 5.949c.615.703 1.114 1.459 1.504 2.214.231.446.371.784.43.958.177.523.745.803 1.268.626.523-.177.803-.745.626-1.268-.336-.991-1.074-2.418-2.323-3.846-3.716-4.252-9.384-5.371-17.07-1.527-.494.247-.694.848-.447 1.342.247.494.848.694 1.342.447 6.873-3.436 11.554-2.512 14.671 1.054"/></g></g><g fill="#000"><path d="m109.05 44.39c.494.247 1.095.047 1.342-.447.247-.494.047-1.095-.447-1.342l-12-6c-.494-.247-1.095-.047-1.342.447-.247.494-.047 1.095.447 1.342l12 6"/><path d="m112.22 21.03c.269-.509.943-.741 1.471-.506l.936.417c.486.217.67.741.422 1.218l-7.566 14.554c-.255.49-.064 1.094.426 1.349.49.255 1.094.064 1.349-.426l7.566-14.554c.78-1.5.155-3.282-1.383-3.967l-.936-.417c-1.488-.662-3.291-.042-4.052 1.398l-9.591 18.13c-.258.488-.072 1.093.416 1.351.488.258 1.093.072 1.351-.416l9.591-18.13"/></g></g></svg>