<svg viewBox="0 0 150 150" xmlns="http://www.w3.org/2000/svg" xmlns:xlink="http://www.w3.org/1999/xlink"><g fill-rule="evenodd"><path d="m20 44l55-35 55 35v62l-55 35-55-35v-62m2 1l53-34 53 34v60l-53 34-53-34v-60"/><path d="m75 81.19l54.54-35.35c.463-.3.596-.92.295-1.383-.3-.463-.92-.596-1.383-.295l-53.46 34.656-53.46-34.656c-.463-.3-1.083-.168-1.383.295-.3.463-.168 1.083.295 1.383l54.54 35.35"/><path d="m101.12 27.938l.84-.544-1.09-1.679-.84.545-53.07 34.401-.836.539 1.08 1.683.84-.543z"/><path d="m74 80h2v59h-2z"/><g transform="translate(108 86)"><path d="m1 18l10-6v2l-10 6z"/><path d="M2 5.176 4 4 4 13.824 2 15z"/><path d="M7 2.176 9 1 9 10.824 7 12z"/><path d="m2.8 3l2 1.6-4 2.4z"/><path d="m7.8 0l2 1.6-4 2.4z"/></g></g></svg>